/* XPM */
static char *_e99d21e43544d4798a6df0f47136ac3j92hocNei2p1ZgKL[] = {
/* columns rows colors chars-per-pixel */
"64 64 201 2 ",
"   c #BE3605",
".  c #BB3907",
"X  c #B93409",
"o  c #BB390C",
"O  c #B43B17",
"+  c #B93813",
"@  c #C13C05",
"#  c #B6401A",
"$  c #BE481B",
"%  c #BE5819",
"&  c #BC611F",
"*  c #BA4321",
"=  c #BB4A25",
"-  c #BA4F2D",
";  c #BD5B2A",
":  c #BB5834",
">  c #BB593B",
",  c #BF642A",
"<  c #BE712E",
"1  c #B86639",
"2  c #C34306",
"3  c #C74A08",
"4  c #D24D0B",
"5  c #C55705",
"6  c #CB5507",
"7  c #CA5C05",
"8  c #D1590A",
"9  c #C35215",
"0  c #CB6404",
"q  c #CF6607",
"w  c #D36406",
"e  c #D36B05",
"r  c #D66908",
"t  c #D8770A",
"y  c #C67817",
"u  c #C16828",
"i  c #C67728",
"p  c #C26730",
"a  c #C57E36",
"s  c #C47D3B",
"d  c #BB6643",
"f  c #BD664A",
"g  c #BE6A4B",
"h  c #BF7456",
"j  c #BB795B",
"k  c #BC7D61",
"l  c #C16849",
"z  c #C37C42",
"x  c #C3744B",
"c  c #C27B5D",
"v  c #C47F65",
"b  c #DA8109",
"n  c #DB8C09",
"m  c #DF920A",
"M  c #C68219",
"N  c #E6830C",
"B  c #E48A0A",
"V  c #E98C09",
"C  c #E79406",
"Z  c #EC9D05",
"A  c #E49609",
"S  c #E29D0A",
"D  c #EB9D0B",
"F  c #F09B04",
"G  c #EB9B12",
"H  c #E99C1A",
"J  c #DAA716",
"K  c #DEB61D",
"L  c #ECA406",
"P  c #EDA907",
"I  c #E9A40B",
"U  c #ECAA0B",
"Y  c #F2A605",
"T  c #F5AC03",
"R  c #F9AD02",
"E  c #F1A60E",
"W  c #F4AC0D",
"Q  c #EFBB06",
"!  c #E6B60A",
"~  c #EBB509",
"^  c #ECB909",
"/  c #F5B403",
"(  c #FBB301",
")  c #F6BA05",
"_  c #FBBC01",
"`  c #F4BB0A",
"'  c #FBBF0C",
"]  c #E4A313",
"[  c #EBA619",
"{  c #EFB818",
"}  c #F2BE12",
"|  c #CB8323",
" . c #C88332",
".. c #CF9835",
"X. c #D09B3B",
"o. c #D5A23A",
"O. c #DDB53F",
"+. c #ECAD26",
"@. c #EABB23",
"#. c #E1B73C",
"$. c #EEC208",
"%. c #F4C404",
"&. c #FBC301",
"*. c #F4CB05",
"=. c #FACB01",
"-. c #F3C409",
";. c #FBC40B",
":. c #F5CC0A",
">. c #FACA0C",
",. c #EDD10D",
"<. c #F6D304",
"1. c #FBD401",
"2. c #F6DC03",
"3. c #FCDC00",
"4. c #F4D309",
"5. c #F8D20E",
"6. c #F4DB0A",
"7. c #EDC61A",
"8. c #F6C311",
"9. c #F7CB16",
"0. c #F2C61A",
"q. c #F5D213",
"w. c #F8D116",
"e. c #F4D71B",
"r. c #F6E003",
"t. c #FCE301",
"y. c #FBED01",
"u. c #F5E209",
"i. c #FAE309",
"p. c #F7ED0B",
"a. c #FBED09",
"s. c #FAE413",
"d. c #FAEC1B",
"f. c #F9F01E",
"g. c #EAC428",
"h. c #F7D925",
"j. c #F7DE2C",
"k. c #EFC131",
"l. c #EFCD35",
"z. c #EFDA38",
"x. c #F3D535",
"c. c #F3D53C",
"v. c #F4DC3D",
"b. c #F7E024",
"n. c #F9E728",
"m. c #F9F125",
"M. c #F9E634",
"N. c #F9EA36",
"B. c #F6E33D",
"V. c #FAED3E",
"C. c #FBF133",
"Z. c #FBF23B",
"A. c #C48556",
"S. c #DCAB4B",
"D. c #E4BC46",
"F. c #C68365",
"G. c #C48669",
"H. c #C48A6C",
"J. c #C88C6E",
"K. c #C48E74",
"L. c #C88E73",
"P. c #C99374",
"I. c #CB957A",
"U. c #CD9A7E",
"Y. c #E8C844",
"T. c #EDD644",
"R. c #EFD847",
"E. c #F4DD47",
"W. c #F5DE48",
"Q. c #EDD25E",
"!. c #F6E343",
"~. c #F6EB42",
"^. c #F9EE43",
"/. c #F6E24D",
"(. c #FAEE4B",
"). c #FCF344",
"_. c #F6F248",
"`. c #FBF34A",
"'. c #F8EC56",
"]. c #FBF152",
"[. c #F9F15E",
"{. c #F9F369",
"}. c #FAF571",
"|. c #CD9D83",
" X c #CFA389",
".X c #CEA688",
"XX c #D0A68B",
"oX c #D1AB8B",
"OX c #D3AF93",
"+X c #D5B295",
"@X c #D5B596",
"#X c #D5BA97",
"$X c #D6B698",
"%X c #D8B799",
"&X c #D7BB9A",
"*X c #D6BC98",
"=X c #D7BD9A",
"-X c #D7BD9C",
";X c #D8B899",
":X c #D8BC98",
">X c #D8BC9B",
/* pixels */
"=X=X=X=X=X=X=X=X=X=X=X=X=X=X=X=X:X:X:X:X=X=X=X=X=X=X=X=X=X=X-X-X-X-X=X=X=X=X=X=X=X=X=X=X=X:X:X=X=X=X=X=X=X=X=X=X=X=X=X=X=X=X=X=X",
"=X=X=X=X=X=X=X=X=X=X=X=X=X=X=X=X=X:X:X:X=X=X=X=X=X=X=X=X=X=X&X&X&X&X=X=X=X=X=X=X=X=X=X=X=X:X:X=X=X=X=X=X=X=X=X=X=X=X=X=X=X=X=X=X",
"=X=X=X=X=X=X=X=X=X=X=X=X=X=X=X=X=X:X:X:X=X=X=X=X=X=X=X-X-X&X&X&X&X&X&X-X-X=X=X=X=X=X=X=X=X=X:X=X=X=X=X=X=X=X=X=X=X=X=X=X=X=X=X=X",
"=X=X=X=X=X=X=X=X=X=X=X=X=X=X=X=X=X:X=X=X=X=X=X=X=X=X=X-X&X&X@X@X@X@X&X;X-X=X=X=X=X=X=X=X=X=X=X=X=X=X=X=X=X=X=X=X=X=X=X=X=X=X=X=X",
"=X=X=X=X=X=X=X=X=X=X=X=X=X=X=X=X=X=X=X=X=X=X=X=X=X=X=X:X&X$X@X+X+X@X@X&X;X=X=X=X=X=X=X=X=X=X=X=X=X=X=X=X=X=X=X=X=X=X=X=X=X=X=X=X",
"=X=X=X=X=X=X=X=X=X=X=X=X=X=X=X=X=X=X=X=X=X=X=X=X=X&X;X&X$X@X+X+X+X+X@X$X&X;X&X=X=X=X=X=X=X=X=X=X=X=X=X=X=X=X=X=X=X=X=X=X=X=X=X=X",
"=X=X=X=X=X=X=X=X=X=X=X=X=X=X=X=X=X=X=X=X=X=X=X=X=X;X;X@X+X+X+XOXOX+X+X+X@X;X&X=X=X=X=X=X=X=X=X=X=X=X=X=X=X=X=X=X=X=X=X=X=X=X=X=X",
"=X=X=X=X=X=X=X=X=X=X=X=X=X=X=X=X=X=X=X=X=X=X=X-X;X;X$X@X+X+XOXOXOXOX+X+X+X%X;X;X-X=X=X=X=X=X=X=X=X=X=X=X=X=X=X=X=X=X=X=X=X=X=X=X",
"=X=X=X=X=X=X=X=X=X=X=X=X=X=X=X=X=X=X=X=X=X=X&X;X&X@X@X+X+X+X+XOXOX+X+X+X+X+X@X;X&X=X=X=X=X=X=X=X=X=X=X=X=X=X=X=X=X=X=X=X=X=X=X=X",
"=X=X=X=X=X=X=X=X=X=X=X=X=X=X=X=X=X=X=X=X=X&X;X;X@X@X+X+X+X+X+X+X+X+X+X+X+X+X+X@X;X&X&X=X=X=X=X=X=X=X=X=X=X=X=X=X=X=X=X=X=X=X=X=X",
"=X=X=X=X=X=X=X=X=X=X=X=X=X=X=X=X=X=X=X=X=X&X&X$X+X+X+X+X+X+X+X+X+X+X+X+X+X+X+X+X$X;X&X=X=X=X=X=X=X=X=X=X=X=X=X=X=X=X=X=X=X=X=X=X",
"=X=X=X=X=X=X=X=X=X=X=X=X=X=X=X=X=X=X-X-X;X;X@X@X+X+X+X+X+X+X+X+X+X+X+X+X+X+X+X+X+X@X&X&X-X-X=X=X=X=X=X=X=X=X=X=X=X=X=X=X=X=X=X=X",
"=X=X=X=X=X=X=X=X=X=X=X=X=X=X=X=X=X=X=X&X&X$X+X+X+XOX+X+X+X+X+X+X+X+X+X+X+X+X+X+X+X+X$X&X;X=X=X=X=X=X=X=X=X=X=X=X=X=X=X=X=X=X=X=X",
"=X=X=X=X=X=X=X=X=X=X=X=X=X=X=X=X=X&X&X&X@X@X+X+X+X+X+X+X+X+X+X+X+X+X+X+X+X+X+X+X+X+X@X@X&X&X&X=X=X=X=X=X=X=X=X=X=X=X=X=X=X=X=X=X",
"=X=X=X=X=X=X=X=X=X=X=X=X=X=X=X=X=X&X&X@X+X+X+XOX+X+X+XOX XK.k j j k K..X+X+X+X+XOXOX+X+X@X&X&X=X=X=X=X=X=X=X=X=X=X=X=X=X=X=X=X=X",
"=X=X=X=X=X=X=X=X=X=X=X=X=X=X=X&X&X&X$X@X+X+XOXOXXXP.A.s X.D.T.W.W.T.#...s A.I.XXOXOX+X+X@X@X&X&X&X=X=X=X=X=X=X=X=X=X=X=X=X=X=X=X",
":X=X=X=X=X=X=X=X=X=X=X=X=X=X=X&X&X$X@X+X+X+XOXj  .K z.(.`.`.).).).).).).^.T.O.z F.OX+X+X+X@X$X;X&X=X=X=X=X=X=X=X=X=X=X=X=X=X=X=X",
":X:X:X=X=X=X=X=X=X=X=X=X=X&X&X&X$X+X+X+X+X X1 J p.a.Z.).`.`.`.`.`.`.`.`.`.).).).o.d XX+X+X+X+X$X&X&X&X=X=X=X=X=X=X=X=X=X=X=X:X:X",
":X:X=X=X=X=X=X=X=X=X=X-X=X&X&X$X+X+X+X+XH.| ,.y.y.a.Z.`.`.`.`.`.`.`.`.`.`.`.).).^.Y. .P.+X+X+X+X$X&X&X=X-X=X=X=X=X=X=X=X=X:X:X:X",
":X:X=X=X=X=X=X=X=X=X=X-X;X&X$X@X+X+X+XH.M u.y.y.y.a.Z.).`.`.`.`.`.`.`.`.`.`.`.).).V.E.a I.+X+X+X@X@X&X&X-X=X=X=X=X=X=X=X=X=X=X=X",
"=X=X=X=X=X=X=X=X=X=X=X&X&X$X@X+X+X+XH.y u.y.y.y.y.y.C.~.c.k.+.[ [ +.k.x.~.).).).).).^.E.< P.+X+X+X@X@X&X;X=X=X=X=X=X=X=X=X=X=X=X",
"=X=X=X=X=X=X=X=X=X&X&X&X$X@X+X+X+XXXi 6.y.y.y.y.y.i.0.G B V D [ [ G V N H l._.).).).).^.T.z XX+X+X+X@X$X&X&X&X=X=X=X=X=X=X=X=X=X",
"=X=X=X=X=X=X=X=X&X&X&X@X+X+XOXOXOX1 ! y.y.y.y.y.i.U V W 9.q.B.{.{.'.w.8.D N +.~.).).).^.~.#.h +X+XOX+X+X@X&X&X=X=X=X=X=X=X=X=X=X",
"=X=X=X=X=X=X=X-X;X&X$X@X+X+XOXOXG.y i.y.y.y.y.2.Z L ' 5.j.~.^.).).[.'./.h.} C H B.).).).^.!.u I.OXOX+X+X+X@X&X&X&X=X=X=X=X=X=X=X",
"=X=X=X=X=X=X=X&X$X@X+X+X+X+XOXOX: q.t.y.y.y.t.P W &.&.b._.).).).).`.`.].}.v.:.E [ ~.).).^.(.Q.> OXOX+X+X+X+X@X;X;X=X=X=X=X=X=X=X",
"=X=X=X=X=X&X&X;X@X+X+X+X+X+X+XU.| t.t.y.y.y.-.Y &.&.<.d.).`.~.x.x.V.).).]./.:.;.E l.).).].[.{.s |.+X+X+X+X+X+X@X;X&X&X=X=X=X=X=X",
"=X=X=X=X=X&X&X$X+X+X+X+X+X+X+XF.] t.t.y.y.2.L _ &.&.1.y.C.).g.{ U g.).).]./.>.>.' ] (.`.].].[.S.J.+X+X+X+X+X+X+X$X;X;X=X=X=X=X=X",
"=X=X-X-X=X&X@X@X+XOX+X+X+X+X+Xx ^ t.t.t.y.$.) &.&.&.:.y.f.).j.>.:.7.B.B.!.v.>.;.-.W l.`.`.].].Y.c +X+X+X+X+X+X+X+X@X&X;X-X-X=X=X",
"=X=X-X;X&X$X@X+X+X+X+X+X+X+X+X, %.3.t.t.t.Q &.&.&.&.~ a.y.m.Z.M.h.0.U P U 8.>.;.;.' @.(.`.`.(.T.x +X+XOX+X+X+X+X+X+X$X&X;X=X=X=X",
"=X=X&X&X@X@X+X+X+X+X+X+X+X+X+X, *.3.t.t.r.` _ &.&._ T ! p.y.m.Z.).).N.e.>.>.>.;.;.;.{ ^.`.(.(.R.1 +X+X+X+X+X+X+X+X+X@X@X&X&X&X=X",
"-X&X&X@X@X+X+XOX+X+X+X+X+X+XOX& *.3.3.t.2.&._ _ _ _ _ Y P %.6.m.Z.).).).n.>.;.;.;.;.0.~.).^.(.W.p OX+X+X+X+X+X+XOX+X+X+X@X&X&X-X",
";X&X$X@X+X+XOXOX+X+X+X+X+X+XOX& *.3.3.t.3.&._ _ _ _ _ _ / Y Z L 7.N.Z.).).h.;.;.;.' 9.V.).^.^.v.u OX+X+X+X+X+X+XOXOX+X+X@X@X&X;X",
"%X$X+X+X+X+X+X+X+X+X+X+X+X+X+X; %.3.3.3.3.&._ _ _ _ =.2.2.<.%./ Z ~ d.m.Z.M.;.;.;.' 9.V.V.V.n.e.9 OX+X+X+X+X+X+X+X+X+X+X+X+X$X%X",
"$X+X+X+X+X+X+X+X+X+X+X+X+X+X+X; Q 1.3.3.3.=.( _ _ _ :.y.y.y.<._ _ Q y.y.a.s.) ) ) ) q.d.s.i.t.*.% OX+X+X+X+X+X+X+X+X+X+X+X+X+X$X",
"+X+X+X+X+X+X+X+X+X+X+X+X+X+X+X> P 1.1.3.3.1.( _ _ ( :.y.y.y.t.*.*.r.y.y.y.<.( ( ( ( 3.t.t.t.t.^ $ +X+X+X+X+X+X+X+X+X+X+X+X+X+X+X",
"+X+X+X+X+X+X+X+X+X+X+X+X+X+X+Xl B =.1.1.1.3._ ( ( ( %.y.y.y.y.y.y.y.y.y.6.) ( ( ( %.r.t.t.t.r.m : +X+X+X+X+X+X+X+X+X+X+X+X+X+X+X",
"+X+X+X+X+X+X+X+X+X+X+X+X+X+X+XF.8 =.=.1.1.1.<./ ( ( Z ~ t.y.y.y.y.y.y.4.U ( ( ( / 1.r.t.t.t.4.q g +X+X+X+X+X+X+X+X+X+X+X+X+X+X+X",
"+X+X+X+X+X+X+X+X+X+X+X+X+X+X+XI.9 D =.=.1.1.1.:./ ( R F C P 4.y.y.4.I Z R ( ( ( =.3.3.t.3.3.S 3 F.+X+X+X+X+X+X+X+X+X+X+X+X+X+X+X",
"+X+X+X+X+X+X+X+X+X+X+X+X+X+X+XXX= r ) =.=.=.1.4.q./ R R R Y L P L P T ( ( R / =.3.3.3.3.r.-.t $ |.+X+X+X+X+X+X+X+X+X+X+X+X+X+X+X",
"+X+X+X+X+X+X+X+X+X+X+X+X+X+X+X+Xg @ B &.=.=.=.=.s.b.) R R R R R R R ( R R / <.3.3.3.3.3.3.A 4 : OX+X+X+X+X+X+X+X+X+X+X+X+X+X+X+X",
"+X+X+X+X+X+X+X+X+X+X+X+X+X+X+X+X|.O 8 A &.&.=.=.=.<.4.-.) / R R R R ( _ &.1.1.3.3.3.3.<.S w o L.+X+X+X+X+X+X+X+X+X+X+X+X+X+X+X+X",
"+X+X+X+X+X+X+X+X+X+X+X+X+X+X+X+XOXv @ w m &.&.&.&.=.=.=.=.=.=.=.=.=.=.1.1.1.1.1.1.1.<.S e 3 f OX+X+X+X+X+X+X+X+X+X+X+X+X+X+X+X+X",
"+X+X+X+X+X+X+X+X+X+X+X+X+X+X+X+XOXoX> 2 7 n ) &.&.&.&.=.=.=.=.=.=.=.=.=.=.1.1.1.1.*.S e 8 = .XOX+X+X+X+X+X+X+X+X+X+X+X+X+X+X+X+X",
"+X+X+X+X+X+X+X+X+X+X+X+X+X+X+X+XOX+XU.* 2 7 t L / _ &.&.&.&.&.&.=.=.=.=.=.=.=.=.~ b r 6 + J.OXOX+X+X+X+X+X+X+X+X+X+X+X+X+X+X+X+X",
"+X+X+X+X+X+X+X+X+X+X+X+X+X+X+X+X+X+X@XXX# 2 7 b D L ) _ &.&.&.&.&.&.&.&.&.%.` n e w 6 + I.@X+X+X+X+X+X+X+X+X+X+X+X+X+X+X+X+X+X+X",
"+X+X+X+X+X+X+X+X+X+X+X+X+X+X+X+X+X@X@X&XU.- . 6 q e t A L T / ) ) / / P A b q w 7 3 * L.;X@X@X+X+X+X+X+X+X+X+X+X+X+X+X+X+X+X+X+X",
"+X+X+X+X+X+X+X+X+X+X+X+X+X+X+X+X@X@X&X&X;X+Xf X @ 5 7 7 7 0 0 0 0 0 0 0 0 7 q 3   : oX&X&X&X@X@X+X+X+X+X+X+X+X+X+X+X+X+X+X+X+X+X",
"+X+X+X+X+X+X+X+X+X+X+X+X+X+X+X+X@X&X&X;X=X=X#XH.= o 2 3 5 7 7 7 7 7 7 7 6 3 o * c @X=X=X&X&X&X@X+X+X+X+X+X+X+X+X+X+X+X+X+X+X+X+X",
"+X+X+X+X+X+X+X+X+X+X+X+X+X+X@X@X&X&X&X=X=X=X=X=X+XP.l * X   @ @ @ @   X # d J.oX&X=X=X=X=X&X&X&X$X@X+X+X+X+X+X+X+X+X+X+X+X+X+X+X",
"+X+X+X+X+X+X+X+XOXOX+X+X+X@X@X&X&X=X=X=X=X=X=X=X=X=X=X&XoXL.c h h h J..X#X=X=X=X=X=X=X=X=X=X=X&X&X@X@X+X+X+XOXOXOX+X+X+X+X+X+X+X",
"+X+X+X+X+X+X+X+XOXOX+X+X@X@X&X&X&X=X=X=X=X=X=X=X=X=X=X=X=X=X=X=X=X=X=X=X=X=X=X=X=X=X=X=X=X=X=X&X&X&X@X@X+X+XOXOXOX+X+X+X+X+X+X+X",
"+X+X+X+X+X+X+X+XOXOX+X@X@X&X;X;X=X=X=X=X=X=X=X=X=X=X=X=X=X=X=X=X=X=X=X=X=X=X=X=X=X=X=X=X=X=X=X=X;X;X&X@X@X+XOXOXOX+X+X+X+X+X+X+X",
"+X+X+X+X+X+X+X+XOX+X@X@X;X;X:X-X=X=X=X=X=X=X=X=X=X=X=X=X=X=X=X=X=X=X=X=X=X=X=X=X=X=X=X=X=X=X=X=X=X:X;X&X@X@X+XOX+X+X+X+X+X+X+X+X",
"+X+X+X+X+X+X+X+X+X@X@X&X&X-X-X=X=X=X=X=X=X=X=X=X=X=X=X=X=X=X=X=X=X=X=X=X=X=X=X=X=X=X=X=X=X=X=X=X=X-X-X&X&X@X@X+X+X+X+X+X+X+X+X+X",
"+X+X+X+X+X+X+X+X@X@X&X&X=X=X=X=X=X=X=X=X=X=X=X=X=X=X=X=X=X=X=X=X=X=X=X=X=X=X=X=X=X=X=X=X=X=X=X=X=X=X=X=X&X&X$X@X+X+X+X+X+X+X+X+X",
"+X+X+X+X+X+X+X+X@X&X&X=X=X=X=X=X=X=X=X=X=X=X=X=X=X=X=X=X=X=X=X=X=X=X=X=X=X=X=X=X=X=X=X=X=X=X=X=X=X=X=X=X=X&X&X@X+X+X+X+X+X+X+X+X",
"+XOXOXOXOX+X@X@X&X;X&X=X=X=X=X=X=X=X=X=X=X=X=X=X=X=X=X=X=X=X=X=X=X=X=X=X=X=X=X=X=X=X=X=X=X=X=X=X=X=X=X=X=X&X;X&X@X@X+XOXOXOXOX+X",
"+XOXOXOX+X@X@X&X&X&X=X=X=X=X=X=X=X=X=X=X=X=X=X=X=X=X=X=X=X=X=X=X=X=X=X=X=X=X=X=X=X=X=X=X=X=X=X=X=X=X=X=X=X=X=X;X&X@X@X+X+XOXOX+X",
"OX+X+X+X@X@X&X&X&X=X=X=X=X=X=X=X=X=X=X=X=X=X=X=X=X=X=X=X=X=X=X=X=X=X=X=X=X=X=X=X=X=X=X=X=X=X=X=X=X=X=X=X=X=X=X&X&X&X@X@X+X+X+XOX",
"OX+X+X@X@X&X;X=X=X=X=X=X=X=X=X=X=X=X=X=X=X=X=X=X=X=X=X=X=X=X=X=X=X=X=X=X=X=X=X=X=X=X=X=X=X=X=X=X=X=X=X=X=X=X=X=X=X;X&X$X@X+X+XOX",
"OX+X@X@X&X&X=X=X=X=X=X=X=X=X=X=X=X=X=X=X=X=X=X=X=X=X=X=X=X=X=X=X=X=X=X=X=X=X=X=X=X=X=X=X=X=X=X=X=X=X=X=X=X=X=X=X=X=X&X&X@X@X+XOX",
"+X@X@X&X;X=X=X=X=X=X=X=X=X=X=X=X=X=X=X=X=X=X=X=X=X=X=X=X=X=X=X=X=X=X=X=X=X=X=X=X=X=X=X=X=X=X=X=X=X=X=X=X=X=X=X=X=X=X=X&X&X@X@X+X",
"@X@X&X&X;X=X=X=X=X=X=X=X=X=X:X=X=X=X=X=X=X=X=X=X=X=X=X=X=X=X=X=X=X=X=X=X=X=X=X=X=X=X=X=X=X=X=X=X=X:X:X=X=X=X=X=X=X=X=X:X;X&X$X@X",
"$X&X;X;X:X=X=X=X=X=X=X=X:X:X:X=X=X=X=X=X=X=X=X=X=X=X=X=X=X=X=X=X=X=X=X=X=X=X=X=X=X=X=X=X=X=X=X=X:X:X:X=X=X=X=X=X=X=X=X:X;X&X&X$X"
};
