/* XPM */
static char *_4f4be19cfdf4ec5872cc732edd33ad6[] = {
/* columns rows colors chars-per-pixel */
"64 64 189 2 ",
"   c #CF0E09",
".  c #D50F08",
"X  c #DA0F0C",
"o  c #D81707",
"O  c #D1120B",
"+  c #D21A0E",
"@  c #D41412",
"#  c #DD1917",
"$  c #DA1A19",
"%  c #E8150D",
"&  c #F0140F",
"*  c #EF1711",
"=  c #E11915",
"-  c #EA1B17",
";  c #E11B1A",
":  c #F41714",
">  c #F31B11",
",  c #D53008",
"<  c #DC3D0B",
"1  c #D42112",
"2  c #DD3114",
"3  c #E12108",
"4  c #EB280C",
"5  c #F3250E",
"6  c #EF330D",
"7  c #F43D0D",
"8  c #EE281B",
"9  c #ED2D1C",
"0  c #F5231C",
"q  c #EB3E1A",
"w  c #F33113",
"e  c #F43A17",
"r  c #EE2522",
"t  c #E32C22",
"y  c #F32423",
"u  c #F82523",
"i  c #F72B23",
"p  c #E63426",
"a  c #F83625",
"s  c #F9322B",
"d  c #DF460F",
"f  c #DD5305",
"g  c #DF5A07",
"h  c #E34401",
"j  c #E24B01",
"k  c #EC490A",
"l  c #F44D0C",
"z  c #E35302",
"x  c #E45C03",
"c  c #E7570C",
"v  c #F3530A",
"b  c #F45C0C",
"n  c #E94016",
"m  c #E74F17",
"M  c #F64719",
"N  c #F64A1D",
"B  c #F84C1D",
"V  c #EE5E14",
"C  c #F55916",
"Z  c #F75A18",
"A  c #E66502",
"S  c #EA6305",
"D  c #E56D02",
"F  c #E96E03",
"G  c #E7660B",
"H  c #F7660D",
"J  c #F66E0A",
"K  c #E57401",
"L  c #E87202",
"P  c #E67A00",
"I  c #EA7D02",
"U  c #EE7309",
"Y  c #E37F08",
"T  c #F67406",
"R  c #F67E05",
"E  c #F87C06",
"W  c #F4750C",
"Q  c #EE6113",
"!  c #F56212",
"~  c #F74D20",
"^  c #E78400",
"/  c #ED8301",
"(  c #EB8C01",
")  c #E5810B",
"_  c #EB890F",
"`  c #F38502",
"'  c #F88604",
"]  c #F68B01",
"[  c #F98E01",
"{  c #EE9203",
"}  c #EF9B01",
"|  c #F19404",
" . c #FB9101",
".. c #F09C02",
"X. c #F6940B",
"o. c #F8940C",
"O. c #E78B18",
"+. c #EA9217",
"@. c #F79711",
"#. c #F79A15",
"$. c #F89A15",
"%. c #F79E1B",
"&. c #F3A602",
"*. c #F5AC04",
"=. c #F6B204",
"-. c #F8B104",
";. c #F5B40B",
":. c #F3B512",
">. c #EB9827",
",. c #EA9729",
"<. c #EA9A2C",
"1. c #F6A322",
"2. c #F8A425",
"3. c #F7A729",
"4. c #F7A82B",
"5. c #EFB825",
"6. c #EEB62A",
"7. c #EEB82D",
"8. c #F0B723",
"9. c #F1B925",
"0. c #E9A134",
"q. c #F7AB33",
"w. c #F5AE3A",
"e. c #EDB631",
"r. c #EEB833",
"t. c #EAB73D",
"y. c #EBB93C",
"u. c #F5B13D",
"i. c #ECAC46",
"p. c #EEAF4A",
"a. c #E7B545",
"s. c #E8B644",
"d. c #EABA43",
"f. c #E6B64B",
"g. c #EEB14C",
"h. c #E7BA4C",
"j. c #E8BA4C",
"k. c #F7B542",
"l. c #F5B74B",
"z. c #E5B654",
"x. c #E6BA54",
"c. c #E3B55C",
"v. c #E4BA5C",
"b. c #EEBB59",
"n. c #F1B653",
"m. c #F7BC50",
"M. c #F0BB59",
"N. c #DEB36F",
"B. c #DDB476",
"V. c #DFBA75",
"C. c #DBB37D",
"Z. c #DEBC79",
"A. c #E0B466",
"S. c #E3BA62",
"D. c #E0B568",
"F. c #E1BB6D",
"G. c #E0BA73",
"H. c #F7C056",
"J. c #F7C35B",
"K. c #F3C163",
"L. c #F5C86C",
"P. c #F9CD6B",
"I. c #F6CF76",
"U. c #F9D274",
"Y. c #F9D57B",
"T. c #FBD87E",
"R. c #D8B487",
"E. c #D7B48D",
"W. c #D9B58C",
"Q. c #DABC8E",
"!. c #D4AF93",
"~. c #D5B295",
"^. c #D8B391",
"/. c #D7BD96",
"(. c #D9BB93",
"). c #D6B698",
"_. c #D8B799",
"`. c #D7BB9A",
"'. c #D7BC98",
"]. c #D7BD9A",
"[. c #D7BD9C",
"{. c #D8B899",
"}. c #D8BC98",
"|. c #D8BC9B",
" X c #FADB85",
".X c #FBDE89",
"XX c #FBDE8A",
"oX c #FDE18F",
"OX c #FFE390",
/* pixels */
"].].].].].].].].].].].].].].].].}.}.}.}.].].].].].].].].].].[.[.[.[.].].].].].].].].].].].}.}./.].].].].].].].].].].].].].].].].",
"].].].].].].].].].].].].].].].].].}.}.}.].].].].].].].].].].`.`.`.`.].].].].].].].].].].].}.}./.].].].].].].].].].].].].].].].].",
"].].].].].].].].].].].].].].].].].}.}.}.].].].].].].].[.[.`.`.`.`.`.`.[.[.].].].].].].].].].}.].].].].].].].].].].].].].].].].].",
"].].].].].].].].].].].].].].].].].}.].].].].].].].].].[.`.`.~.~.~.~.`.{.[.].].].].].].].].].].].].].].].].].].].].].].].].].].].",
"].].].].].].].].].].].].].].].].].].].].].].].].].].].}.`.).~.~.~.~.~.`.{.].].].].].].].].].].].].].].].].].].].].].].].].].].].",
"].].].].].].].].].].].].].].].].].].].].].].].].].`.{.`.).~.~.~.~.~.~.).`.{.`.].].].].].].].].].].].].].].].].].].].].].].].].].",
"].].].].].].].].].].].].].].].].].].].].].].].].].{.{.~.~.~.~.!.!.^.~.~.~.{.`.].].].].].].].].].].].].].].].].].].].].].].].].].",
"].].].].].].].].].].].].].].].].].].].].].].].[.{.{.).~.~.~.!.!.!.!.~.~.~._.{.{.[.].].].].].].].].].].].].].].].].].].].].].].].",
"].].].].].].].].].].].].].].].].].].].].].].`.{.`.~.~.~.~.~.~.!.!.~.~.~.~.~.~.{.`.].].].].].].].].].].].].].].].].].].].].].].].",
"].].].].].].].].].].].].].].].].].].].].].`.{.{.~.~.~.~.~.~.^.W.E.^.~.~.~.~.~.~.{.`.`.].].].].].].].].].].].].].].].].].].].].].",
"].].].].].].].].].].].].].].].].].].].].].`.`.).E.C.A.a.6.:.;.=.-.;.:.6.s.A.C.E.~.{.`.].].].].].].].].].].].].].].].].].].].].].",
"].].].].].].].].].].].].].].].].].].[.[.{.{.Q.c.e.:.=.&.} { ( ( ( ( { } &.=.:.7.c.Q.`.`.[.[.].].].].].].].].].].].].].].].].].].",
"].].].].].].].].].].].].].].].].].].].`.(.S.;.-.&.{ Y P P P P P P P P P P P ( &.-.;.v.(.{.].].].].].].].].].].].].].].].].].].].",
"].].].].].].].].].].].].].].].].].`.`.V.7.=...+.0.n.K.n.O.I I P P P P O.p.p.,.P ( ..=.6.G.(.`.].].].].].].].].].].].].].].].].].",
"].].].].].].].].].].].].].].].].].].x.;.&.^ >.I..XoXoX.Xq.[ [ ] / P P <..XoX XM.P P ^ &.;.h./.].].].].].].].].].].].].].].].].].",
"].].].].].].].].].].].].].].].`.(.j.=...( w..XoXOXoXoXU.$.[  . .[ ] I ) g.L.L.i.P P P P ..=.d.Q.`.].].].].].].].].].].].].].].].",
"}.].].].].].].].].].].].].].].(.y.-.| ] q. XoXoXOX.XH.#.[  . . . . .[ ` P Y Y P P P P P P ( *.r.Q.].].].].].].].].].]./.].].].].",
"}.}.}.].].].].].].].].].].`.`.j.-.{ ] [ H.oXoXoX Xw. .[  . . . . . . . .] P P P P P P P P K F *.d.].`.].].].].].].].].].].].}.}.",
"}.}.].].].].].].].].].[.].{.x.=.| ]  . .k.Y.P.k.@.[ [  . . . . . . . . . .] I P P P P P P P D F *.j.].].[.].].].].].].].].}.}.}.",
"}.}.].].].].].].].].].[.{.V.;...]  . . . .o.o. . . . . . . . . . . . . . .[ ` P P P P P P P P x I ;.F.`.[.].].].].].].].].].].].",
"].].].].].].].].].].].`.(.7.&./  . . . . . . . . . . . . . . . . . . . . . .[ I P P P P P P P D j ..6.Q.{.].].].].].].].].].].].",
"].].].].].].].].].`.`.`.S.=.( ]  . . . . . . . .[ R ]  . . . . . . . . . . .] ` P P P P P P P K z z *.v.`.`.`.].].].].].].].].].",
"].].].].].].].].`.`.`.E.;.../ [ [ [  . . . . . .[ M T  . . . . . . . . . .[ J v / P P P P P P P x h / ;.E.`.`.].].].].].].].].].",
"].].].].].].].[.{.`.~.c.-.( ]  .@.4. . . . .[ [ W i l ] [ [  . . . . . . .] B 5 I P P P P P P P D h x *.z.~.`.`.`.].].].].].].].",
"].].].].].].].`.`.~.^.e.&.I [ #.Y. X1. . .` e a s u 8 p 2 U [  . . . .J Z ~ s : q m c K P P P P P j h | 5.E.~.{.{.].].].].].].].",
"].].].].].`.`.{.~.~.C.:.( I [ m.oX.X2.[  . .T w 0 r # O z [  . . . . .T w u i - $ + f P P P P P P x h D :.B.~.~.{.`.`.].].].].].",
"].].].].].`.`.).~.~.A.=.P / X. XoX.X%. . . .[ ! t X & 4 ] [  . . . . .[ R 9 ; * % x P P P P P P P A h j *.c.~.~.).{.{.].].].].].",
"].].[.[.].`.~.~.~.~.a.&.P / u.oXoXT.X. . . .[ V O o > 5 '  . . . . . . .] t   > > S P P P P P K D D h h | t.~.~.~.~.`.`.[.[.].].",
"].].[.{.`.).~.~.~.~.6...P / P.oXoXJ.[  . . .[ c x ` J l R [  . . . . . .W 2 x J 7 c P P P P P D x K h h I 8.~.~.~.~.).`.{.].].].",
"].].`.`.~.~.~.~.~.~.:.{ P _  XOXoXw.[  . . .[ [ [ [ [ [ [ [  . . . . . .' ] [ [ ] K P P P P P A h L h h F :.~.~.~.~.~.~.`.`.`.].",
"[.`.`.~.~.~.~.!.~.^.;.( P +. XoXoX1. . . . . . . . . . . . . . . . . . . . . . .] I P P P P P A h A h h A ;.^.~.!.~.~.~.~.`.`.[.",
"{.`.).~.^.^.!.!.~.E.=.( P >. XoXoX#. . . . . . . . . . . . . . . . . . . . . . .` P P P P P P x h z h h A =.E.~.!.!.^.^.~.~.`.{.",
"_.).~.~.~.~.~.~.~.E.=.( P <..XoXoX@. . . . . . . . . . . . . . . . . . . . . . ./ P P P P P P z h h h h A -.R.~.~.~.~.~.~.~.)._.",
").~.~.~.~.~.~.~.~.^.;.( P ,..XoXoX%. . . . . . . . . . . . . . . . . . . . . .[ I P P P P P K j h h h h A =.E.~.~.~.~.~.~.~.~.).",
"~.~.~.~.~.~.~.~.~.~.:.{ P O. XoXoX3.[  . . . . . .[ [  . . . . . . . . . . .[ I P P P P P P A h h h h h F ;.~.~.~.~.~.~.~.~.~.~.",
"~.~.~.~.~.~.~.~.~.~.6...P ) Y.oXoXl.[  . . . . .[ C R  . . . . . . . . . .[ J k P P P P P P z h h h h h I 8.~.~.~.~.~.~.~.~.~.~.",
"~.~.~.~.~.~.~.~.~.~.a.&.P P b.oXoXU. . . . . . .' i b [  . . . . . . . . .] N > D P P P P D j h h h h h { t.~.~.~.~.~.~.~.~.~.~.",
"~.~.~.~.~.~.~.~.~.~.A.=.P P O. XoX.X%.[  .] J ! N u 8 V G ` [  . . . .E H C s : n c G K P x h h h h h h *.c.~.~.~.~.~.~.~.~.~.~.",
"~.~.~.~.~.~.~.~.~.~.C.:.( P P i..XoXl.] [ [ H 0 u y # @ < ` [  . . . .T w 0 u - @ + g K K j h h h h h A :.B.~.~.~.~.~.~.~.~.~.~.",
"~.~.~.~.~.~.~.~.~.~.E.7.&.P P Y K.oXK.Y ` [ [ b r = & 3 `  . . . .[ / P L 9 ; : % x P P z h h h h h h | 5.E.~.~.~.~.~.~.~.~.~.~.",
"~.~.~.~.~.~.~.~.~.~.~.c.-.( P P ) g.p.Y P I ` Q $ . > 5 ' [ ] ` / I P P K t   > > S K A h h h h h h x &.z.~.~.~.~.~.~.~.~.~.~.~.",
"~.~.~.~.~.~.~.~.~.~.~.E.;...P P P P Y P P P P d , A k 5 F I I P P P P P G 1 f S 6 k D j h h h h h h / ;.R.~.~.~.~.~.~.~.~.~.~.~.",
"~.~.~.~.~.~.~.~.~.~.~.~.c.=.^ P P P P P P P P F K P P K K P P P P P P P K K P P K A j h h h h h h z *.z.~.~.~.~.~.~.~.~.~.~.~.~.",
"~.~.~.~.~.~.~.~.~.~.~.~.E.6.&.P P P P P P P P P P P P P P P P P P P P P P P P P D j h h h h h h j { 5.R.~.~.~.~.~.~.~.~.~.~.~.~.",
"~.~.~.~.~.~.~.~.~.~.~.~.~.N.;.{ K P P P P P P P P P P P P P P P P P P P P P P D j h h h h h h h I ;.D.~.~.~.~.~.~.~.~.~.~.~.~.~.",
"~.~.~.~.~.~.~.~.~.~.~.~.~.^.f.*.I D P P P P P P P P P P P P P P P P P P P K x h h h h h h h h A *.s.^.~.~.~.~.~.~.~.~.~.~.~.~.~.",
"~.~.~.~.~.~.~.~.~.~.~.~.~.~.^.s.*.D A P P P P P P P P P P P P P P P P K A j h h h h h h h h A *.t.^.~.~.~.~.~.~.~.~.~.~.~.~.~.~.",
"~.~.~.~.~.~.~.~.~.~.~.~.~.~.~.R.e.*.F x K P P P P P P P P P P P P P D z j j j h h h h h h A *.7.R.~.~.~.~.~.~.~.~.~.~.~.~.~.~.~.",
"~.~.~.~.~.~.~.~.~.~.~.~.~.~.~.~.Q.d.*./ z x D P P P P P P P P P P P K D A z j h h h h j I *.y.Q.).~.~.~.~.~.~.~.~.~.~.~.~.~.~.~.",
"~.~.~.~.~.~.~.~.!.!.~.~.~.~.~.`.`.].h.;...z h j A K K K K P P K K D x j h h h h h h z { ;.d./.`.`.~.~.~.~.~.!.!.!.~.~.~.~.~.~.~.",
"~.~.~.~.~.~.~.~.!.!.~.~.~.~.`.`.`.]./.F.6.*./ x h h j j z z z j j h h h h h h h x / *.5.F./.].`.`.`.~.~.^.^.!.!.!.~.~.~.~.~.~.~.",
"~.~.~.~.~.~.~.~.!.!.~.~.~.`.{.{.].].].].Q.v.;.*.| D j h h h h h h h h h h h A | *.;.x.Q.].].].].{.{.`.~.~.^.!.!.!.~.~.~.~.~.~.~.",
"~.~.~.~.~.~.~.!.!.~.~.~.{.{.}.[.].].].].].].Q.v.6.:.*.| I L A A A A F I | *.:.5.x.Q.].].].].].].].}.{.`.~.~.~.!.~.~.~.~.~.~.~.~.",
"~.~.~.~.~.~.~.~.~.~.~.`.`.[.[.].].].].].].].].].Q.Z.S.d.9.:.;.=.-.;.:.9.y.v.Z.Q.].].].].].].].].].[.[.`.`.~.~.~.~.~.~.~.~.~.~.~.",
"~.~.~.~.~.~.~.~.~.~.`.`.].].].].].].].].].].].].].].].].].].(.Q.Q.(.].].].].].].].].].].].].].].].].].].`.`.).~.~.~.~.~.~.~.~.~.",
"~.!.~.~.~.~.~.~.~.`.`.].].].].].].].].].].].].].].].].].].].].].].].].].].].].].].].].].].].].].].].].].].`.`.).~.~.~.~.!.!.~.~.",
"!.!.!.!.!.~.~.~.`.{.].].].].].].].].].].].].].].].].].].].].].].].].].].].].].].].].].].].].].].].].].].].`.{.`.~.~.~.!.!.!.!.~.",
"~.!.!.!.^.~.~.`.`.`.].].].].].].].].].].].].].].].].].].].].].].].].].].].].].].].].].].].].].].].].].].].].].{.`.~.~.^.^.!.!.~.",
"!.~.^.^.~.~.`.`.`.].].].].].].].].].].].].].].].].].].].].].].].].].].].].].].].].].].].].].].].].].].].].].].`.`.`.~.~.^.^.~.!.",
"!.~.^.~.~.`.{.].].].].].].].].].].].].].].].].].].].].].].].].].].].].].].].].].].].].].].].].].].].].].].].].].].{.`.).~.^.~.~.",
"!.~.~.~.`.`.].].].].].].].].].].].].].].].].].].].].].].].].].].].].].].].].].].].].].].].].].].].].].].].].].].].].`.`.~.~.~.!.",
"~.~.~.`.{.].].].].].].].].].].].].].].].].].].].].].].].].].].].].].].].].].].].].].].].].].].].].].].].].].].].].].].`.`.~.~.~.",
"~.~.`.`.{.].].].].].].].].].}.].].].].].].].].].].].].].].].].].].].].].].].].].].].].].].].].].].}.}.].].].].].].].].}.{.`.).~.",
").`.`.`.}.].].].].].].].}.}.}.].].].].].].].].].].].].].].].].].].].].].].].].].].].].].].].].].}.}.}.].].].].].].].].}.{.`.`.)."
};
