/* XPM */
static char *b403e9dcd133415682c413fa72b60b05[] = {
/* columns rows colors chars-per-pixel */
"64 64 213 2 ",
"   c #1F092D",
".  c #200A2E",
"X  c #230C34",
"o  c #29193A",
"O  c #2D233B",
"+  c #2F3A3C",
"@  c #323B3E",
"#  c #2B0E4A",
"$  c #33144B",
"%  c #381756",
"&  c #342448",
"*  c #343C42",
"=  c #382C50",
"-  c #3A176C",
";  c #411A5D",
":  c #423055",
">  c #473659",
",  c #431C62",
"<  c #4B2769",
"1  c #4A3361",
"2  c #52356F",
"3  c #4C2372",
"4  c #542776",
"5  c #5B3977",
"6  c #394546",
"7  c #3B4648",
"8  c #404A4D",
"9  c #474A56",
"0  c #455353",
"q  c #4A5957",
"w  c #4B5559",
"e  c #4B5A59",
"r  c #545C5F",
"t  c #51615E",
"y  c #4E4164",
"u  c #584A6B",
"i  c #4F5362",
"p  c #545B64",
"a  c #575867",
"s  c #5E4874",
"d  c #5D5A72",
"f  c #634776",
"g  c #556562",
"h  c #5A6566",
"j  c #596966",
"k  c #5C646A",
"l  c #5D6C6B",
"z  c #5E716C",
"x  c #606069",
"c  c #61736E",
"v  c #686876",
"b  c #647472",
"n  c #697676",
"m  c #697C75",
"M  c #6B7A79",
"N  c #75757D",
"B  c #6E817A",
"V  c #72847D",
"C  c #74887F",
"Z  c #4E2393",
"A  c #693A8C",
"S  c #6C2F96",
"D  c #683B92",
"F  c #713C96",
"G  c #7939A0",
"H  c #714A90",
"J  c #775794",
"K  c #726985",
"L  c #787886",
"P  c #7C46A4",
"I  c #7A54AB",
"U  c #815D94",
"Y  c #806B89",
"T  c #867C87",
"R  c #897795",
"E  c #8C52B0",
"W  c #916BAC",
"Q  c #977DAA",
"!  c #9D78B6",
"~  c #A97EBB",
"^  c #A46FC1",
"/  c #768482",
"(  c #7A8C86",
")  c #7D828D",
"_  c #7A9286",
"`  c #7E928B",
"'  c #85878B",
"]  c #96848F",
"[  c #83938E",
"{  c #8A8896",
"}  c #938A95",
"|  c #958999",
" . c #869692",
".. c #889A95",
"X. c #8B9B96",
"o. c #97949C",
"O. c #A48E99",
"+. c #AA9598",
"@. c #B89B95",
"#. c #B99D9A",
"$. c #8EA199",
"%. c #94A69E",
"&. c #BAA097",
"*. c #BCA29B",
"=. c #8F83A5",
"-. c #9789A3",
";. c #9E98A8",
":. c #A082AE",
">. c #AC9CA2",
",. c #A695A9",
"<. c #B89DA4",
"1. c #A897B6",
"2. c #B39AB8",
"3. c #95A6A0",
"4. c #9CAAA6",
"5. c #9BACA6",
"6. c #9FB1AA",
"7. c #A8A3AC",
"8. c #A3ACAD",
"9. c #B9A5A8",
"0. c #BDA5AC",
"q. c #A2B2AB",
"w. c #A7B8AF",
"e. c #AAA7B5",
"r. c #B8A5B6",
"t. c #ABB7B6",
"y. c #ACB5B4",
"u. c #ABBAB4",
"i. c #BDB2B5",
"p. c #B5B5BA",
"a. c #C4A59B",
"s. c #C6A99A",
"d. c #CDAC9C",
"f. c #D3AF93",
"g. c #D1AF9A",
"h. c #C6B19A",
"j. c #CDB39D",
"k. c #D5B296",
"l. c #D5B59A",
"z. c #D8B799",
"x. c #D6BD9A",
"c. c #D8BB9A",
"v. c #C09FAC",
"b. c #C3A6A7",
"n. c #C3A9A4",
"m. c #CCACA3",
"M. c #C3ABAB",
"N. c #CAABAA",
"B. c #D0ADA2",
"V. c #CDB3A4",
"C. c #CBB6A6",
"Z. c #CCB2AC",
"A. c #D2B7A4",
"S. c #D1B2A9",
"D. c #C6ACB2",
"F. c #C7AAB5",
"G. c #C3ADBA",
"H. c #CCB4B3",
"J. c #CAB5BA",
"K. c #C8B8B8",
"L. c #D1BAB7",
"P. c #B3C3BC",
"I. c #B8C5BF",
"U. c #D2C0BE",
"Y. c #AD89C0",
"T. c #B298C7",
"R. c #BE86D8",
"E. c #B5A1C2",
"W. c #B9B8C5",
"Q. c #C290D8",
"!. c #C3BBC4",
"~. c #C9B9C5",
"^. c #CCB3C9",
"/. c #C7A2D6",
"(. c #CBBBD3",
"). c #D9B3E6",
"_. c #B9C6C2",
"`. c #BACAC5",
"'. c #BDCAC4",
"]. c #C8C5C6",
"[. c #C3CECA",
"{. c #D2C7C9",
"}. c #C4D1CB",
"|. c #C9D3CF",
" X c #C8C7D2",
".X c #D6CED7",
"XX c #CAD7D2",
"oX c #CCDAD4",
"OX c #CDDBD8",
"+X c #D1D6D5",
"@X c #D1DBD6",
"#X c #D4D5DA",
"$X c #DAD5DB",
"%X c #D4DDDA",
"&X c #D9DEDC",
"*X c #E0DADD",
"=X c #D6E2DC",
"-X c #DBE3DE",
";X c #DDDEE1",
":X c #E2DEE5",
">X c #DCE5E2",
",X c #DDE9E4",
"<X c #E3E4E5",
"1X c #E2EAE6",
"2X c #EBE7EE",
"3X c #E5EDE9",
"4X c #E9EEEB",
"5X c #E7F0EB",
"6X c #EAF2ED",
"7X c #EEF5F1",
"8X c #F1F7F2",
"9X c #F2F8F4",
"0X c #F9F6F9",
/* pixels */
"x.x.x.x.x.x.x.x.x.x.x.x.x.x.x.x.c.c.c.c.x.x.x.x.x.x.x.x.x.x.x.x.x.x.c.c.x.x.x.x.x.x.x.x.c.c.c.x.x.x.x.x.x.x.x.x.x.x.x.x.x.x.x.x.",
"x.x.x.x.x.x.x.x.x.x.x.x.x.x.x.x.x.c.c.c.x.x.x.x.x.x.x.x.x.x.c.c.c.c.c.c.x.x.x.x.x.x.x.x.c.c.c.x.x.x.x.x.x.x.x.x.x.x.x.x.x.x.x.x.",
"x.x.x.x.x.x.x.x.x.x.x.x.x.x.x.x.x.c.c.c.x.x.x.x.x.x.x.x.x.A.G.^.^.N.c.c.x.x.x.x.x.x.x.x.x.c.c.x.x.x.x.x.x.x.x.x.x.x.x.x.x.x.x.x.",
"x.x.x.x.x.x.x.x.x.x.x.x.x.x.x.x.x.c.x.x.x.x.x.x.x.x.x.x.9.K : $ < E..XA.x.x.x.x.x.x.x.x.x.x.c.x.x.x.x.x.x.x.x.x.x.x.x.x.x.x.x.x.",
"x.x.x.x.x.x.x.x.x.x.x.x.x.x.x.x.x.x.x.x.x.x.x.x.x.x.x.b.f , A P E /.0X*XA.x.x.x.x.x.x.x.x.x.x.x.x.x.x.x.x.x.x.x.x.x.x.x.x.x.x.x.",
"x.x.x.x.x.x.x.x.x.x.x.x.x.x.x.x.x.x.x.x.x.x.x.x.x.c.c.R < P F F E R.Q.Y.D.c.c.x.x.x.x.x.x.x.x.x.x.x.x.x.x.x.x.x.x.x.x.x.x.x.x.x.",
"x.x.x.x.x.x.x.x.x.x.x.x.x.x.x.x.x.x.x.x.x.x.x.x.x.c.d.> A ! A 3 S ^ R.E 2.c.c.x.x.x.x.x.x.x.x.x.x.x.x.x.x.x.x.x.x.x.x.x.x.x.x.x.",
"x.x.x.x.x.x.x.x.x.x.x.x.x.x.x.x.x.x.x.x.x.x.x.x.c.c.a.> U 2.. . % G ).E r.z.c.c.x.x.x.x.x.x.x.x.x.x.x.x.x.x.x.x.x.x.x.x.x.x.x.x.",
"x.x.x.x.x.x.x.x.x.x.x.x.x.x.x.x.x.x.x.x.x.x.c.c.c.z.s.i -.s   . . 4 ^ (.J.k.z.c.c.x.x.x.x.x.x.x.x.x.x.x.x.x.x.x.x.x.x.x.x.x.x.x.",
"x.x.x.x.x.x.x.x.x.x.x.x.x.x.x.x.x.x.x.x.x.c.c.c.z.l.l.d 1.:     . , F #XZ.k.k.z.c.c.c.x.x.x.x.x.x.x.x.x.x.x.x.x.x.x.x.x.x.x.x.x.",
"x.x.x.x.x.x.x.x.x.x.x.x.x.x.x.x.x.x.x.x.x.c.c.z.k.k.<.k / >   ; 4 4 Q 3X~.k.k.k.z.c.c.x.x.x.x.x.x.x.x.x.x.x.x.x.x.x.x.x.x.x.x.x.",
"x.x.x.x.x.x.x.x.x.x.x.x.x.x.x.x.x.x.x.x.c.c.z.z.k.k.s.) c b O % 4 Q 1X&XJ.k.k.k.k.z.c.c.x.x.x.x.x.x.x.x.x.x.x.x.x.x.x.x.x.x.x.x.",
"x.x.x.x.x.x.x.x.x.x.x.x.x.x.x.x.x.x.x.c.c.z.k.k.k.f.f.#.x [ ( q.>X&Xy.W.N.f.f.k.k.k.z.c.c.x.x.x.x.x.x.x.x.x.x.x.x.x.x.x.x.x.x.x.",
"x.x.x.x.x.x.x.x.x.x.x.x.x.x.x.x.x.c.c.c.z.k.k.d.N.D.#.{ l n ' 5._.].>X<XK.N.N.m.f.k.z.z.c.c.c.x.x.x.x.x.x.x.x.x.x.x.x.x.x.x.x.x.",
"x.x.x.x.x.x.x.x.x.x.x.x.x.x.x.x.x.c.c.l.k.k.m./.! H v m C g B / [.+X1X>X>Xf A ~ ~.g.k.k.z.c.c.x.x.x.x.x.x.x.x.x.x.x.x.x.x.x.x.x.",
"x.x.x.x.x.x.x.x.x.x.x.x.x.x.x.c.c.c.z.l.k.d.:.E < $ k C X.( g / 8.X.XX-X3X1 , < Q F.k.k.z.z.c.c.c.x.x.x.x.x.x.x.x.x.x.x.x.x.x.x.",
"c.x.x.x.x.x.x.x.x.x.x.x.x.x.x.c.c.z.z.k.k.D.5 5 # o l m u.`.'.X.t.@X1X'.4.| $ - 3 Y.l.k.k.z.z.c.c.x.x.x.x.x.x.x.x.x.x.x.x.x.x.x.",
"c.c.c.c.x.x.x.x.x.x.x.x.x.c.c.c.z.k.k.k.k.r.J I - a b -X7X6X6X6X1X3X6X0XoXy.J Z I T.S.k.k.k.k.z.c.c.c.x.x.x.x.x.x.x.x.x.x.c.c.c.",
"c.c.x.x.x.x.x.x.x.x.x.x.x.c.c.z.k.k.k.k.k.+.d L n t V 6X7X7X6X1X6X6X7X8X,Xb [ { { =.B.k.k.k.k.k.z.c.c.x.x.x.x.x.x.x.x.x.x.c.c.c.",
"c.c.x.x.x.x.x.x.x.x.x.x.c.c.z.z.k.k.k.k.d.} ` P.3.e a `.6X7X6XXX3X6X7X6X6.a g [ XXt.<.k.k.k.k.k.z.z.c.c.x.x.x.x.x.x.x.x.x.x.x.x.",
"x.x.x.x.x.x.x.x.x.x.x.c.c.z.z.k.k.k.k.k.&.X.OX,X_.' K M q._.5.M 3.P.'.q.g v n %.>X5X~.d.k.k.k.k.k.l.z.c.c.x.x.x.x.x.x.x.x.x.x.x.",
"x.x.x.x.x.x.x.x.x.c.c.c.z.z.k.k.k.k.k.k.O.5.,XOX( 2.' z g 0 & & R v z c j ,.-.l u.>X;Xm.k.k.k.k.k.k.z.z.c.c.c.x.x.x.x.x.x.x.x.x.",
"x.x.x.x.x.x.x.x.c.c.c.z.k.k.f.f.k.k.l.<.x $.@Xw.R m.9.n g q : 4 H e.P.X.;.m.F.v b X.4.o.B.k.k.k.k.f.k.k.z.c.c.x.x.x.x.x.x.x.x.x.",
"x.x.x.x.x.x.x.x.c.c.z.z.k.f.f.f.k.l.~.8. .X.M T n.k.g.-.C 3.s F H W.3XoXM.k.g.>.a t w.'.$XH.k.k.f.f.k.k.k.z.c.c.c.x.x.x.x.x.x.x.",
"x.x.x.x.x.x.x.c.c.z.k.k.k.f.f.f.k.G.&X3X3X@XM #.k.k.k.;.w.1XW.D e.>X6X>XH.k.k.k.T / 1X6X&X+Xm.k.f.f.k.k.k.k.z.z.c.x.x.x.x.x.x.x.",
"x.x.x.x.x.c.c.c.z.k.k.k.k.k.k.k.m.6X-X3X1X'.L m.k.k.k.,.t.6X3X8.,X6X6X#XH.k.k.k.+.b '.3X1X-X(.k.k.k.k.k.k.k.k.z.c.c.c.x.x.x.x.x.",
"x.x.x.x.x.c.c.z.k.k.k.k.k.k.k.k.U.8X8X6X%X5.1.l.k.k.k.R t.8X7XI.6X7X7X[.H.k.k.k.s.N  .XX7X8X<Xm.k.k.k.k.k.k.k.k.z.c.c.x.x.x.x.x.",
"x.x.x.x.x.c.z.z.k.k.k.f.k.k.k.l.*X8X8X4X3.{ d.k.k.k.s.' @X8X8X>X8X8X8X3X.Xk.k.k.k.O.k _ >X8X8XJ.k.k.k.k.k.k.k.k.k.z.c.c.x.x.x.x.",
"x.x.x.c.c.z.z.k.k.k.k.f.k.k.k.L.6X8X-X .{ a.k.k.k.k.+.` [.7X7X7X7X8X8X1X:XB.k.k.k.g.>.) $.=X8X*XV.k.k.k.k.k.k.k.k.k.z.c.c.x.x.x.",
"x.x.c.c.z.z.k.k.k.k.g.N.H.G.0.8.3X3X .1.m.k.k.k.k.k.O.6.1X6X6X6X6X6X7X7X2XS.k.k.k.k.k.0.) q.6X>X7.J.H.M.B.k.k.k.k.k.z.z.c.c.c.x.",
"x.c.z.l.z.k.k.f.k.k.k.m.D.$X7X'.X.X.} m.k.k.k.k.k.k.] 3.6X6X3X3X3X4X7X8X4XJ.l.k.k.k.k.k.9.{ %.[ 1X5XK.N.B.k.k.f.f.k.k.k.z.c.c.x.",
"c.c.z.l.k.k.f.f.k.k.k.l.m.!.%Xu.[.T s.k.k.k.k.k.k.s.L %.6X3X=X,X3X>X7X8X7X<X{.d.k.k.k.k.k.*.' _._.&XM.g.k.k.k.k.f.f.k.k.z.z.c.c.",
"z.z.k.k.k.k.k.k.k.k.k.V.{.&Xq.%.#XN.k.k.k.k.k.k.k.@.n q.6X6XP.P.`.@X7X7X7X|.6X$XV.k.k.k.k.l.!.|.3.>X+XN.l.k.k.k.k.k.k.k.k.k.z.z.",
"z.k.k.k.k.k.k.k.k.k.m.].K.].[.|.i.l.k.k.k.k.k.k.f.@.b 3.6X6X_.L l %X7X7X8X%X,X5X<XL.g.k.k.k.b.+X+X+Xi.M.N.g.k.k.k.k.k.k.k.k.k.z.",
"k.k.k.k.k.k.k.k.k.k.N.N.d.].i.e.G.H.k.k.k.k.k.k.f.@.k X.,X6X|.K b 6X8X9X9X%X>X6X6X3X~.d.k.l.M.9.!.>.H.d.0.m.k.k.k.k.k.k.k.k.k.k.",
"k.k.k.k.k.k.k.k.k.k.g.l.N.K.K.!.M.F.k.k.k.k.k.k.f.@.a ( XX6XoXj  .7X9X9X9X'.q.@X6X8X-X$XZ.d.N.M.M.s.M.l.g.g.k.k.k.k.k.k.k.k.k.k.",
"k.k.k.k.k.k.k.k.k.k.k.k.N.N.H.{.d.m.k.k.k.k.k.f.f.&.a b I.3XoXj u.8X8X8X8X8.t V [.6X4X8X<XH.D.d.n.l.b.S.k.k.k.k.k.k.k.k.k.k.k.k.",
"k.k.k.k.k.k.k.k.k.k.k.k.d.g.m.G.k.k.k.k.k.k.k.k.k.a.h c 5.,XXXj }.8X3X3X8Xp.| k m 5.-X6X6X<XH.l.N.k.d.g.k.k.k.k.k.k.k.k.k.k.k.k.",
"k.k.k.k.k.k.k.k.k.k.k.k.k.k.k.k.k.k.k.k.k.k.g.m.L.K.k c / 5.u.j }.8Xu.1X7XK.l.b.{ h B u.1X6X;XH.k.k.k.k.k.k.k.k.k.k.k.k.k.k.k.k.",
"k.k.k.k.k.k.k.k.k.k.k.k.k.k.k.k.k.k.k.k.g.M. XOX[.'./ 0 m B m t 3.3X[ 5XI.9.c.c.j.1.a g  .=X@X{.d.k.k.k.k.k.k.k.k.k.k.k.k.k.k.k.",
"k.k.k.k.k.k.k.k.k.k.k.k.k.k.k.k.f.f.f.s.| X.' } o.o.} a q g 0 6 m  .m q.X.s.x.c.z.l.#.v q ( u.#XZ.k.k.k.k.k.k.k.k.k.k.k.k.k.k.k.",
"k.k.k.k.k.k.k.k.k.k.k.k.k.k.k.k.f.f.f.Y i R n.j.l.l.l.| q m @ * 0 z q _ o.n.c.x.c.z.k.#.i q ( }.~.k.k.k.k.k.k.k.k.k.k.k.k.k.k.k.",
"k.k.k.k.k.k.k.k.k.k.k.k.k.k.k.k.f.k.&.w T l.c.c.c.x.x.,.7 6 7 e @ 0 b j '.=X Xi.Z.C.V.*.a 6 l X.G.k.k.k.k.k.k.k.k.k.k.k.k.k.k.k.",
"k.k.k.k.k.k.k.k.k.k.k.k.k.k.k.k.f.k.@.a <.c.c.x.x.x.x.>.q q t q @ ( =X[ X.q.P.t._.W.4.a * * g / n.k.k.k.k.k.k.k.k.k.k.k.k.k.k.k.",
"k.k.k.k.k.k.k.k.k.k.k.k.k.k.k.k.k.k.a.K S.c.x.x.x.x.x.h.a = w 8 q t $.[.7.o.M c z g 6 + + + g { d.k.k.k.k.k.k.k.k.k.k.k.k.k.k.k.",
"k.k.k.k.k.k.k.k.k.k.k.k.k.k.k.k.k.l.l.v.x.x.x.x.x.x.x.x.N % s g  ./ 5.4XK.C.0.;.L d i w i d | s.k.k.k.k.k.k.k.k.k.k.k.k.k.k.k.k.",
"k.k.k.k.k.k.k.k.k.k.k.k.k.k.k.k.z.z.c.c.x.x.x.x.x.x.x.x.+.& 2 g _ w.3X%XD.x.x.x.A.C.0.0.b.j.z.z.k.k.k.k.k.k.k.k.k.k.k.k.k.k.k.k.",
"k.k.k.k.k.k.k.k.k.k.k.k.k.k.k.k.z.c.c.c.x.x.x.x.x.x.x.x.s.> 1 0 i J ;X8XL.x.x.x.x.x.x.x.c.c.c.z.k.k.k.k.k.k.k.k.k.k.k.k.k.k.k.k.",
"k.k.k.k.k.k.k.k.k.k.k.k.k.k.k.z.c.c.c.x.x.x.x.x.x.x.x.x.j.9 y 8 & 4 $X4XA.x.x.x.x.x.x.x.x.c.c.c.z.z.k.k.k.k.k.k.k.k.k.k.k.k.k.k.",
"k.k.k.k.k.k.k.k.f.f.k.k.k.z.z.c.c.c.x.x.x.x.x.x.x.x.x.x.a.> u 8 X 5 &X*XA.x.x.x.x.x.x.x.x.x.x.c.c.z.z.k.k.k.f.f.f.k.k.k.k.k.k.k.",
"k.k.k.k.k.k.k.k.f.f.f.k.z.z.c.c.c.x.x.x.x.x.x.x.x.x.j.s.T * u 8 X J 6X{.x.x.x.x.x.x.x.x.x.x.x.c.c.c.z.z.k.f.f.f.f.k.k.k.k.k.k.k.",
"k.k.k.k.k.k.k.k.f.f.k.z.z.c.c.c.x.x.x.x.x.x.x.x.n.| ) M g + @ 7 $ ! 7XG.x.x.x.x.x.x.x.x.x.x.x.x.c.c.c.z.k.k.f.f.f.k.k.k.k.k.k.k.",
"k.k.k.k.k.k.k.k.f.k.z.z.c.c.x.x.x.x.x.x.x.x.x.V.Y N T T v q 6 8 5 T.7XJ.x.x.x.x.x.x.x.x.x.x.x.x.x.x.c.c.z.z.k.f.k.k.k.k.k.k.k.k.",
"k.k.k.k.k.k.k.k.k.l.z.c.c.x.x.x.x.x.x.x.x.x.x.x.j.d.j.j.L a r w U T.7XJ.x.x.x.x.x.x.x.x.x.x.x.x.x.x.x.c.c.z.z.k.k.k.k.k.k.k.k.k.",
"k.k.k.k.k.k.k.k.z.z.c.c.x.x.x.x.x.x.x.x.x.x.x.x.x.x.c.*.u ] ' 9 W 1..XL.x.x.x.x.x.x.x.x.x.x.x.x.x.x.x.x.c.c.z.z.k.k.k.k.k.k.k.k.",
"k.f.k.k.k.k.k.k.z.c.c.x.x.x.x.x.x.x.x.x.x.x.x.x.x.c.c.d.+.*.' [ L 8.e.V.x.x.x.x.x.x.x.x.x.x.x.x.x.x.x.x.x.c.c.z.k.k.k.k.f.f.k.k.",
"k.f.f.f.f.k.z.z.c.c.c.x.x.x.x.x.x.x.x.x.x.x.x.x.x.x.x.x.} ` X.oXq.1X@X].x.x.x.x.x.x.x.x.x.x.x.x.x.x.x.x.x.c.c.c.z.z.k.f.f.f.f.k.",
"k.f.f.f.k.z.z.c.c.c.x.x.x.x.x.x.x.x.x.x.x.x.x.x.x.x.c.R L { ,.e.[.p.p.@XW.s.x.x.x.x.x.x.x.x.x.x.x.x.x.x.x.x.x.c.c.z.z.k.k.f.f.k.",
"f.k.k.k.z.z.c.c.c.x.x.x.x.x.x.x.x.x.x.x.x.x.x.x.x.x.l.| >.j.x.>.t.K.j.9.p.-.V.x.x.x.x.x.x.x.x.x.x.x.x.x.x.x.x.c.c.c.z.z.k.k.k.f.",
"f.k.k.z.z.c.c.x.x.x.x.x.x.x.x.x.x.x.x.x.x.x.x.x.x.x.x.x.x.x.x.} { Z.x.x.n.r.Z.x.x.x.x.x.x.x.x.x.x.x.x.x.x.x.x.x.x.c.c.z.z.k.k.f.",
"f.k.z.z.c.c.x.x.x.x.x.x.x.x.x.x.x.x.x.x.x.x.x.x.x.x.x.x.x.x.x.O.| l.x.x.x.x.x.x.x.x.x.x.x.x.x.x.x.x.x.x.x.x.x.x.x.x.c.c.z.z.k.f.",
"k.l.z.c.c.x.x.x.x.x.x.x.x.x.x.x.x.x.x.x.x.x.x.x.x.x.x.x.x.x.x.c.c.x.x.x.x.x.x.x.x.x.x.x.x.x.x.x.x.x.x.x.x.x.x.x.x.x.x.c.c.z.z.k.",
"z.z.c.c.c.x.x.x.x.x.x.x.x.x.c.x.x.x.x.x.x.x.x.x.x.x.x.x.x.x.x.x.x.x.x.x.x.x.x.x.x.x.x.x.x.x.x.x.x.c.c.x.x.x.x.x.x.x.x.c.c.c.z.z.",
"z.c.c.c.c.x.x.x.x.x.x.x.c.c.c.x.x.x.x.x.x.x.x.x.x.x.c.x.x.x.x.x.x.x.x.x.x.x.x.x.x.x.x.x.x.x.x.x.c.c.c.x.x.x.x.x.x.x.x.x.c.c.c.z."
};
