/* XPM */
static char *_c808a22846b4b628e204a939b165a23[] = {
/* columns rows colors chars-per-pixel */
"64 64 231 2 ",
"   c #1F092D",
".  c #230F32",
"X  c #230C34",
"o  c #2F3A3C",
"O  c #323C3E",
"+  c #2F1245",
"@  c #35184D",
"#  c #391B56",
"$  c #393A49",
"%  c #3C2A54",
"&  c #3B1968",
"*  c #46335C",
"=  c #471D66",
"-  c #41177F",
";  c #50316D",
":  c #542675",
">  c #3B4549",
",  c #414A4E",
"<  c #454B54",
"1  c #495657",
"2  c #505E5F",
"3  c #51615F",
"4  c #4D4463",
"5  c #56486A",
"6  c #565967",
"7  c #594C78",
"8  c #5C5875",
"9  c #634976",
"0  c #65577B",
"q  c #586766",
"w  c #5C6C6A",
"e  c #5F706C",
"r  c #626A6D",
"t  c #61726E",
"y  c #666777",
"u  c #72647C",
"i  c #637571",
"p  c #697878",
"a  c #74797D",
"s  c #6D827A",
"d  c #71857D",
"f  c #5B3888",
"g  c #653889",
"h  c #6F3596",
"j  c #6B19BE",
"k  c #722FB3",
"l  c #7637B8",
"z  c #684786",
"x  c #73558A",
"c  c #744897",
"v  c #6C5891",
"b  c #7A5999",
"n  c #6E6A87",
"m  c #74698A",
"M  c #767A89",
"N  c #746694",
"B  c #7B7A91",
"V  c #6E41A1",
"C  c #7949A7",
"Z  c #7B4EAF",
"A  c #7C67A5",
"S  c #6401C7",
"D  c #690BC6",
"F  c #6A0BC7",
"G  c #6500C8",
"H  c #6B01CA",
"J  c #7400CD",
"K  c #7A02CF",
"L  c #760BCB",
"P  c #6C13C5",
"I  c #7417C6",
"U  c #7C00D1",
"Y  c #7723C5",
"T  c #7B2CC9",
"R  c #7E32C8",
"E  c #8838BB",
"W  c #82579E",
"Q  c #827A97",
"!  c #8C7B92",
"~  c #8857A9",
"^  c #8557B8",
"/  c #9150B4",
"(  c #BA5DBF",
")  c #896AA8",
"_  c #8976A9",
"`  c #9375AC",
"'  c #8E68B8",
"]  c #9866B6",
"[  c #9776B6",
"{  c #A276BB",
"}  c #CD6ABC",
"|  c #CE78B8",
" . c #D175B9",
".. c #8400D4",
"X. c #8B01D6",
"o. c #880BD2",
"O. c #8E00D8",
"+. c #9400DA",
"@. c #9B00DD",
"#. c #9A0CDA",
"$. c #8F17D3",
"%. c #A204DF",
"&. c #A710DF",
"*. c #B819DE",
"=. c #8B34C5",
"-. c #8739CA",
";. c #9B25D4",
":. c #BB29D8",
">. c #AA3AD8",
",. c #BD3CDB",
"<. c #A400E1",
"1. c #AB00E3",
"2. c #A80AE0",
"3. c #B402E6",
"4. c #B907E6",
"5. c #BB01E9",
"6. c #AF12E2",
"7. c #BA13E4",
"8. c #C21DDF",
"9. c #C33ECE",
"0. c #C527DA",
"q. c #C737D5",
"w. c #C30EE6",
"e. c #C101EB",
"r. c #C30BE9",
"t. c #C218E7",
"y. c #D11EF2",
"u. c #CA2AEA",
"i. c #8947C8",
"p. c #9150CA",
"a. c #9657CF",
"s. c #B251CF",
"d. c #B94DD9",
"f. c #9768C8",
"g. c #A779C7",
"h. c #B274D0",
"j. c #C84BCB",
"k. c #CA57C6",
"l. c #CB48D2",
"z. c #CD64C2",
"x. c #CC6DD4",
"c. c #7A8A86",
"v. c #7D9188",
"b. c #7F8891",
"n. c #818B89",
"m. c #83948E",
"M. c #878A97",
"N. c #9A869B",
"B. c #899896",
"V. c #8A9D95",
"C. c #99929C",
"Z. c #A7929A",
"A. c #AD909B",
"S. c #8EA19B",
"D. c #91A29C",
"F. c #958FAA",
"G. c #AC94B0",
"H. c #9AAAA7",
"J. c #9BACA5",
"K. c #BCA7AB",
"L. c #A3B1AC",
"P. c #A9A9B6",
"I. c #ABBBB4",
"U. c #ACBAB8",
"Y. c #B2BAB8",
"T. c #D39D9F",
"R. c #CCAC9D",
"E. c #D3AF93",
"W. c #D4A49C",
"Q. c #D4AD9B",
"!. c #D5B296",
"~. c #D5B49A",
"^. c #D8B799",
"/. c #D6BD9A",
"(. c #D8BB99",
"). c #D187AB",
"_. c #D18BAD",
"`. c #D397A7",
"'. c #D187B4",
"]. c #D096B3",
"[. c #CBADA4",
"{. c #C9AAAB",
"}. c #D5A9A3",
"|. c #CCB2AA",
" X c #D2B3A6",
".X c #C2A8B3",
"XX c #CAB6B8",
"oX c #B4C1BD",
"OX c #B8C7BF",
"+X c #CFC1BC",
"@X c #A985C6",
"#X c #B092CD",
"$X c #B987D5",
"%X c #B6A5C6",
"&X c #BAB7C7",
"*X c #BCA2D4",
"=X c #CA81DF",
"-X c #C9AFCF",
";X c #D0B7E1",
":X c #BAC6C4",
">X c #BECBC5",
",X c #C7CACB",
"<X c #C4D1CC",
"1X c #C9D2CF",
"2X c #C9C7D2",
"3X c #D4CAD7",
"4X c #CAD4D2",
"5X c #CEDAD5",
"6X c #CEDADA",
"7X c #D5D5DC",
"8X c #D4D8D8",
"9X c #D4DEDA",
"0X c #E2D9DF",
"qX c #D5E1DD",
"wX c #D9E2DE",
"eX c #D7C6E6",
"rX c #DAD6E3",
"tX c #E1D9E7",
"yX c #DCE4E1",
"uX c #DCE8E4",
"iX c #E1E6E4",
"pX c #E3EAE6",
"aX c #E3E5EA",
"sX c #E5EDE9",
"dX c #E9EEEC",
"fX c #E7F0EB",
"gX c #EBF2EE",
"hX c #F3E7F6",
"jX c #EEF4F1",
"kX c #F1F7F3",
"lX c #F2F8F4",
/* pixels */
"/./././././././././././././././.(.(.(.(././././././././././././././././././././././././.(.(.(./././././././././././././././././.",
"/././././././././././././././././.(.(.(././././././././././.(.(.(.(././././././././././.(.(.(./././././././././././././././././.",
"/././././././././././././././././.(.(.(./././././././././.(.(.(.(.(./././././././././././.(.(./././././././././././././././././.",
"/././././././././././././././././.(./././././././././.z.l.].A.N.Z.{. X^././././././././././.(./././././././././././././././././.",
"/././././././././././././././././././././././.}.'. X].r.s.9 # & : %X0X X^.~.(./././././././././././././././././././././././././.",
"/./././././././././././././././././././././.~.l.5.0.0.:.9 = g h / ;XhX;X0.r.z. X/./././././././././././././././././././././././.",
"/./././././././././././././././././././././.| 4.1.<.@.W : c h h / $X$X{ >.1.3.l././././././././././././././././././././././././.",
"/././././././././././././././././././././.'.7.<.+.X.o.; g [ x = h ] h./ =.@.<.5._./././././././././././././././././././././././.",
"/./././././././././././././././././././.`.*.<.+.U J L 5 x G..   @ h ;X{ p...@.1.z./././././././././././././././././././././././.",
"/./././././././././././././././././././.j.1.+...H G G 0 N.0     X : { 3Xi.U O.<.k.(.(./././././././././././././././././././././.",
"/./././././././././././././././././././.*.<.X.J G G F 0 M.5   X + = c 7Xi.J ..%.9.Q.(./././././././././././././././././././././.",
"/./././././././././././././././.(.k.'.].3.@.U H G G Y M p 6   = : g &XsXg.J ..@.7.`.(.(././././././././././././././././././././.",
"/./././././././././././././././.(.0.q.l.<.O.J G G G G ) w v., % 9 &XyX2X-.H U +.4.`.^.(.^./././././././././././././././././././.",
"/././././././././././././././././.'.r.7.@.U G G G F G l 8 c.n.I.5X,X,X2XT F K O.1.q.`.!.(.(.(./././././././././././././././././.",
"/././././././././././././././././.}.4.1.O.H G T $X$X) n s q m.S.:XwXyXsX%X@X@Xh.&.5.} !.!.(.(./././././././././././././././././.",
"/././././././././././././././.(.`.'.4.<.U G R @X~ : 5 d c.i q a :XY.yXyX,X= : G.$X7._._._.Q.(.(.(./././././././././././././././.",
"(././././././././././././././.`.t.r.3.@.H P ) g # X 6 i D.I.m.r m.oXyX1X5X* @ # x h.q.r.r. .^.^.(./././././././././././././././.",
"(.(.(.(./././././././././.(.(.`.r.e.1...S R b c & % q m.4X5XpX5XuXsXiX1XD.P.& - c #X5.e.e.} !.^.(.(.(././././././././././.(.(.(.",
"(.(./././././././././././.(.(.Q.0.5.@.H S Y x _ 7 w w pXjXjXgXsXfXgXgXlX5Xm.F.A F.@X3.e.w.`.!.!.^.(.(././././././././././.(.(.(.",
"(.(.(./././././././././.^.(.^.!.j.1...G G l w c.d 2 1 9XgXjXgXyXfXgXgXgXI.1 e v.D.` 1.5.} E.!.!.!.!.(.(././././././././././././.",
"/././././././././././.(.^.(.`.} :.@.U G F A J.qX5XM y c.<XwX4XH.<X9XwX>Xt y i :XsX7Xs.4.W.!.!.!.!.!.!.(.^./././././././././././.",
"/././././././././.(.(.(.^.`.0.5.<.O.H G j M.qXyXI._ N w w t < $ u t p t 1 ^ n v.6XdX$X:.!.!.!.!.!.!.!.^.(.(.(./././././././././.",
"/./././././././.(.(.(.!.!.l.5.3.@.K G F C c.qX4Xp i.f.p w 1 @ = ) F.V.c.F.R f.2 V.<X%Xs._.W.!.!.!.E.!.!.!.^.(./././././././././.",
"/./././././././.^.(.^.!.`.w.5.3.+.H R #Xa v.m.B Z F P _ i v.4 g c &XsX:Xp.G T v 1 p J.&X=Xz.Q.!.E.E.!.!.!.!.^.^.(./././././././.",
"/././././././.(.^.^.!.!. .e.y.t.+.F -X5XpXyXV.V G G G ' D.wXH.g F.9XdXrXT G G F 8 J.sXiXyX-XQ.!.E.E.!.!.!.!.!.^.^./././././././.",
"/././././.(.(.^.!.!.!.`.0.e.y.y.X.g.yXsXsXyXb.l G G G ^ P.dXuXF.qXsXgX7X-.G G G v m.wXdX8X8X|.!.!.!.!.!.!.!.!.!.^.(././././././.",
"/././././.(.^.^.!.!.W.q.e.e.y.t.o.rXjXgXpX:XM.T G G G ~ H.jXjXoXgXjXjX:X-.S S S l a U.pXgXjXXX!.!.!.!.!.!.!.!.!.^.^.^./././././.",
"/./././.(.(.!.!.!.!.T.0.e.3.1.+.a.kXlXkX<Xb.^ G G G F Q <XlXkXyXkXkXjXpXh.G S S P v w U.jXkX7X~.!.!.!.!.!.!.!.!.!.!.(.^././././.",
"/././.^.(.^.!.!.!.!.Q.q.5.1.@.$.;XkXjXoXB Z G G G G j n.:XjXjXgXjXjXkXiX;XF S S S Y A c.oXgXkXXX!.!.E.E.!.!.!.!.!.!.^.(.^./././.",
"/./.(.(.!.!.!.!.!.!.Q.x.d.s.a.' wXjXoXB p.F G G G G k B.wXgXgXgXgXgXjXjXtXP G S S S P ) v.<XkX,XK.XX{.[.!.!.!.!.!.!.!.!.(.(.(./.",
"/.(.(.!.!.!.!.E.!.!.W.q.,.$XdXyXB.L.M i.G G G G G G k B.sXgXsXsXsXdXjXkXtXp.G G S S H ;.Z.B.m.Y.jX1X|.{.!.!.!.!.E.!.!.!.!.(.(./.",
"^.(.^.!.!.!.E.E.!.!.Q.k.7.s.8X,X<XH.l G G G S S G F v V.sXfXqXuXsXyXjXkXgXrXf.G G H +.j.R.C.U.I.9XY.R.E.!.!.!.!.E.E.!.!.!.!.(.^.",
"^.^.!.!.!.!.!.!.!.!.!.Q.x.3X9XD.<X#XF G G G S G G P 8 S.gXgXOXU.:X9XjXjXjX<XjX*XY +.5.k.!.[.iXH.>XyXXXR.!.!.!.!.!.!.!.!.!.!.^.^.",
"^.!.!.!.!.!.!.!.!.!.!.|.2X-X,X4X2X=.K H G G G G G j 8 V.sXgX>XM r wXjXjXkX5XuXgXeXd.r.z.!.!.,X1X,X,XK.|.R.!.!.!.!.!.!.!.!.!.!.^.",
"!.!.!.!.!.!.!.!.!.!.Q..XR.+XG.%Xg.$X$.U H G G S S j 8 m.9XgX5Xp p gXkXkXlX8XyXgXgXsXh.| !.[..XK.G.+X[.K.{.Q.!.!.!.!.!.!.!.!.!.!.",
"!.!.!.!.!.!.!.!.!.!.!.!.!.XXR.-Xh.s.;...J G G S S P 5 s >XgX5Xw V.jXlXlXkXL.L.9XjXdXiX3XR.[..X[.[.K.[.!.!.!.!.!.!.!.!.!.!.!.!.!.",
"!.!.!.!.!.!.!.!.!.!.!.!.!..XQ.-Xu.7.%.X.J G G G G F 7 q I.sX5Xq Y.kXkXkXkXM.2 c.<XsXjXjX0X{.[.[.[.[.{.!.!.!.!.!.!.!.!.!.!.!.!.!.",
"!.!.!.!.!.!.!.!.!.!.!.!.!.Q.!.].8.5.<.O.K H G S S F 7 w S.qX4Xq <XkX9XgXkXg.) r p J.wXgXgX7X X XQ.!.!.!.!.!.!.!.!.!.!.!.!.!.!.!.",
"!.!.!.!.!.!.!.!.!.!.!.!.!.!.!.E.).0.1.@...J I p.@X*XM q s V.J.q >XjXD.gXpX-.#.>.) q a I.sXsX2X[.!.!.!.!.!.!.!.!.!.!.!.!.!.!.!.!.",
"!.!.!.!.!.!.!.!.!.!.!.!.!.!.!.!.!.Q.9.1.#.g.,XoXJ.H.v.> w s i 1 V.4Xv.sXJ.Y O.<.7.g.6 q V.qX<XXX!.!.!.!.!.!.!.!.!.!.!.!.!.!.!.!.",
"!.!.!.!.!.!.!.!.!.!.!.!.!.!.!.!.E.E.W.s.W c.B C Z ^ ^ n 1 q > O t c.i D.Q L X.<.4.`.A.r 1 v.>X3XQ.!.!.!.!.!.!.!.!.!.!.!.!.!.!.!.",
"!.!.!.!.!.!.!.!.!.!.!.!.!.!.!.!.E.E.E.N.< C $.L G G G [ , w $ > > 1 , d P.g.;.<.7.`.!.A., 3 B.4X[.!.!.!.!.!.!.!.!.!.!.!.!.!.!.!.",
"!.!.!.!.!.!.!.!.!.!.!.!.!.!.!.!.E.!.!.u z #.X.J G G S ' 1 O , 2 O w H.r Y.qX6XP.#X.XK.a > , i P.R.!.!.!.!.!.!.!.!.!.!.!.!.!.!.!.",
"!.!.!.!.!.!.!.!.!.!.!.!.!.!.!.!.E.!.!.u / &.X.K G G S k 6 , q 1 > c.<XH.B.B.S.S.J.H.t > O > w Z.E.!.!.!.!.!.!.!.!.!.!.!.!.!.!.!.",
"!.!.!.!.!.!.!.!.!.!.!.!.!.!.!.!.E.!.W.] s.2.X.J G G G F 7 # 4 1 t 2 c.pX' @Xb.i q > o o O > Q R.!.!.!.!.!.!.!.!.!.!.!.!.!.!.!.!.",
"!.!.!.!.!.!.!.!.!.!.!.!.!.!.!.!.!.!._.t.4.<.X.J G G G S V @ ; w S.H.>XsXi.F T p.~ b m m ! Z.R.!.!.!.!.!.!.!.!.!.!.!.!.!.!.!.!.!.",
"!.!.!.!.!.!.!.!.!.!.!.!.!.!.!.!.!.!.}.t.5.<.X.J S S S S j % ; 1 p C.gXiXi.S G J X.2.,. X/.(.!.!.!.!.!.!.!.!.!.!.!.!.!.!.!.!.!.!.",
"!.!.!.!.!.!.!.!.!.!.!.!.!.!.!.!.!.(.(.`.q.2.+.U S S S S F ; * , % z 7XsXT G H K X.1.k./.(.(.(.!.!.!.!.!.!.!.!.!.!.!.!.!.!.!.!.!.",
"!.!.!.!.!.!.!.!.!.!.!.!.!.!.!.!.(.(.(./._.*.@.U S S S S P * 5 , . ; 9XeXI G H K +.1.| /./.(.(.(.^.!.!.!.!.!.!.!.!.!.!.!.!.!.!.!.",
"!.!.!.!.!.!.!.!.E.E.!.!.!.!.!.(.(./././.k.3.@.U S G G S j $ 9 , X z jX#XG G H ..@.3.}././././.(.(.!.!.!.!.!.E.E.E.!.!.!.!.!.!.!.",
"!.!.!.!.!.!.!.!.E.E.!.!.!.!.(.(././././._.7.1...F k C b 8 O $ > + ` jXf.G S J ..<.q.(././././.(.(.(.!.!.!.!.E.E.E.!.!.!.!.!.!.!.",
"!.!.!.!.!.!.!.!.E.E.!.!.!.(.^.^././././.(. .3.@.C 8 p y 4 > O > ; #XaXa.G S J O.1. ././././././.^.^.(.!.!.!.E.E.E.!.!.!.!.!.!.!.",
"!.!.!.!.!.!.!.!.E.!.!.!.^.^././././././././.'.*.;.=.=.I V q < 2 b %XaXa.G G K @.4.`././././././././.^.(.!.!.!.E.!.!.!.!.!.!.!.!.",
"!.!.!.!.!.!.!.!.!.!.!.(.(./././././././././.(.'.*.@.X.L 7 z f < ] %XrXa.G G U %.:.}./././././././././.(.(.!.!.!.!.!.!.!.!.!.!.!.",
"!.!.!.!.!.!.!.!.!.!.(.(././././././././././././.z.1.@.$.Z I m w 8 M._ P G H X.1.} /././././././././././.(.(.^.!.!.!.!.!.!.!.!.!.",
"!.E.!.!.!.!.!.!.^.(.(./././././././././././././.q.5.1.#.E Q B.<XJ.yX4Xf.F U @.3.}././././././././././././.(.(.!.!.!.!.!.!.E.!.!.",
"E.E.E.E.E.!.!.!.(.^././././././././././././././.}.j.4./ y M [ #X>XG.U.yX@Xo.<.4.}././././././././././././.(.^.(.!.!.!.E.E.E.E.!.",
"!.E.E.E.!.!.!.(.(.(././././././././././././././././. X! N.( 2./ :Xa.Y [ &X] 6.8.}././././././././././././././.^.(.!.!.!.!.E.E.!.",
"E.!.!.!.!.!.(.(.(./././././././././././././././.(.(./.~././.k.~ Q i.G G -.g.,.}./././././././././././././././.(.(.(.!.!.!.!.!.!.",
"E.!.!.!.!.(.^./././././././././././././././././.(.(././././.~.N.~ $...O.1.3.} /./././././././././././././././././.(.(.^.!.!.!.!.",
"E.!.!.!.(.(././././././././././././././././././.(.(./././././.~.{.| j.0.0.} ~./././././././././././././././././././.(.(.!.!.!.!.",
"!.!.!.(.^./././././././././././././././././././.(.(././././././././.(.~.~.(./././././././././././././././././././././.(.(.!.!.!.",
"!.!.(.(.^./././././././././.(./././././././././.(./././././././././.(.(./././././././././././././.(.(././././././././.(.^.(.^.!.",
"^.(.^.^././././././././.(.(.(./././././././././.(./././././././././.(.(././././././././././././.(.(.(./././././././././.^.(.(.^."
};
