/* XPM */
static char *_e52fff709064a9f8602e8c6a9bb3e39[] = {
/* columns rows colors chars-per-pixel */
"64 64 256 2 ",
"   c #283D34",
".  c #104D08",
"X  c #11730F",
"o  c #2E552B",
"O  c #167737",
"+  c #366F2D",
"@  c #23601F",
"#  c #4C6831",
"$  c #615D38",
"%  c #1A3D46",
"&  c #2C397E",
"*  c #1D484D",
"=  c #244C58",
"-  c #26585B",
";  c #304D4B",
":  c #1A724B",
">  c #347652",
",  c #285466",
"<  c #2D5E75",
"1  c #30576F",
"2  c #326F72",
"3  c #505A4E",
"4  c #73514E",
"5  c #53724F",
"6  c #6C684D",
"7  c #516F6C",
"8  c #6D7370",
"9  c #775B63",
"0  c #BC391D",
"q  c #B83D2B",
"w  c #C62902",
"e  c #C72A04",
"r  c #C93515",
"t  c #D0320C",
"y  c #E12C00",
"u  c #C73E21",
"i  c #B14231",
"p  c #C9432B",
"a  c #CD4935",
"s  c #DC401E",
"d  c #8B534D",
"f  c #8B5853",
"g  c #915653",
"h  c #B65347",
"j  c #8B625C",
"k  c #977776",
"l  c #936F69",
"z  c #A67974",
"x  c #D97271",
"c  c #D05D4F",
"v  c #2F8C19",
"b  c #0D8C36",
"n  c #128B3C",
"m  c #178831",
"M  c #378F26",
"N  c #3DA320",
"B  c #1C850D",
"V  c #4C9031",
"C  c #47A828",
"Z  c #54AD2A",
"A  c #51B22B",
"S  c #57AA34",
"D  c #53B22D",
"F  c #67AA3B",
"G  c #66B23A",
"H  c #4CA020",
"J  c #148B44",
"K  c #16914A",
"L  c #1B8E57",
"P  c #318556",
"I  c #1C9262",
"U  c #3E8366",
"Y  c #219466",
"T  c #269677",
"R  c #2E8D72",
"E  c #3DA078",
"W  c #558E4C",
"Q  c #6B9253",
"!  c #58A14E",
"~  c #6CA945",
"^  c #76B448",
"/  c #70B04F",
"(  c #448772",
")  c #71926F",
"_  c #77AE6B",
"`  c #89B757",
"'  c #8FAF58",
"]  c #8A9B6D",
"[  c #9BB864",
"{  c #90AD6F",
"}  c #A6BB6A",
"|  c #B8BB78",
" . c #A5B172",
".. c #9B9263",
"X. c #CDB475",
"o. c #C98E70",
"O. c #A4C169",
"+. c #A9C36E",
"@. c #B2C878",
"#. c #91C270",
"$. c #EBE54C",
"%. c #CFD967",
"&. c #324984",
"*. c #3A7089",
"=. c #397697",
"-. c #316E8F",
";. c #3D7AA8",
":. c #3F7FB0",
">. c #1E6A8F",
",. c #4B548E",
"<. c #53709A",
"1. c #707692",
"2. c #417CAA",
"3. c #6A7BA5",
"4. c #977994",
"5. c #A67991",
"6. c #DD7B98",
"7. c #DB7B84",
"8. c #309690",
"9. c #3A96B0",
"0. c #3DA1B4",
"q. c #498D8F",
"w. c #738691",
"e. c #4388B6",
"r. c #4D90B1",
"t. c #7395B1",
"y. c #5DA3A2",
"u. c #4C94D5",
"i. c #4E96CB",
"p. c #6992CD",
"a. c #44A2C8",
"s. c #49A4D7",
"d. c #55A6DD",
"f. c #6AB4D9",
"g. c #70B1D0",
"h. c #579DE4",
"j. c #4E9AE3",
"k. c #4DA7E4",
"l. c #52A4EB",
"z. c #59A7EB",
"x. c #4BB3E6",
"c. c #4DB6EA",
"v. c #4EB9EC",
"b. c #5CBBE5",
"n. c #52BAEB",
"m. c #5CBDEA",
"M. c #53B7E7",
"N. c #55A6F3",
"B. c #56A8F5",
"V. c #5CABF4",
"C. c #57A9FB",
"Z. c #58AAFC",
"A. c #58A6F5",
"S. c #4FBCF1",
"D. c #51BDF2",
"F. c #64ADE7",
"G. c #65B9E6",
"H. c #63ACF5",
"J. c #76B6F5",
"K. c #73B7EB",
"L. c #629BE0",
"P. c #7CC4D9",
"I. c #52C2F5",
"U. c #54C5FA",
"Y. c #5AC2EB",
"T. c #64C1EA",
"R. c #6BC4EB",
"E. c #6AC5E6",
"W. c #76C7E6",
"Q. c #7BD2E9",
"!. c #908F93",
"~. c #A59599",
"^. c #B08E8E",
"/. c #92AF8A",
"(. c #B2AB90",
"). c #8E90AD",
"_. c #B090AD",
"`. c #94BEAD",
"'. c #89BCB8",
"]. c #94AEB0",
"[. c #ABBCA8",
"{. c #B0ACB0",
"}. c #DA8C8F",
"|. c #E18D95",
" X c #E4929B",
".X c #E2898C",
"XX c #C9BB86",
"oX c #D5BE8D",
"OX c #D9BE8A",
"+X c #D5BF90",
"@X c #CCBD92",
"#X c #D692AE",
"$X c #E59AA8",
"%X c #CAB1B4",
"&X c #EAA8B8",
"*X c #EAA3AF",
"=X c #E0A89A",
"-X c #ADCA99",
";X c #99C3AA",
":X c #B9C4AA",
">X c #A8CABA",
",X c #B1CEB1",
"<X c #9BC48E",
"1X c #D5C08E",
"2X c #D9C18D",
"3X c #D4C393",
"4X c #D5C597",
"5X c #CCC599",
"6X c #C7CFAA",
"7X c #E8C0BA",
"8X c #AC97C6",
"9X c #8BBACB",
"0X c #AEB2C4",
"qX c #83BAF2",
"wX c #8DBAEB",
"eX c #8286C0",
"rX c #D69ACF",
"tX c #E69ED7",
"yX c #DAB6C9",
"uX c #DCA3DD",
"iX c #CAAFC5",
"pX c #EDB5CD",
"aX c #E8B8CA",
"sX c #F1B7CD",
"dX c #ECB7D2",
"fX c #F2BCD4",
"gX c #F0B7D0",
"hX c #E8A7CC",
"jX c #DEA5E4",
"kX c #EDA4EC",
"lX c #E5A6E6",
"zX c #EEA7F3",
"xX c #DE9FE8",
"cX c #91D1D2",
"vX c #ACD1CC",
"bX c #93C5F2",
"nX c #8CC7EC",
"mX c #B9D8F5",
"MX c #ABCDEC",
"NX c #D2C9CA",
"BX c #D7D9D5",
"VX c #CCD2CC",
"CX c #F6C1D9",
"ZX c #E9D2D2",
"AX c #D9E5D8",
"SX c #D0DCEA",
"DX c #D9E9F6",
"FX c #D1E2EB",
"GX c #E7E8E5",
"HX c #ECF2EC",
"JX c #E9F2F9",
"KX c #F4F4F4",
"LX c #F6F9FB",
"PX c #FEFEFE",
"IX c #F7F8F7",
"UX c #EAEEF3",
/* pixels */
"Z.Z.Z.Z.Z.Z.Z.Z.Z.Z.Z.Z.Z.Z.Z.Z.Z.Z.Z.Z.Z.Z.Z.Z.Z.Z.Z.Z.Z.Z.Z.Z.Z.Z.Z.Z.Z.Z.Z.Z.Z.Z.Z.Z.Z.Z.Z.Z.Z.Z.Z.Z.Z.Z.Z.Z.Z.Z.Z.Z.Z.Z.Z.C.",
"Z.C.Z.C.Z.Z.Z.Z.C.C.Z.C.C.Z.C.C.C.C.Z.Z.Z.C.C.Z.C.Z.C.Z.C.C.Z.C.Z.Z.Z.Z.C.C.Z.C.C.Z.C.C.Z.C.Z.C.Z.C.Z.Z.C.C.C.C.Z.C.C.Z.C.Z.Z.C.",
"Z.Z.Z.Z.Z.Z.Z.Z.C.Z.Z.C.C.Z.Z.Z.C.Z.Z.Z.Z.C.C.C.C.Z.Z.Z.Z.C.Z.Z.Z.Z.Z.Z.Z.Z.Z.C.C.C.C.C.Z.Z.Z.Z.Z.Z.Z.Z.Z.C.C.Z.Z.Z.Z.Z.Z.Z.C.C.",
"Z.Z.Z.Z.Z.Z.Z.Z.C.Z.Z.Z.C.Z.Z.Z.C.C.C.C.C.C.Z.Z.C.Z.Z.Z.Z.Z.Z.Z.Z.Z.Z.Z.Z.Z.Z.C.C.C.N.C.Z.Z.Z.Z.Z.Z.Z.Z.Z.Z.C.Z.Z.Z.Z.Z.Z.Z.Z.C.",
"Z.Z.C.Z.Z.Z.Z.Z.C.Z.Z.Z.Z.C.Z.Z.C.C.C.C.C.C.Z.Z.C.Z.C.C.Z.Z.Z.Z.Z.Z.Z.Z.Z.C.C.B.g.9X'.g.C.C.Z.Z.Z.Z.Z.C.Z.Z.C.Z.Z.Z.Z.C.C.Z.Z.C.",
"Z.Z.C.Z.B.l.Z.C.C.l.j.u.j.C.C.Z.C.Z.Z.C.Z.C.C.C.C.C.C.C.C.V.F.F.F.F.F.F.F.F.F.f.%.$.$.@.V.Z.Z.Z.C.Z.Z.C.C.Z.Z.Z.C.C.Z.C.Z.C.C.C.",
"Z.C.C.B.u.e.j.N.l.:.-., ;.N.Z.Z.C.C.C.C.Z.C.C.C.Z.V.V.z.F.f.9X'.;X`.;X`.`.`.;X;X$.$.$.%.V.C.Z.Z.Z.C.C.Z.C.Z.C.C.C.Z.C.Z.Z.C.Z.C.",
"Z.Z.C.N.=.< < :.=., = = =.N.Z.Z.C.C.Z.Z.C.C.V.V.F.g.'.'.`.'.g.F.V.V.V.z.V.V.V.z.'.'.;XF.C.C.Z.Z.Z.Z.Z.C.Z.C.C.Z.Z.Z.Z.C.C.Z.Z.C.",
"Z.Z.Z.N.;.< = , 1 * 1 - e.l.C.Z.C.C.C.C.V.F.g.9Xf.z.z.F.F.F.V.Z.C.C.k.9.a.l.B.C.V.V.F.C.C.C.Z.Z.Z.Z.C.Z.Z.Z.C.Z.Z.C.C.C.Z.Z.C.C.",
"Z.N.a.0.9.8.- * % = : O T T l.Z.C.C.N.g.F.z.F.F.z.C.C.C.Z.Z.Z.C.C.C.s.J L I T a.l.Z.Z.C.C.Z.C.Z.C.C.C.Z.Z.Z.C.Z.Z.C.C.C.Z.Z.C.C.",
"8.8.L I T Y J O @ : : J : L d.C.C.C.z.f.F.B.Z.Z.Z.C.C.C.C.C.C.C.C.C.k.T K b K Y 8.k.Z.C.Z.C.C.Z.Z.Z.Z.Z.Z.Z.C.Z.Z.Z.Z.C.Z.Z.Z.C.",
"n n J L L L n m m O Y > - : e.C.Z.C.V.C.Z.C.Z.Z.Z.C.C.Z.Z.C.Z.Z.C.C.B.k.0.T T n J 8.a.B.j.Z.Z.l.s.s.s.l.Z.Z.C.Z.Z.Z.Z.C.Z.Z.Z.C.",
"I T 8.-.-.*.> + + + P > , * < j.C.C.B.Z.C.C.C.Z.Z.C.C.C.Z.C.Z.Z.Z.Z.Z.C.C.k.0.T K b T a.:.u.s.9.T T T 0.C.C.C.Z.C.Z.Z.C.C.Z.C.C.",
"9.=.< = 2 2 > + # 5 ( > 2 = = :.N.Z.C.C.C.C.Z.Z.Z.Z.H.Z.C.C.C.Z.Z.Z.Z.Z.Z.B.N.a.8.Y n L 2 - Y b b b J 8.B.Z.C.C.H.J.J.H.Z.C.C.C.",
"-.< < R J J > # # 2 r.P q.2.* , j.C.Z.C.C.C.C.C.C.H.MXJ.H.Z.C.C.Z.C.C.B.h.u.u.i.9.8.Y J > @ n K 8.8.I a.C.C.C.V.mXJXJXmXqXV.Z.C.",
";.e.R b K J + # + = *.q.R j.=.% =.N.C.Z.Z.C.Z.C.C.V.MXMXMXH.Z.Z.Z.Z.B.-.= = *.*.< * : + + X : a.k.k.d.B.C.C.Z.J.JXPXPXLXJXSXH.B.",
"u.8.b K I R ( # ; = *.( U l.u., =.B.C.C.Z.Z.Z.C.C.V.qXSXwXqXZ.C.Z.Z.B.9.-.;.i.i.e.2 > + + @ - 2 q.r.Z.C.C.C.Z.bXLXPXPXPXPXLXFXmX",
"a.I K Y 8.a.q.6 ; = *.U U k.B.e.u.B.Z.Z.Z.Z.C.C.C.J.qXMXwXJ.Z.C.Z.C.C.l.j.N.N.N.l.q.5 # # ; * - > > k.C.C.C.B.nXLXPXPXPXPXPXPXLX",
"T K T T s.z.r.k , * =.U U d.C.C.C.C.Z.Z.Z.C.C.C.Z.J.wXMXwXH.Z.Z.Z.C.Z.Z.Z.Z.Z.B.k.q.> 3 6 1 * , 2 > q.N.V.V.bXbXLXPXPXPXPXPXPXPX",
"b L T 0.N.B.p.k < * =.U ( k.B.C.C.C.C.C.Z.C.C.C.C.Z.qXwXqXqXV.Z.Z.Z.Z.Z.C.Z.V.V.i.> ( 4 9 2.1 * q.( > K.bXbXJXmXPXPXPXPXPXPXPXPX",
"E E 8.l.C.B.3.1.2.* =.> U d.C.C.C.C.B.B.B.B.C.C.C.V.qXqXZ.V.Z.C.Z.Z.Z.C.V.J.bXJ.q.U r.4 k h.*.% r.U 5 SXLXLXPXPXPXPXPXPXPXPXPXPX",
"VX>XMXV.C.B.1.3.e.= =.U U l.C.Z.Z.A.L.L.L.h.h.h.h.z.wXMXV.C.Z.Z.Z.Z.Z.C.nXJXLXUXw.( d.4 ~.z.i.= r.( W AXPXPXPXPXPXPXPXPXPXPXPXPX",
"IXHXMXK.H.A.8 r.u., 2.r.r.N.C.C.B.p.h p p p p q q i i h p.C.Z.Z.Z.Z.Z.V.DXPXLXGX_ /.wX4 ~.z.N.u.u.( W AXPXPXPXPXPXPXPXPXPXPXPXPX",
"PXLXDXDXbXL.9 h.k., 2.z.k.C.Z.C.h._.6.t y y y w w w e x _.z.Z.Z.Z.Z.Z.V.JXPXPXGXW ,X9X4 ~.A.Z.Z.l.( W VXPXPXPXPXPXPXPXPXPXPXPXPX",
"PXLXLXLXmXp.j l.l., ;.N.C.C.C.A.eXrXtXc y y y w w w a &X$X4.z.C.Z.Z.Z.H.DXPXPXHX/.BXvXd ~.V.C.C.B.r.q.FXPXPXPXPXPXPXPXPXPXPXPXPX",
"PXPXPXLXbX3.k N.N.=.i.J.J.Z.Z.A._.uXuX#Xa s u w w r |.pXpX}.).A.Z.C.Z.H.JXPXPXIXGXKX%Xg !.B.C.C.N.l.z.DXPXPXPXPXPXPXPXPXPXPXPXPX",
"PXPXLXUXnX1.!.A.C.j.MXDXmXJ.Z.A.8X_.8XlX7.x a e w c pXpXdXdX5.p.B.Z.H.H.JXPXPXPXPXKX(.g 1.z.B.B.u.u.h.DXPXPXPXPXPXPXPXPXPXPXPXPX",
"PXPXLXFXSXk !.A.Z.J.JXPXLXMXZ.A.8X,.<.uXdX&Xp e u $XpXpXpXhXaX5.F.qXbXJ.SXPXPXPXPXBX^.j 7 i.u.u.-.&.r.DXLXPXPXPXPXPXPXPXPXPXPXPX",
"PXPXPXLXKXk ~.A.V.bXLXPXLXbXH.p._.t.].uXhXx e t |.pX&X&X$Xx pX$X~.UXLXDXbXLXPXPXIX!.d f ; 1 <., * = w.VXBXKXPXPXPXPXPXPXPXPXPXPX",
"PXPXPXPXKXk ~.H.MXJXPXPXLXJXFXh ^.3.t.uX|.r w p &Xx x x  X X*XhX}.ZXIXJXnXDXPXPXIX^.d z ~.8 ; o   o ; 3 8 {.LXPXPXPXPXPXPXPXPXPX",
"PXPXPXPXKXk ~.H.mXLXPXPXPXKX}.r c h h c a w r |.pX$X X|.*X|. XpX&X}.LXLXFXJXPXPXKXk g (.BX8 o o o # 5 8 7 8 BXPXPXPXPXPXPXPXPXPX",
"PXPXPXPXKXz ~.K.mXLXPXPXPXZXp e t r r r e w c pXpX.X X|.x x 7.pXgX X|.KXLXLXPXPXNXd l %XAX5 + # # # /.].w.!.GXPXPXPXPXPXPXPXPXPX",
"PXPXPXPXKX!.^.mXDXLXPXPXKXc w w w w w w w p $XfXpX7..X.X7..X XfXfXfX.X7XPXPXPXKX..d ^.NX/.V $ $ 5 Q ] :XVXBXLXPXPXPXPXPXPXPXPXPX",
"PXPXPXPXDX!.^.IXPXPXPXIX=Xe w e w w e w e x fXCXfX&X*X&XsXfXCXCXCXCXCX|.ZXPXPX%Xf z (.VXQ # $ 6 3 ) ) /.LXPXPXPXPXPXPXPXPXPXPXPX",
"PXPXPXLXSX!.z KXPXPXPXZXr w e e e w e e p pXCXCXCXCXCXCXCXCXgX&X&X&X&X|.}.KXBXf d #XNX/./.j d 8 3 Q Q /.IXPXPXPXPXPXPXPXPXPXPXPX",
"PXPXPXPXKX%Xl KXPXPXHXo.r t t e t e e r |.sXfXfXfXfXfXfXfXgX#Xq 0 0 0 0 r ZXf d l %XKX:XNXf j ~.8 /.W [.LXPXPXPXPXPXPXPXPXPXPXPX",
"PXPXPXPXLX%Xg GXLXHX/.^.6.6.|.6.6.6.6.7.hXpXsXpXsXgXsXsXgXdXrX5.h h h h h z d d ^.GXLXGXk d (.GXAXGXAXHXPXPXPXPXPXPXPXPXPXPXPXPX",
"PXPXPXPXLXNXd %X[.) + 8 tXrX4.8XtXtXlXhXfXfXfXfXfXCXfXfXfXkXlXiX_.!.4.rX#X^.g ^.ZXLXLXZXg l ZXPXLXBXBXHXPXPXPXPXPXPXPXPXPXPXPXPX",
"PXPXPXPXPXGXd l + @ . 5 uX).<.).lXzXzXtXfXaX%XiX).).).%XiXlXzXjXt.<.2.lXjX!.6 /.-XVXKX(.6 l BX;X{ / ` { HXPXPXPXPXPXPXPXPXPXPXPX",
"PXPXPXPXPXKXl 4 . . . 3 uX3.<.t.lXkXlXtXgXyXNX{.,.&.,.).{.lXkXlX<.1 >.xXlX) V V N ! /.# @ W _ M X v H H AXAXKXPXPXPXPXPXPXPXPXPX",
"PXPXPXPXPXKXk 4 . . . 3 uX).3.8XlXkXkXtXgXaXBX0X&.& &.).{.jXkXjX<.&.>.lXlX_ S C M v M v B C B X X B N H <X#.,XHXPXKXLXPXPXPXPXPX",
"PXPXPXPXIXVX3 4 . . . 3 xXkXzXzXzXzXkXtXCXZXNXiX,.,.,.).0XlXkXuX3.&.-.lXlX:X+.O.O.O.O.` ^ ^ S M X v D M N H Z ,XGXVXAXLXPXPXPXPX",
"PXPXPXPXBX+       . . 5 lXkXkXkXkXkXkXtXgXdXaXaXaXyXyXyXyXdXdX%X0X&.=.aXiX6X+.+.+.+.O.O.} [ [ [ ` ` ` ^ N N Z V !.).).AXPXPXPXPX",
"PXPXLXKX) . @ @ + X X W {.lXkXkXkXkXkXtXfXaXaX%XdXfXfXfXdXdXdX%X0X<.t.NXyX6X} } +.` ^ ` ' [ } +.} +.+.[ [ ` F W w.!.).0XKXPXPXPX",
"6X-X<X/.V @ v v M + B M W !.!.~.~.~._._.{.(.{  .%X%X%X%X%XiXNX{.GXSXFXUXBX<XS S S C C Z S S ~ ^ ^ ^ ~ ^ ^ ' ..8 w.w.w.!.<XVXLXPX",
"~ ! ! V V V V V V Q V V V Q { Q Q Q ) Q { [ ` [ | (.|  .{ { /./.:X:X6X6X-X_ G F ^ F S S A C C C C N C A S ~ Q Q ) ) w.) ~ _ -XAX",
"V W ) W ] Q ) ] ..] { {  .[ X.[ ' ' ' ' } } } } | | | } [ ' [  .[ [ } } } [ [ [ } [ ` ` ` ^ ^ C N N C A A A S S ! ! ! ! S A ~ #.",
"w.w.t./.(.!.{.%Xo.!.{.(.oXoXoX1X1X2X1X1XXX| | | oXoXXXXXXXXXXXoX| | | X.XXoXXX| | | | | } ' ` S D S S ! / S A A A A G ~ / / S Z ",
"f.g.f.g.!.1.).VX!.1.).].(.(.5XoXoXoXoXoX+X3X1X1XoXoXoXoXoXoXoXoXoX1XoXoXoXoXoXoXoXoXoXXX[ ` F ~ ~ F Q !.].] F G G G '  .(.(.` S ",
"G.W.W.W.9X).!.).).t.p.t.t.g.cX6X3XoXoXoXoXoXoXoXoXoXoXoXoXoXoXoX1X1XoXoXoXoXoXoXoXoXoXoXXXX.| |  . .| XXXXXXXXXX1X1XoXoXoXoX ./ ",
"E.G.M.G.G.nXW.f.P.K.W.K.nXG.b.W.>X+XoXoX+X1X+XoXoXoXoXoXoXoXoXoXoXoX1XoXoXoXoXoXoXoX1XoXoXoXoXoXoXoXoXoXoXoXoXoX1X1X+XoX3X5X>XcX",
"n.n.n.n.n.m.m.n.m.n.m.R.m.n.n.n.f.'.@XoXoX3XoXoXoXoXoXoXoXoXoXX.OXoXoXoXoXoXoXoXoX1XoX1X1XoXoXoXoXoXoXoXoXoXoXoX2X1X3X6X,XvXnXm.",
"v.v.n.v.v.v.v.v.v.v.n.m.R.R.n.v.v.f.g.`.>XvX,X,X3X1XoXoXoXoXXXX.OX1X1XoXoXoXoXoX1XoXoXoXoXoXoXoXoXoXoXoXoXoX1X6X,XvXcXP.E.R.m.x.",
"v.v.v.v.v.v.v.v.n.n.n.n.T.R.T.m.v.v.v.b.E.R.W.P.9X[.oXOXOXOXXXX.2X1X2XoXoXoXoXoXoXoXoXoXOXoXoX3X4X4X4X3X5X,X>XcXnXQ.Y.v.v.v.v.x.",
"D.D.D.n.v.v.n.v.n.n.n.v.v.v.T.T.n.n.m.m.v.v.c.c.v.g.[.[.[.[.[.[.[.:X:X6X4X3X3XoXoX3X5X6X:X:X,X>X>X>X>X>XvXnXR.T.W.m.n.n.n.n.x.v.",
"U.U.U.D.n.v.v.v.n.n.v.n.v.v.v.n.M.b.R.T.M.n.M.M.c.v.c.b.b.b.b.b.b.b.W.cXvX:X:X:X:X>XvXcXQ.E.Y.n.Y.T.T.T.T.R.R.c.v.n.M.v.v.v.x.v.",
"U.U.U.U.I.I.n.v.v.n.v.v.v.v.n.n.n.v.c.m.m.G.R.R.M.v.n.m.m.m.m.T.G.G.R.b.b.T.E.E.R.T.n.M.R.b.m.m.T.M.M.M.n.M.n.n.M.b.T.c.x.x.x.v.",
"U.U.U.U.U.U.I.D.v.v.v.v.x.x.v.v.c.v.v.n.n.n.n.n.T.T.T.M.n.n.n.n.n.n.n.m.T.T.T.T.m.M.v.v.n.n.n.n.n.v.c.n.n.T.G.R.T.T.c.x.x.v.v.v.",
"U.U.U.U.U.U.U.U.D.v.n.v.v.v.v.x.x.x.x.v.n.v.n.v.M.M.b.R.T.W.m.n.v.v.v.M.M.n.n.n.n.n.v.n.m.m.m.m.m.T.R.m.n.M.b.M.M.M.x.x.x.v.n.D.",
"U.U.U.U.U.U.U.U.U.D.n.v.x.v.x.x.v.v.v.v.v.v.n.n.v.v.n.m.m.m.b.T.R.R.R.M.v.M.R.m.m.b.E.R.M.M.M.M.M.m.m.M.n.v.n.v.x.v.x.x.x.v.v.v.",
"D.I.U.U.U.U.U.U.U.U.I.D.v.v.x.x.x.x.x.x.v.v.v.n.v.v.v.v.v.v.v.m.R.T.R.M.n.n.T.m.m.m.T.T.c.v.v.v.v.v.v.v.D.D.n.v.v.v.v.c.v.D.D.D.",
"S.D.I.I.U.U.U.U.U.U.U.U.I.n.v.v.v.v.v.v.v.v.v.v.S.D.S.S.v.v.v.v.v.c.c.v.v.v.v.v.v.v.v.v.v.v.n.n.D.D.I.I.U.U.I.D.v.v.D.D.I.U.U.I.",
"U.I.D.D.I.I.U.U.U.U.U.U.U.U.U.U.U.I.I.I.I.v.v.S.D.D.I.D.D.D.D.v.v.v.c.c.v.v.v.v.v.v.v.x.x.x.D.U.U.U.U.U.U.U.U.U.U.U.U.U.I.D.S.v.",
"U.U.U.U.I.I.I.I.I.I.U.U.U.U.U.U.U.U.U.U.U.U.U.U.I.U.U.U.U.U.U.U.U.U.U.I.I.D.D.I.I.U.U.U.U.U.U.U.U.U.U.U.U.U.U.U.U.U.U.U.I.I.I.I."
};
