/* XPM */
static char *_5e67f69371147218a93ea3960d30f8d[] = {
/* columns rows colors chars-per-pixel */
"64 64 242 2 ",
"   c #134C0B",
".  c #146F19",
"X  c #286A1B",
"o  c #2F4D2F",
"O  c #177133",
"+  c #346D31",
"@  c #47562D",
"#  c #4A6934",
"$  c #1D5252",
"%  c #2B5353",
"&  c #1B724F",
"*  c #2C704F",
"=  c #29576A",
"-  c #2A5C78",
";  c #32746F",
":  c #2C6778",
">  c #4D5B4B",
",  c #665A4E",
"<  c #516D50",
"1  c #66745C",
"2  c #735F64",
"3  c #546973",
"4  c #747070",
"5  c #C62901",
"6  c #C52B07",
"7  c #D32D07",
"8  c #C53617",
"9  c #CE3D22",
"0  c #B84B38",
"q  c #CB4A33",
"w  c #945452",
"e  c #AC5450",
"r  c #8D6A5E",
"t  c #936F6D",
"y  c #A97474",
"u  c #CD524B",
"i  c #CF5851",
"p  c #CE674D",
"a  c #D47372",
"s  c #32941A",
"d  c #3A8E26",
"f  c #409C1A",
"g  c #48902E",
"h  c #4AA728",
"j  c #54A52C",
"k  c #58A834",
"l  c #66AB3D",
"z  c #6BB03F",
"x  c #198C53",
"c  c #188B57",
"v  c #2B824C",
"b  c #1D8C65",
"n  c #2F8A72",
"m  c #5A924C",
"M  c #6D9255",
"N  c #5CA747",
"B  c #69A846",
"V  c #77AC47",
"C  c #73B149",
"Z  c #438579",
"A  c #739370",
"S  c #78A676",
"D  c #859F57",
"F  c #88B454",
"G  c #8FB05A",
"H  c #8F9174",
"J  c #AD8B7B",
"K  c #9BB767",
"L  c #90AF70",
"P  c #A8B66B",
"I  c #A7B277",
"U  c #B6B677",
"Y  c #D78672",
"T  c #CCB27A",
"R  c #8EC17C",
"E  c #B7CB79",
"W  c #C9D56A",
"Q  c #355389",
"!  c #336A8A",
"~  c #347187",
"^  c #38749A",
"/  c #3B7AA8",
"(  c #556E95",
")  c #646F9E",
"_  c #687696",
"`  c #99799F",
"'  c #C27893",
"]  c #299489",
"[  c #348E91",
"{  c #369AA9",
"}  c #3E84B7",
"|  c #3C9CBB",
" . c #4F918F",
".. c #768B8C",
"X. c #7AA58F",
"o. c #4485B9",
"O. c #4B91B5",
"+. c #758EAE",
"@. c #7AABB9",
"#. c #3F86C1",
"$. c #448AC7",
"%. c #4698CA",
"&. c #4B98D6",
"*. c #5295D5",
"=. c #7097CD",
"-. c #6594D5",
";. c #4CA3D3",
":. c #49A2D9",
">. c #6EAFCF",
",. c #79B6C7",
"<. c #68ACD9",
"1. c #69B7D8",
"2. c #4E9CE6",
"3. c #549EE7",
"4. c #4DA3E7",
"5. c #53A4EE",
"6. c #59A7E9",
"7. c #4CB3E6",
"8. c #4DB6E9",
"9. c #4EB9EB",
"0. c #52B6E5",
"q. c #55B9E7",
"w. c #5BBAE5",
"e. c #51B7E8",
"r. c #53B9E9",
"t. c #5BBBE8",
"y. c #54A5F4",
"u. c #5AA7F4",
"i. c #56A9F5",
"p. c #5AA9F5",
"a. c #55A7F8",
"s. c #57A9FA",
"d. c #4FBCF1",
"f. c #51BEF2",
"g. c #65AAE5",
"h. c #62BEE5",
"j. c #77B3EE",
"k. c #65ADF4",
"l. c #6DAFF0",
"z. c #78B6F3",
"x. c #75C1D5",
"c. c #7AC3D5",
"v. c #53C2F5",
"b. c #53C4F9",
"n. c #6DC4E3",
"m. c #8D928C",
"M. c #A88B89",
"N. c #AE9496",
"B. c #97AE91",
"V. c #B0AC92",
"C. c #BBB998",
"Z. c #8B8FB1",
"A. c #B393B4",
"S. c #8BB1B4",
"D. c #ABB6AA",
"F. c #B7B5A7",
"G. c #AFA7B0",
"H. c #A3BEBC",
"J. c #B3B7B4",
"K. c #BAB9B5",
"L. c #DC8389",
"P. c #DD8894",
"I. c #D19394",
"U. c #E08D96",
"Y. c #E3949E",
"T. c #C5B782",
"R. c #CCBB86",
"E. c #CFBC8A",
"W. c #D4B984",
"Q. c #D3BD8C",
"!. c #D3AF92",
"~. c #DEA69A",
"^. c #C8BD94",
"/. c #D4B296",
"(. c #D7B699",
"). c #D6BD9A",
"_. c #D7BD9A",
"`. c #D8BC99",
"'. c #D898AB",
"]. c #D18DB4",
"[. c #E49BAA",
"{. c #E395B5",
"}. c #CCB1B1",
"|. c #E3AFAC",
" X c #E7A6B7",
".X c #97C387",
"XX c #B4C69C",
"oX c #93C3B5",
"OX c #B8C4A6",
"+X c #B2CFAF",
"@X c #A7C5B8",
"#X c #BAC9B6",
"$X c #C6C199",
"%X c #C9CDB2",
"&X c #DEC8B2",
"*X c #E1CDB6",
"=X c #878EC4",
"-X c #B996C7",
";X c #B493CC",
":X c #8BB9C6",
">X c #9CB3C5",
",X c #9DB3C5",
"<X c #92B5CB",
"1X c #93ADD0",
"2X c #8ABAEA",
"3X c #8DBDEE",
"4X c #CD99C9",
"5X c #D2A9CD",
"6X c #D9B6C7",
"7X c #E9ADC6",
"8X c #E6B6C8",
"9X c #ECB4CC",
"0X c #F0B4C9",
"qX c #E5A5D9",
"wX c #EDB6D0",
"eX c #F1BBD2",
"rX c #DD9CE1",
"tX c #E7A2E7",
"yX c #8DC7CB",
"uX c #B4C8C9",
"iX c #9AC6F0",
"pX c #AFD1F0",
"aX c #C9C9C7",
"sX c #D0D2CD",
"dX c #DBD8D6",
"fX c #E8C9C5",
"gX c #E7DCCC",
"hX c #EADBCD",
"jX c #E9DBD7",
"kX c #D2E2CD",
"lX c #DAE4D8",
"zX c #CADCED",
"xX c #DAE5E6",
"cX c #CFE3F5",
"vX c #D7E7F5",
"bX c #E9E9E7",
"nX c #F0EEEB",
"mX c #E3EDF5",
"MX c #ECF2F7",
"NX c #F4F4F4",
"BX c #F7F8F8",
"VX c #FCFCFC",
/* pixels */
"_._._._._._._._._._._._._._._._.`.`.`.`._._._._._._._._._._._._._._._._._._._._._._._._.`.`.`._._._._._._._._._._._._._._._._._.",
"_._._._._._._._._._._._._._._._._.`.`.`._._._._._._._._._._.`.`.`.`._._.`._._._._._._._.`.`.`._._._._._._._._._._._._._._._._._.",
"_._._._._._._._._._._._._._._._._.`.`.`._._._._._._._._._.`.`.`.`.`.`._._._._._._._._._._.`.`._._._._._._._._._._._._._._._._._.",
"_._._.K.,X,X,X,X,X,X,X,X,X,X,X,X,X,X,X,X,X,X,X,X,X,X,X,X,X,X,X,X,X,X,X,X,X,X,X,X,X,X,X,X,X,X,X,X,X,X,X,X,X,X,X,X,X,X,X,X}._._._.",
"_._._.<Xs.s.s.s.s.s.s.s.s.s.s.s.s.s.s.s.s.s.s.s.s.s.s.s.s.s.s.s.s.s.s.s.s.s.s.s.s.s.s.s.s.s.s.s.s.s.s.s.s.s.s.s.s.s.s.p.J._._._.",
"_._._.<Xs.s.s.s.s.s.s.s.s.s.s.s.s.s.s.s.s.s.s.s.s.s.s.s.s.s.s.s.s.s.s.s.s.s.a.a.a.a.a.s.s.s.s.s.s.s.s.s.s.s.s.s.s.s.s.p.J._._._.",
"_._._.<Xs.s.s.s.s.s.s.s.s.s.s.s.s.s.s.s.s.s.s.s.s.s.s.s.s.s.s.s.s.s.s.s.s.s.y.i.5.5.y.s.s.s.s.s.s.s.s.s.s.s.s.s.s.s.s.p.J._._._.",
"_._._.<Xs.s.a.a.a.a.a.y.y.y.y.a.s.s.s.s.s.s.s.s.s.s.s.s.s.s.s.s.s.i.i.i.i.i.6.,.S.@.<.i.s.s.s.s.s.s.s.s.s.s.s.s.s.s.s.p.J._._._.",
"_._._.<Xs.a.y.2.2.y.y.2.$.$.&.5.a.s.s.s.s.s.s.s.s.i.i.i.i.6.g.<.<.<.<.<.<.>.S.E W W S.u.s.s.s.s.s.s.s.s.s.s.s.s.s.s.s.p.J._._._.",
"_._._.<Xs.a.2.$./ $.$./ ! - / 2.y.s.s.s.s.s.s.i.i.6.g.<.<.>.,.,.,.,.,.,.,.,.S.E W E ,.u.s.s.s.s.s.s.s.s.s.s.s.s.s.s.s.p.J._._._.",
"_._._.<Xs.y.&.^ - : ! = $ = / 2.y.s.s.a.y.i.6.g.<.<.<.>.,.>.<.6.6.6.;.;.:.6.<.,.,.,.6.i.s.s.s.s.s.s.s.s.s.s.s.s.s.s.s.p.J._._._.",
"_._._.<X5.:.%.^ : $ $ $ $ & [ | 5.i.y.i.6.6.6.<.<.6.6.6.6.6.u.i.a.4.{ ] { | ;.6.6.u.i.s.s.s.s.s.s.s.s.s.s.s.s.s.s.s.s.p.J._._._.",
"_._._.S.{ ] ] ] b & $ $ & & c ] :.y.y.5.<.g.6.6.u.i.a.a.s.s.s.s.i.4.[ b x b ] | 4.a.a.a.s.s.s.a.a.a.s.s.s.s.s.s.s.s.s.p.J._._._.",
"_._._.S b c c b c O O O & & & ; %.y.y.i.6.6.i.s.s.s.s.s.s.s.s.s.s.5.%.{ n b c b { :.2.5.y.4.:.:.:.5.s.s.s.s.s.s.s.s.s.p.J._._._.",
"_._._.S b n ; : ; O X + * * $ $ ^ 2.y.y.i.i.s.s.s.s.s.s.s.s.s.s.s.i.a.4.%.{ n x b [ } $.%.{ ] ] [ %.y.s.s.s.s.s.s.s.s.p.J._._._.",
"`._._.X.~ : = ; * + + < ; ; ; = - $.5.y.s.s.s.s.s.s.p.p.p.s.s.s.s.s.s.y.4.&.{ ] b c ; : ; c x x b | y.s.s.k.z.z.k.p.i.u.J._._._.",
"`._._.m.~ : & x * + # * ~ ; ~ ~ = ! &.y.a.s.s.s.s.p.j.2Xj.p.i.s.s.y.2.$.} o.} ^ ; & & O O b ] ] { :.y.s.k.pXvXcXpX3Xk.p.J._._._.",
"`.`.`.Z.[ b x x v + + % : 3  .o.! - $.y.a.s.s.s.i.p.z.pXiXl.p.s.s.y.#.! - ^ ^ ! * + + . O [ O.%.4.y.a.s.z.cXBXBXMXcXiXz.K.`.`.`.",
"`.`.`.S.] x x n [ < > % : ; n %.o.^ $.y.a.s.s.s.s.p.j.iX3Xj.p.s.s.y.&.} } $.%.o.; + + o % ; n O.4.y.a.u.3XvXVXVXBXBXmXcX&X`.`.`.",
"_.`._.X.b c n { O._ < % : ; n &.2.&.2.y.a.a.a.s.s.k.j.3X2Xl.p.s.s.a.y.2.5.y.5.%.n < # % % % ; n %.y.p.k.iXvXVXVXVXBXBXNX&X_._._.",
"_._._.S x b { :.*...3 % : ; Z &.y.a.a.a.a.a.a.a.a.u.j.2X2Xl.p.s.s.s.s.s.y.p.6.O.n < , 3 = = ; ;  .j.3XpXpXmXVXVXVXVXVXBX&X_._._.",
"_._._.S n [ %.5.*._ ( = : ; n &.y.a.a.y.i.y.y.y.y.y.l.2Xj.k.p.s.s.s.s.p.k.z.<. .Z 3 2 _ ! = ~ n ..pXcXmXMXBXVXVXVXVXVXBX&X_._._.",
"_._._.OXoXyXg.y.*.) ( : : ; [ &.y.a.y.-.=.=.-.-.-.-.=.1Xj.u.y.s.s.s.i.z.pXcXuXX. ._ t +.o.! [ Z X.xXBXBXVXVXVXVXVXVXVXBX&X_._._.",
"_._._.gXxXpX2Xk.-.) o.! ! O.O.4.y.y.-.` e e e e w w e y Z.6.y.s.s.s.p.iXmXMXsXS X...t =.2.$.O.Z X.lXBXVXVXVXVXVXVXVXVXBX*X_._._.",
"_._._.gXMXvXzX2X+.) *.^ ^ &.2.y.y.3.=X' u 7 7 7 5 5 6 i N.=.5.a.s.s.p.pXMXNXsXL D.m.t =.i.y.&. .X.lXBXVXVXVXVXVXVXVXVXVX*X_._._.",
"_._._.gXBXNXvX3X+.+.2./ / 3.u.y.y.-.;X4Xa 9 7 7 5 5 q L.'.N.=.u.s.s.p.pXMXBXlX#XaXM.t =.y.y.3.O.@.xXBXVXVXVXVXVXVXVXVXBX&X_._._.",
"_._._.gXBXBXvX1X..+.3.$.=.2X3Xk.u.=.;X4X].a q 8 5 8 a  X7X'.Z.-.u.p.p.pXBXBXNXbXsXM.t =.y.y.2.&.2XmXVXVXVXVXVXVXVXVXVXBX*X_._._.",
"_._._.gXVXNXcX,Xm.+.i.g.iXcXzX3Xu.=.Z.Z.-X'.a q 6 q Y.7X7X XA.Z.g.j.z.pXMXVXBXNXaXy 4 O.&.&.} o.1XmXBXVXVXVXVXVXVXVXVXBX*X_._._.",
"_._._.gXVXBXmXsXM.+.p.z.cXBXmXiXg.=XZ.+.-X{.a 9 q a [. X[.Y.'.A.,XpXpXpXvXBXBXbXN.r 2 ( ^ ! = : +.aXbXNXVXVXVXVXVXVXVXBX*X_._._.",
"_._.`.gXVXBXBXdXM.Z.j.pXmXBXMXzXG.` m.+.A.P.q 8 i P.L.L.U.P.[.'.'.jXmXpXcXNXBXjXM.r t 3 % % o % 3 ..D.xXBXVXVXVXVXVXVXBX*X`.`._.",
"_.`.`.gXVXVXBXdXM.Z.3XcXBXBXNXhXa q e e a u 8 q L.[.L.L.U.P.[. X'.|.nXvXvXBXNXsXy y G.m.> o o > 1 1 ..uXNXVXVXVXVXVXVXBX&X`.`._.",
"_.`.(.hXVXVXBXjXM.Z.iXvXBXBXnX~.q 6 8 8 8 6 8 a  X[.P.P.L.a P.7X X[.fXbXNXBXbX}.t M.K.A # @ # < S m.m.aXNXVXVXVXVXVXVXBX&X/.`._.",
"(.(./.hXVXVXBXdXM.G.zXMXVXNXfXp 6 5 5 5 5 6 u Y.9X XU.U.U.U.[.9XwX X|.jXNXNXsXy t V.D.M # # < M B.D.sXbXBXVXVXVXVXVXVXBX&X/.(.(.",
"(././.hXVXBXMXsXM.}.MXBXBXjXY 8 5 5 5 5 5 9 L.7XeX9X X X7X9X0X0X9X7X[.|.bXjXN.r M.F.B.1 , , < M S #XnXBXVXVXVXVXVXVXVXBX&X/./.(.",
"/././.hXVXBXMXsXN.}.NXBXnX|.q 5 5 5 5 5 6 i  XeXeXeXeXeXeXeX XL.a a a a |.}.r t }.#XV.H w 2 1 A S #XNXVXVXVXVXVXVXVXVXVX&X/././.",
"/././.hXVXVXBXbXN.N.bXbXaXI.i u u u u u i P.7X9XwXwXwXwXwX9X'.e 0 0 0 e J t w M.sXdXF.t t G.D.D.D.dXBXVXVXVXVXVXVXVXVXVX&X/././.",
"/././.hXVXVXBXnXN.M.}.D.A H ].].' ].{.{.{.7X9X9X9X9X9X9X9XqX4XN.y t ' ' y r y }.bXbXN.t V.dXlXsXkXbXBXVXVXVXVXVXVXVXVXVX&X/././.",
"/././.hXVXVXBXNX}.t 4 # X 1 A.Z.` ;XrXtXqX9X8X6X}.A.A.A.5XqXtX-X+.) Z.4XM.r H OXkXaXH r F.+X.XB..X%XnXBXVXVXVXVXVXVXVXVX&X/././.",
"/././.hXVXVXVXNX}.r @     < A._ ) ;XtXtXqX9X6X6XZ.( ( Z.A.rXtX;X( Q Z.4Xm.m m N S S # g M m d f j L kXbXNXBXBXBXVXVXVXVX&X/././.",
"/././.hXVXVXBXNX}.r @     < A.Z.` ;XtXtXqX9X6XaXZ.Q Q ) A.rXtX;X( Q Z.5XB.N g g g g d d s . . s f B R XXkXMXNXNXBXVXVXVX&X/././.",
"/././.hXVXVXNXlXm.> o     < 4XrXrXtXtXtXqXwX8X6XG._ ) Z.-X5XqX-X) ! Z.5XF.K G F F F C C l g d g j h h k R #XaXdXMXBXVXBX&X/././.",
"/././.hXBXBXbXB.+ o o     < A.tXtXtXtXtXqX9X8X6X6X5X5X5X6X9X6XG.+.( Z.6X%XE P K G G G G G F F F F B j j m ..Z.G.xXNXBXBX&X/././.",
"/././.&XlXkX+Xm X X X X . g m.A.].4X4X4X4X}.}.F.}.|.6X}.}.6X6XK.,XS.uXaXOXK F V l l V V F F F F F F F B M _ ..Z.J.lXnXNX&X/././.",
"/././.V.L S M g + g g g d g m H H H H m.m.V.I L I C.C.V.V.V.D.D.#X#X%X%XI C l l k j k k k l l k k l V M M 4 ....S .X+XlX&X/././.",
"/././.H m m m m m M M M M M D D K D V D D G K K P U U P K L L I I I U U K F F F V V B z k h h f h h k k m m M M N N C .X^./././.",
"/././.m.A ..A H m.m.J H m.B.U U T.U U U U U U U U T T.U U U U U U U U U U U P P P P K F V k h h k N k j k k k B B B z B U /././.",
"/././.S.>.>.@.....G.G.m.Z.Z.V.V.^.E.Q.Q.Q.E.R.R.R.Q.Q.E.R.R.E.E.R.R.R.R.R.R.R.R.R.T U G V V l B M m.L V l l C G L I G B U /././.",
"/././.H.1.1.1.@.+.Z.Z.+.@.@.@.@.H.OX^.Q.Q.Q.Q.Q.Q.Q.Q.Q.Q.Q.Q.Q.Q.Q.Q.Q.Q.Q.Q.Q.Q.Q.T.U P P K P I V.V.U U U U T.T.T.I L V./././.",
"/././.,Xw.w.w.1.1.1.1.1.1.1.1.1.1.:XD.^.Q.Q.Q.Q.Q.Q.Q.Q.Q.Q.W.W.Q.Q.Q.Q.Q.Q.Q.Q.Q.Q.Q.R.R.R.T.R.R.R.E.E.E.E.E.Q.E.$X@XoXC./././.",
"/././.:Xe.8.8.e.r.r.e.r.w.h.t.q.e.q.,.D.C.^.$X$X^.Q.Q.Q.Q.Q.T T W.Q.Q.Q.Q.Q.Q.Q.Q.Q.Q.Q.Q.Q.Q.Q.Q.Q.Q.Q.E.$X$XOX@XyXyX1.F./././.",
"/././.:X8.8.8.8.8.9.8.8.8.r.h.h.r.8.q.1.,.yXyXyX@XC.^.Q.Q.Q.T T W.Q.Q.Q.Q.Q.Q.Q.Q.Q.Q.Q.Q.Q.Q.Q.Q.E.$XOX+XuXyXc.1.h.w.0.D./././.",
"/././.:X8.8.8.8.9.8.8.8.8.e.r.t.t.e.8.e.q.w.w.w.1.,.D.C.C.C.C.C.C.C.^.$XQ.Q.Q.Q.E.^.^.^.C.OXOXOXOXOX@XyXc.c.n.q.8.8.7.0.D./././.",
"/././.:Xd.d.9.9.9.8.8.8.8.8.8.8.r.e.e.t.w.e.7.e.7.q.1.,.,.,.,.,.,.:XyX@XOXOXC.OX+X@XyXyX,.,.c.c.c.c.c.n.w.w.r.e.8.7.7.0.D./././.",
"/././.<Xv.v.f.f.9.8.8.8.8.8.8.8.8.8.8.e.q.q.w.t.t.e.e.q.w.w.w.w.w.h.n.x.c.yXyXyXx.n.n.h.w.w.w.q.q.q.w.t.e.e.r.q.7.7.7.0.D./././.",
"/././.<Xb.b.b.v.f.d.9.8.8.7.7.7.7.7.8.8.7.e.e.r.w.w.w.t.r.r.e.e.e.r.q.w.w.w.w.w.e.8.e.e.e.e.e.e.e.e.e.w.w.w.w.e.7.7.7.e.D./././.",
"/././.<Xb.b.b.b.v.v.d.9.8.7.7.7.7.7.7.7.7.8.8.8.e.q.q.t.t.h.q.e.e.e.e.e.e.q.q.e.e.e.e.r.r.r.r.t.t.e.e.q.e.e.7.7.7.7.8.e.D.!././.",
"/./.!.:Xv.b.b.b.b.b.v.f.9.8.7.7.7.7.7.7.7.7.8.8.8.8.8.e.r.q.q.t.h.h.t.e.e.t.t.w.t.h.w.e.e.e.e.r.r.8.8.8.7.7.7.7.7.7.8.e.D.!.!./.",
"/.!.!.:Xd.v.v.v.b.b.b.v.f.f.8.7.7.7.7.7.7.7.8.8.8.8.8.8.8.8.7.r.t.t.r.8.8.r.r.q.q.w.e.7.7.8.8.8.9.9.9.9.8.8.7.7.7.9.d.e.D.!.!./.",
"!././.:Xd.f.f.f.v.v.v.v.v.v.f.9.9.9.9.9.8.8.8.9.9.9.9.9.9.9.8.8.8.7.7.7.8.8.8.8.7.7.7.7.8.9.d.d.d.f.v.v.d.9.9.d.d.f.d.r.D././.!.",
"!././.:Xv.f.f.f.v.v.v.v.v.v.v.v.v.v.v.v.f.f.r.r.r.r.f.f.f.f.f.9.9.8.8.8.8.8.8.8.8.8.8.8.r.v.v.v.v.b.b.v.v.v.v.v.v.f.r.r.D./.!.!.",
"!././.F.H.H.H.H.H.H.H.H.H.H.@XH.H.H.H.H.H.H.H.H.H.H.H.H.H.H.H.H.H.H.H.H.H.H.H.H.H.H.H.H.H.H.H.@X@XH.H.H.H.H.H.H.H.H.H.H.^././.!.",
"/././.`._._._._._._._._._._._._._._._._._._._._._._._._._._._._._._._._._._._._._._._._._._._._._._._._._._._._._._._.`.`./././.",
"/./.`.`._._._._._._._._._._.`._._._._._._._._._._._._._._._._._._._._._._._._._._._._._._._._._._.`.`._._._._._._._._.`._.`.(./.",
"(.`._._._._._._._._._._.`.`.`._._._._._._._._._._._._._._._._._._._._._._._._._._._._._._._._._.`.`.`._._._._._._._._._._.`.`.(."
};
