/* XPM */
static char *_1107d2ff8044c8abde4f06c0359c8e6[] = {
/* columns rows colors chars-per-pixel */
"64 64 236 2 ",
"   c #010101",
".  c #080508",
"X  c #0B0B0B",
"o  c #160306",
"O  c #090816",
"+  c #110914",
"@  c #0F1011",
"#  c #141314",
"$  c #181517",
"%  c #1B1B1B",
"&  c #2A0804",
"*  c #3A0303",
"=  c #260B16",
"-  c #350C13",
";  c #281412",
":  c #221D1B",
">  c #27221E",
",  c #36221D",
"<  c #030427",
"1  c #140625",
"2  c #1B1725",
"3  c #010935",
"4  c #020538",
"5  c #150F37",
"6  c #171632",
"7  c #30152E",
"8  c #262526",
"9  c #2A2A2C",
"0  c #352D28",
"q  c #37312C",
"w  c #2D2C34",
"e  c #3E2C31",
"r  c #383536",
"t  c #430200",
"y  c #4A0600",
"u  c #460D04",
"i  c #550B00",
"p  c #5B0E00",
"a  c #561507",
"s  c #5C1202",
"d  c #4C1512",
"f  c #481616",
"g  c #651300",
"h  c #6A1500",
"j  c #6D1802",
"k  c #751A00",
"l  c #7B1D01",
"z  c #552218",
"x  c #7D2101",
"c  c #612519",
"v  c #722B16",
"b  c #472623",
"n  c #522E32",
"m  c #443A36",
"M  c #553833",
"N  c #662B21",
"B  c #7A3825",
"V  c #4E433A",
"C  c #56443F",
"Z  c #6F473B",
"A  c #7E703D",
"S  c #010C46",
"D  c #041257",
"F  c #0D1350",
"G  c #161858",
"H  c #25144D",
"J  c #32324D",
"K  c #021668",
"L  c #141B61",
"P  c #021A76",
"I  c #152371",
"U  c #292A71",
"Y  c #452D51",
"T  c #4D3C6D",
"R  c #3F4044",
"E  c #3E4672",
"W  c #494747",
"Q  c #5A4D43",
"!  c #535052",
"~  c #635549",
"^  c #695150",
"/  c #69635C",
"(  c #76655B",
")  c #52516F",
"_  c #685A6E",
"`  c #736C6A",
"'  c #6F6971",
"]  c #801F00",
"[  c #842200",
"{  c #8A2703",
"}  c #952901",
"|  c #982A01",
" . c #9B3308",
".. c #8A3515",
"X. c #A42F00",
"o. c #A63101",
"O. c #A83805",
"+. c #B93C01",
"@. c #C33E00",
"#. c #854A3A",
"$. c #924930",
"%. c #AC5228",
"&. c #B25A32",
"*. c #C44305",
"=. c #D34601",
"-. c #DC4B01",
";. c #D95716",
":. c #E34D00",
">. c #EA4F00",
",. c #EC5201",
"<. c #E55409",
"1. c #F45501",
"2. c #F95700",
"3. c #FE5900",
"4. c #F45A09",
"5. c #E75E15",
"6. c #F06419",
"7. c #D06D3D",
"8. c #E27233",
"9. c #88554B",
"0. c #965846",
"q. c #85565B",
"w. c #A45D4A",
"e. c #886E5F",
"r. c #996A5B",
"t. c #967055",
"y. c #A66759",
"u. c #B46B56",
"i. c #B9556C",
"p. c #877667",
"a. c #8E706B",
"s. c #A67A67",
"d. c #B77765",
"f. c #AB7974",
"g. c #CC7549",
"h. c #C67963",
"j. c #9B816E",
"k. c #9C8576",
"l. c #B48A6E",
"z. c #A48978",
"x. c #AD957E",
"c. c #B5957C",
"v. c #CC826C",
"b. c #D2836C",
"n. c #CF9067",
"m. c #C98873",
"M. c #D78B75",
"N. c #C7977B",
"B. c #D7937C",
"V. c #E39576",
"C. c #C4A77E",
"Z. c #CFAD7B",
"A. c #001E88",
"S. c #08238C",
"D. c #162A83",
"F. c #052397",
"G. c #253596",
"H. c #132FAE",
"J. c #3E4E9F",
"K. c #565587",
"L. c #735A8A",
"P. c #776D95",
"I. c #5057AC",
"U. c #646DB8",
"Y. c #1139D4",
"T. c #133EE4",
"R. c #2C49CE",
"E. c #1441EB",
"W. c #2C51E1",
"Q. c #435DD6",
"!. c #7178C4",
"~. c #907A87",
"^. c #877FA0",
"/. c #968C91",
"(. c #AA9686",
"). c #B79A86",
"_. c #A28E90",
"`. c #B59D9A",
"'. c #B9A387",
"]. c #B8A693",
"[. c #938AA9",
"{. c #A897A3",
"}. c #A6A5A5",
"|. c #C89A87",
" X c #D99A85",
".X c #E29D87",
"XX c #C6A48B",
"oX c #C9A78B",
"OX c #D7A48C",
"+X c #D4B28D",
"@X c #CDAC93",
"#X c #CAA79A",
"$X c #D3AF93",
"%X c #D7A895",
"&X c #CCB293",
"*X c #CFB698",
"=X c #D5B296",
"-X c #D6B897",
";X c #D6B699",
":X c #D5BD99",
">X c #D7BC98",
",X c #D6BC9A",
"<X c #D7BD9A",
"1X c #D7BD9C",
"2X c #D8BA9A",
"3X c #D8BC98",
"4X c #E6A78C",
"5X c #E5AA94",
"6X c #EAB19C",
"7X c #C9B6A8",
"8X c #D3B1AA",
"9X c #D8B9A8",
"0X c #E8BAA5",
"qX c #F2BFA8",
"wX c #DBC2AF",
"eX c #DAC5B8",
"rX c #EDC1AC",
"tX c #F4C4AE",
"yX c #E4C4B2",
"uX c #EACBB9",
"iX c #F3CAB6",
"pX c #F7CBB5",
"aX c #F3CEBA",
"sX c #E8D0BE",
"dX c #F7D1BC",
"fX c #FCD4BE",
"gX c #D7CAC3",
"hX c #ECD4C8",
"jX c #ECD6C8",
"kX c #FCD6C1",
"lX c #F8DAC8",
"zX c #E8DAD3",
"xX c #EEE0D4",
"cX c #F8E5D8",
"vX c #F9ECE3",
"bX c #F9F3ED",
/* pixels */
"<X<X<X<X<X<X<X<X<X<X<X<X<X<X<X<X3X3X3X3X<X<X<X<X<X<X<X<X<X<X1X1X1X1X<X<X<X<X<X<X<X<X<X<X<X3X3X<X<X<X<X<X<X<X<X<X<X<X<X<X<X<X<X<X",
"<X<X<X<X<X<X<X<X<X<X<X<X<X<X<X<X<X3X3X3X<X<X<X<X<X<X<X<X<X<X<X<X<X<X<X<X<X<X<X<X<X<X<X<X<X3X3X<X<X<X<X<X<X<X<X<X<X<X<X<X<X<X<X<X",
"<X<X<X<X<X<X<X<X<X<X<X<X<X<X<X<X<X3X3X3X<X<X<X<X<X<X<X1X1X<X<X<X<X<X<X1X1X<X<X<X<X<X<X<X<X<X3X<X<X<X<X<X<X<X<X<X<X<X<X<X<X<X<X<X",
"<X<X<X<X<X<X<X<X<X<X<X<X<X<X<X<X<X3X<X<X<X<X<X<X<X<X<X1X<X<X=X=X=X=X<X2X1X<X<X<X<X<X<X<X<X<X<X<X<X<X<X<X<X<X<X<X<X<X<X<X<X<X<X<X",
"<X<X<X<X<X<X<X<X<X<X<X<X<X<X<X<X<X<X<X<X<X<X<X<X<X<X<X3X<X;X=X=X=X=X=X<X2X<X<X<X<X<X<X<X<X<X<X<X<X<X<X<X<X<X<X<X<X<X<X<X<X<X<X<X",
"<X<X<X<X<X<X<X<X<X<X<X<X<X<X<X<X<X<X<X&X<X<X<X<X<X<X2X<X;X=X=X=X=X=X=X;X<X2X<X<X<X<X<X<X<X<X<X<X<X<X<X<X<X<X<X<X<X<X<X<X<X<X<X<X",
"<X<X<X<X<X<X<X<X<X<X<X<X<X<X<X<X<X<X'./ <X<X<X<X<X2X2X=X=X=X=X$X$X=X=X=X=X2X<X<X<X<X<X<X<X<X<X<X<X<X<X<X<X<X<X<X<X<X<X<X<X<X<X<X",
"<X<X<X<X<X<X<X<X<X<X<X<X<X<X<X<X<X*XV p.<X<X<X'.( Q m q 9 8 : 0 ~ ).=X=X=X2X2X2X1X<X<X<X<X<X<X<X<X<X<X<X<X<X<X<X<X<X<X<X<X<X<X<X",
"<X<X<X<X<X<X<X<X<X<X<X<X<X<X<X<X<Xp.$ '.<X'.Q 9 R ! R 8 X . V a.oX=X=X=X=X=X=X2X2X<X<X<X<X<X<X<X<X<X<X<X<X<X<X<X<X<X<X<X<X<X<X<X",
"<X<X<X<X<X<X<X<X<X<X<X<X<X<X<X<X(.8 > oX).0 J ' / 8 .   : k.@X=X=X=X=X=X=X=X=X=X2X<X<X<X<X<X<X<X<X<X<X<X<X<X<X<X<X<X<X<X<X<X<X<X",
"<X<X<X<X<X<X<X<X<X<X<X<X<X<X<X&X/   0 x.q W ' W @     > c.$X=X=XXX).=X=X=X$X=X=X;X2X<X<X<X<X<X<X<X<X<X<X<X<X<X<X<X<X<X<X<X<X<X<X",
"<X<X<X<X<X<X<X<X<X<X<X<X<X<X<X(.r   % 0 9 R r @     > c.=X=X=XXXV e.=X=X$X$X=X=X=X=X<X<X1X1X<X<X<X<X<X<X<X<X<X<X<X<X<X<X<X<X<X<X",
"<X<X<X<X<X<X<X<X<X<X<X<X<X<X<Xp.>         .         Q @X=X=X).r # j.=X=X=X=X=X=X=X=X;X<X2X1X1X<X<X<X<X<X<X<X<X<X<X<X<X<X<X<X<X<X",
"<X<X<X<X<X<X<X<X<X<X<X<X&X'.<X` %                     q z.e.W % : x.).XX$X=X=X=X$X=X=X=X<X<X<X<X<X<X<X<X<X<X<X<X<X<X<X<X<X<X<X<X",
"<X<X<X<X<X<X<X<X<X<X<X<X'.~ <X` $                       # 9 8   X q r 0 q ~ c.=X$X$X=X=X=X<X<X<X<X<X<X<X<X<X<X<X<X<X<X<X<X<X<X<X",
"<X<X<X<X<X<X<X<X<X<X<X<XXX> './ #       .   : 0 ;         $   X w W J 9 % @ $ V z.$X=X=X=X=X<X2X<X<X<X<X<X<X<X<X<X<X<X<X<X<X<X<X",
"3X<X<X<X<X<X<X<X<X<X<X<X&X% q ~ @     # 8 # ).0Xm.b           X .     . m p.c.XX$X=X=X=X=X=X;X2X<X<X<X<X<X<X<X<X<X<X<X<X<X<X<X<X",
"3X3X3X<X<X<X<X<X<X<X<X1X*Xq   # # # $ M  Xe.Q |.V.#.  .             * 5 K ~.=X=X=X=X=X=X=X=X=X;X<X<X<X<X<X<X<X<X<X<X<X<X<X<X3X3X",
"3X3X<X<X<X<X<X<X<X<X<X1X-XQ       : r X |.yXQ C B.#.q z.m       & s k d 3 J ].=X=X=X=X=X=X*X#XXX=X<X<X<X1X<X<X<X<X<X<X<X<X3X3X3X",
"3X3X<X<X<X<X<X<X<X<X1X1X<X`     . y.r X 0 ~ }.eX.X0.s.m.9.    o u i j j + 6 (.=X=X=X=X=X=X7XOX|.=X=X<X<X1X<X<X<X<X<X<X<X<X<X<X<X",
"<X<X<X<X<X<X<X<X<X<X<X<X<X(.9 . , %X).( 9 W bXzX4Xh.h.h.r..       o & i u 2 ).=X=X;X9X9X9XhX5X@X=X=X=X<X2X<X<X<X<X<X<X<X<X<X<X<X",
"<X<X<X<X<X<X<X<X<X<X<X<X;X@X` w 0 M r.|.Q _.gX9X6Xb.u.w.r.. b Z o t y p p w eXeX7X9X%XiXyXuXwXOX$X=X=X;X<X<X<X<X<X<X<X<X<X<X<X<X",
"<X<X<X<X<X<X<X<X<X2X<X=X=X).x.W . ^ /.r.5X;XhXfXtXb.u.d.d.d.v.OXn a g p p e.qXqX!.R.P..X|.9X%X9X$X$X=X=X=X2X<X<X<X<X<X<X<X<X<X<X",
"<X<X<X<X<X<X<X1X2X2X;X=X=X@Xp.r   W 7X#XqXiXeXdXpXb.u.B.d.b.M.%Xq.= { h g d.v.h.I.T.G.a.d.|.|.|.$X$X=X=X=X=X<X<X<X<X<X<X<X<X<X<X",
"<X<X<X<X<X<X<X<X;X=X=X=X=X=X$X).q % hX#Xd.7X^ ).fXM.u.M.m.m.|.aXs.3 { h g 0.B.B.L.F.P 6 v.y.d.XX$X$X=X=X=X=X=X2X2X<X<X<X<X<X<X<X",
"<X<X<X<X<X<X<X2X=X=X=X=X=X=X=X=X@X( 8XkX#Xn d r.fXM.h.V.M.%X9XiX^ S z k a z h.h.y.J < 2 ( XX=X=X=X=X=X=X=X=X=X=X2X<X<X<X<X<X<X<X",
"<X<X<X<X<X<X<X;X=X=X=X=X=X=X=X=X=X=X9XkX0Xq.i.8XtXh.v.5X4Xm.hXqXU 4 1 x q 8 d.h. X|.z.).=X=X=X=X=X=X=X=X=X=X=X=X;X2X2X<X<X<X<X<X",
"<X<X1X1X3X<X=X=X=X$X=X=X=X=X=X=X=X=X=X;XuXuXyXiX4X%XiXtXiXB.yX#XP < 3 ..W % z.9X=X=X=X=X=X=X=X=X=X=X=X=X=X=X=X=X=X=X<X2X1X1X<X<X",
"<X<X1X2X<X;X=X=X=X=X=X=X=X=X=X=X=X=X=X8.y.xXhX0X5X XN.8X0X0X#XK.D S D ../ # p.=X=X=X=X=X=X=X=X=X=X=X=X$X=X=X=X=X=X=X;X<X2X<X<X<X",
"<X<X<X<X=X=X=X=X=X=X=X=X=X=X=X=X=X=X$X5.g.vXlXfXtXB.h.sXiXv.T D K P 3 [ ` # e.=X=X=X=X=X=X=X=X=X=X=X=X=X=X=X=X=X=X=X=X=X<X<X<X<X",
"1X<X<X=X=X=X=X$X=X=X=X=X=X=X=X=X=X=Xn.<.4.V.8X0X X|.0X8X~.U A.A.A.K . } z m Z =X=X=X=X=X=X=X=X=X@X$X$X).).$X=X=X$X=X=X=X=X<X<X1X",
"2X<X;X=X=X=X$X$X=X=X=X=X=X=X=X=X=X=X8.2.1.2.;.9._ P.) G.S.F.A.A.P 3 . | [ * v =X=X=X=X=X=X=X=X@X_ ! _ J ).=X=X=X$X$X=X=X=X=X<X2X",
"2X;X=X=X=X=X=X=X=X=X=X=X=X=X=X=X=XOX5.3.3.3.1.:.,.*...Y L P P D 3 3 & } h * b s.).k.K.I.U.[._.L.F 4 H (.=X=X=X=X=X=X=X=X=X=X;X2X",
";X=X=X=X=X=X=X=X=X=X=X=X=X=X=X=X@X8.2.3.3.3.3.-.@.=.>.,.-.O.v f = + a l i * = * 7 L U.[.`.`.{.^.P._ _.=X=X=X=X=X=X=X=X=X=X=X=X;X",
"=X=X=X=X=X=X=X=X=X=X=X=X=X=X=X=Xg.:...c j O.2.3.3.3.3.2.1.3.3.2.*.0.s.s.z o 1 < 1 * 9.@X=X=X=X=X=X=X=X=X=X=X=X=X=X=X=X=X=X=X=X=X",
"=X=X=X=X=X=X=X=X=X=X=X=X=X=X=X|.B D P K K 3 u *.3.3.:.,.l o.:.6.5XyXB.OXZ . O - t t y 0.=X=X=X=X=X=X=X=X=X=X=X=X=X=X=X=X=X=X=X=X",
"=X=X=X=X=X=X=X=X=X=X=X=X=X=X=X|.Y P F.F.P K D 6 +.2.o.:.} 1.4.4XwXtX%XOX|.- s k g t t a XX=X=X=X=X=X#X=X=X=X=X=X=X=X=X=X=X=X=X=X",
"=X=X=X=X=X=X=X=X=X=X=X=X=X=X=X@XE S.P S.D.I D.I <  .l o.@.*.0.9XdXhXrXv.h.B l h i i t t #.@X@X{.U.W.T.I.@X=X=X=X=X=X=X=X=X=X=X=X",
"=X=X=X=X=X=X=X=X=X=X=X=X=X=X=X@XJ.S.) _.f.l.gX#Xq., u x { s #XdXyXaXiXOX X$.{ [ h g y t u Q K.H.T.E.T.H./.=X=X=X=X=X=X=X=X=X=X=X",
"=X=X=X=X=X=X=X=X=X=X=X=X=X=X=X`.U 2 OX X5XhXbXkX4X#.& j j I.kXiXfXkXzXN.u.n f >.X.k i t & 4 F.E.E.T.E.E.Q.#X=X=X=X=X=X=X=X=X=X=X",
"=X=X=X=X=X=X=X=X=X=X=X=X=X=X=XXXw 6 hXqXB.zXbXkX5X0.f f U !.fXkXkXaXrX0Xh.$.; < 7 7 H G K S.I ) `.=X@X`.[.@X=X=X=X=X=X=X=X=X=X=X",
"=X=X=X=X=X=X=X=X=X=X=X=X=X=X=X$Xj.J {.kX6XxXvXdX.Xd.I.H.Y.G.iXkXfXfXyXm.&.<.-. .7 4 4 1 = D - # t.=X=X=X=X=X=X=X=X=X=X=X=X=X=X=X",
"=X=X=X=X=X=X=X=X=X=X=X=X=X=X=X=X$X=XwXaXrXhXxXsXhXzXQ.T.E.Y.~.fXfX0XM.g.4.3.3.3.} k y t u K , S r $X=X=X=X=X=X=X=X=X=X=X=X=X=X=X",
"=X=X=X=X=X=X=X=X=X=X=X=X=X=X=X=X$X=XuXaXrXhXcXcXlXhXQ.Y.T.F.L ~.tX X7.<.3.3.3.2.] k t t u G J ! J C.=X=X=X=X=X=X=X=X=X=X=X=X=X=X",
"=X=X=X=X=X=X=X=X=X=X=X=X=X=X=X=X=X=XsXiXrXlXpX0X X X!.F.D 4 4 < 2 B =.,.3.3.3.,.k h t i y z ' ) A N.=X=X=X=X=X=X=X=X=X=X=X=X=X=X",
"=X=X=X=X=X=X=X=X=X=X=X=X=X=X=X=X=X;XuXdXiX6X X|.eXvXzXR.S < O $ ( g.=.,.2.3.3.=.k h h i p i N s.C.$X=X=X=X=X=X=X=X=X=X=X=X=X=X=X",
"=X=X=X=X=X=X=X=X=X=X=X=X=X=X=X=X=X<XsXaXfXlXcXcXcXkXkX9XT 4 + k.+X&.2.:.-.3.3.+.l X.g t h y t c XX=X=X=X=X=X=X=X=X=X=X=X=X=X=X=X",
"=X=X=X=X=X=X=X=X=X=X=X=X=X=X=X=X=X<XsX9XdXlXkXfXfXpX6XB.h.s.'.-XoX%.3.2.+.:.1.o.o.} h t h p t y N XX=X=X=X=X=X=X=X=X=X=X=X=X=X=X",
"=X=X=X=X=X=X=X=X=X=X=X=X=X=X=X=X<X<XwXlXfXfXfXtX5X.Xb.h.N.-X<X<X&X&.3.3.:.| { [ o.=.g * g g i p i B l.=X=X=X=X=X=X=X=X=X=X=X=X=X",
"=X=X=X=X=X=X=X=X$X$X=X=X=X=X=X<X<X<X1XzXeXaX5XM.h.h.m.&X<X<X<X<X<Xg.3.3.3.:.}  .,.=.p * t h g h s h a c.=X=X$X$X$X=X=X=X=X=X=X=X",
"=X=X=X=X=X=X=X=X$X$X=X=X=X=X<X<X<X<X<XeXyX%XoXXXoX=X<X<X<X<X<X<X3XB.3.3.3.3.3.2.>.[ t g g ] | p l g y t.=X$X$X$X$X=X=X=X=X=X=X=X",
"=X=X=X=X=X=X=X=X$X$X=X=X=X<X2X2X<X<X<X<X<X<X<X<X<X<X<X<X<X<X<X<X3X+X1.3.3.3.3.3.} y c 7.-.,.[ k X.g y #.=X=X$X$X$X=X=X=X=X=X=X=X",
"=X=X=X=X=X=X=X=X$X=X=X=X2X2X1X1X<X<X<X<X<X<X<X<X<X<X<X<X<X<X<X<X<X<Xl.;.,.2.:.} s B c.=Xg.<.| [ X.g t C &X=X=X$X=X=X=X=X=X=X=X=X",
"=X=X=X=X=X=X=X=X=X=X=X<X<X1X1X<X<X<X<X<X<X<X<X<X<X<X<X<X<X<X<X<X<X<X<Xl.$.| { B s.@X<X<X-X7.=.+.x s - < p.=X=X=X=X=X=X=X=X=X=X=X",
"=X=X=X=X=X=X=X=X=X=X<X<X<X<X<X<X<X<X<X<X<X<X<X<X<X<X<X<X<X<X<X<X<X<X<X<X-XoX=X<X<X<X<X<X<XOX6.,. .a w P 6 z.;X=X=X=X=X=X=X=X=X=X",
"=X$X=X=X=X=X=X=X=X<X<X<X<X<X<X<X<X<X<X<X<X<X<X<X<X<X<X<X<X<X<X<X<X<X3X3X3X3X3X<X<X<X<X<X<X<XZ.n.c.' ! E G e <X;X=X=X=X=X=X=X=X=X",
"=X$X$X$X$X=X=X=X<X2X<X<X<X<X<X<X<X<X<X<X<X<X<X<X<X<X<X<X<X<X<X<X<X3X3X<X<X<X<X<X<X<X<X<X<X<X<X<X<X<X_.^ n F l.<X-X=X=X=X$X$X$X=X",
"=X$X$X$X=X=X=X<X<X<X<X<X<X<X<X<X<X<X<X<X<X<X<X<X<X<X<X<X<X<X<X<X<X3X<X<X<X<X<X<X<X<X<X<X<X<X<X<X<X<X<X]._ J J &X<X=X=X=X=X$X$X=X",
"$X=X=X=X=X=X<X<X<X<X<X<X<X<X<X<X<X<X<X<X<X<X<X<X<X<X<X<X<X<X<X<X<X<X<X<X<X<X<X<X<X<X<X<X<X<X<X<X<X<X<X<X]./ ! C.<X<X-X=X=X=X=X$X",
"$X=X=X=X=X<X2X<X<X<X<X<X<X<X<X<X<X<X<X<X<X<X<X<X<X<X<X<X<X<X<X<X<X<X<X<X<X<X<X<X<X<X<X<X<X<X<X<X<X<X<X<X<X*XZ.1X<X<X<X;X=X=X=X$X",
"$X=X=X=X<X<X<X<X<X<X<X<X<X<X<X<X<X<X<X<X<X<X<X<X<X<X<X<X<X<X<X<X<X<X<X<X<X<X<X<X<X<X<X<X<X<X<X<X<X<X<X<X<X<X<X<X<X<X<X<X=X=X=X$X",
"=X=X=X<X2X<X<X<X<X<X<X<X<X<X<X<X<X<X<X<X<X<X<X<X<X<X<X<X<X<X<X<X<X<X<X<X<X<X<X<X<X<X<X<X<X<X<X<X<X<X<X<X<X<X<X<X<X<X<X<X<X=X=X=X",
"=X=X<X<X2X<X<X<X<X<X<X<X<X<X3X<X<X<X<X<X<X<X<X<X<X<X<X<X<X<X<X<X<X<X<X<X<X<X<X<X<X<X<X<X<X<X<X<X<X3X3X<X<X<X<X<X<X<X<X2X2X<X;X=X",
";X<X2X2X1X<X<X<X<X<X<X<X3X3X3X<X<X<X<X<X<X<X<X<X<X<X<X<X<X<X<X<X<X<X<X<X<X<X<X<X<X<X<X<X<X<X<X<X-X3X3X<X<X<X<X<X<X<X<X1X2X<X<X;X"
};
