/* XPM */
static char *_0d8f98d7f824a90b65b3a24de467595[] = {
/* columns rows colors chars-per-pixel */
"64 64 230 2 ",
"   c #010101",
".  c #0A0706",
"X  c #0D0C0C",
"o  c #170C09",
"O  c #11100D",
"+  c #0F0F10",
"@  c #121213",
"#  c #1A1818",
"$  c #261C1B",
"%  c #0A0B30",
"&  c #170834",
"*  c #36172A",
"=  c #2E1E35",
"-  c #3B1C35",
";  c #292828",
":  c #342A26",
">  c #362B35",
",  c #363637",
"<  c #4E1913",
"1  c #691B08",
"2  c #791E04",
"3  c #40231C",
"4  c #7B2308",
"5  c #6A2416",
"6  c #762A13",
"7  c #55102E",
"8  c #592636",
"9  c #533D3C",
"0  c #6F2C2E",
"q  c #793828",
"w  c #673637",
"e  c #49433B",
"r  c #55473D",
"t  c #69443A",
"y  c #030649",
"u  c #19154C",
"i  c #050E59",
"p  c #06115F",
"a  c #1B1654",
"s  c #192457",
"d  c #3A244B",
"f  c #3D3E41",
"g  c #2B2657",
"h  c #352E55",
"j  c #081568",
"k  c #0E1E70",
"l  c #251E66",
"z  c #132268",
"x  c #0E227E",
"c  c #15277B",
"v  c #2D2F69",
"b  c #393969",
"n  c #252D70",
"m  c #263275",
"M  c #373B77",
"N  c #452E4C",
"B  c #553849",
"V  c #583855",
"C  c #603546",
"Z  c #7E3F46",
"A  c #4B3B63",
"S  c #483C72",
"D  c #3F4145",
"F  c #3E416E",
"G  c #484748",
"H  c #4D5154",
"J  c #585158",
"K  c #664948",
"L  c #7A4345",
"P  c #645549",
"I  c #6A4956",
"U  c #675C56",
"Y  c #735856",
"T  c #6F6153",
"R  c #796557",
"E  c #564575",
"W  c #545070",
"Q  c #6B5866",
"!  c #795965",
"~  c #746A68",
"^  c #716B6D",
"/  c #6F687A",
"(  c #8C2807",
")  c #872708",
"_  c #8C2B0A",
"`  c #962C07",
"'  c #9A2E07",
"]  c #942D09",
"[  c #9B2F08",
"{  c #9F3007",
"}  c #9C310C",
"|  c #882B10",
" . c #8C3314",
".. c #87381D",
"X. c #9B3613",
"o. c #A3320A",
"O. c #A7350B",
"+. c #AC360B",
"@. c #B33A0D",
"#. c #BE3F0F",
"$. c #AD3C13",
"%. c #B63D12",
"&. c #BA3D11",
"*. c #893725",
"=. c #943E23",
"-. c #A13E27",
";. c #A9451D",
":. c #BD4317",
">. c #8D442A",
",. c #874B35",
"<. c #974A31",
"1. c #99583B",
"2. c #A64627",
"3. c #B2492D",
"4. c #A85637",
"5. c #A8613F",
"6. c #C34214",
"7. c #CB4514",
"8. c #C7481A",
"9. c #D44A16",
"0. c #DB4C17",
"q. c #D44C1A",
"w. c #DC4E19",
"e. c #DF511D",
"r. c #E04F19",
"t. c #E4511B",
"y. c #EB551C",
"u. c #F0561D",
"i. c #F5591E",
"p. c #CB5328",
"a. c #DA5727",
"s. c #E35724",
"d. c #F75B20",
"f. c #C86339",
"g. c #DC6536",
"h. c #E06433",
"j. c #88574B",
"k. c #8E5753",
"l. c #A25E48",
"z. c #986753",
"x. c #996458",
"c. c #A4644B",
"v. c #B16953",
"b. c #A8745B",
"n. c #B8785C",
"m. c #8C7468",
"M. c #957968",
"N. c #8D6C76",
"B. c #887974",
"V. c #967773",
"C. c #A67A64",
"Z. c #B77A69",
"A. c #AD7A77",
"S. c #CD734D",
"D. c #C57D72",
"F. c #8F806C",
"G. c #97816A",
"H. c #888178",
"J. c #9A8773",
"K. c #B4846D",
"L. c #AC8978",
"P. c #B88875",
"I. c #BC957A",
"U. c #CD805B",
"Y. c #C78369",
"T. c #C78772",
"R. c #D28B75",
"E. c #CA977C",
"W. c #DC907A",
"Q. c #0F2381",
"!. c #384492",
"~. c #3A4EAB",
"^. c #484987",
"/. c #57598C",
"(. c #4E5897",
"). c #635B84",
"_. c #706683",
"`. c #8D7586",
"'. c #8E8C8C",
"]. c #958484",
"[. c #B08F8D",
"{. c #AB9887",
"}. c #B49B83",
"|. c #BC9B84",
" X c #B49A88",
".X c #B8A187",
"XX c #BDA48B",
"oX c #BCA494",
"OX c #ACA4A0",
"+X c #B7ACA8",
"@X c #C89C86",
"#X c #D69A86",
"$X c #CC9C91",
"%X c #E29983",
"&X c #C8A486",
"*X c #C3A48C",
"=X c #CBA58B",
"-X c #C4AC8E",
";X c #CBAA8E",
":X c #D1A48C",
">X c #C6B08F",
",X c #C9A594",
"<X c #C4AB92",
"1X c #CCAC92",
"2X c #D3AF93",
"3X c #D7AC99",
"4X c #CBB394",
"5X c #CBB496",
"6X c #D5B296",
"7X c #D2B997",
"8X c #D6B699",
"9X c #DAB59B",
"0X c #D6BD9A",
"qX c #D8BB99",
"wX c #E6A993",
"eX c #C6AAAA",
"rX c #C7B2A6",
"tX c #D4B4A5",
"yX c #DBB8A6",
"uX c #E9B8A3",
"iX c #E4BEAA",
"pX c #F3BFA9",
"aX c #D8C2B3",
"sX c #E8C3AE",
"dX c #F2C3AE",
"fX c #E9C8B5",
"gX c #F3CBB6",
"hX c #FBD3BD",
"jX c #EED3C2",
"kX c #F6D6C4",
/* pixels */
"0X0X0X0X0X0X0X0X0X0X0X0X0X0X0X0XqXqXqXqX0X0X0X0X0X0X0X0X0X0X0X0X0X0X0X0X0X0X0X0X0X0X0X0XqXqXqX0X0X0X0X0X0X0X0X0X0X0X0X0X0X0X0X0X",
"0X0X0X0X0X0X0X0X0X0X0X0X0X0X0X0X0XqXqXqX0X0X0X0X.XF.-X0X0X0X}.5XqXqX0X0X0X0X0X0X0X0X0X0XqXqXqX0X0X0X0X0X0X0X0X0X0X0X0X0X0X0X0X0X",
"0X0X0X0X0X0X0X0X0X0X0X0X0X0X0X0X0XqXqXqX0X0X0X0X0X: # U {.qXP M.qXqXqX0X0X0X0X0X0X0X0X0X0XqXqX0X0X0X0X0X0X0X0X0X0X0X0X0X0X0X0X0X",
"0X0X0X0X0X0X0X0X0X0X0X0X0X0X0X0X0XqX0X0X0X0X0X0X0XJ.X X D H.r ; XX8XqXqX0X0X0X0X0X0X0X0X0X0XqX0X0X0X0X0X0X0X0X0X0X0X0X0X0X0X0X0X",
"0X0X0X0X0X0X0X0X0X0X0X0X0X0X0X0X0X0X0X0X0X0X0X}.F..X9   + H , @ H.6X6XqXqX0X0X0X0X0X0X0X0X0X0X0X0X0X0X0X0X0X0X0X0X0X0X0X0X0X0X0X",
"0X0X0X0X0X0X0X0X0X0X0X0X0X0X0X0X0X0X0X0X>XJ., ; D , e     # f + ^ 1X6X8XqXqXqX0X0X0X0X0X0X0X0X0X0X0X0X0X0X0X0X0X0X0X0X0X0X0X0X0X",
"0X0X0X0X0X0X0X0X0X0X0X0X0X0X0X0X0X0X0X>Xe .   # , G H X         f ~ XX6X6XqXqX0X0X0X0X0X0X0X0X0X0X0X0X0X0X0X0X0X0X0X0X0X0X0X0X0X",
"0X0X0X0X0X0X0X0X0X0X0X0X0X0X0X0X0X0X0X0X4XR X     . @             @ H *X6X8XqXqX0X0X0X0X0X0X0X0X0X0X0X0X0X0X0X0X0X0X0X0X0X0X0X0X",
"0X0X0X0X0X0X0X0X0X0X0X0X0X0X0X0X0X0X0X0X0X5XF., .                   @ ~ oX<X8XqXqX0X0X0X0X0X0X0X0X0X0X0X0X0X0X0X0X0X0X0X0X0X0X0X",
"0X0X0X0X0X0X0X0X0X0X0X0X0X0X0X0X0X0X0X0X-Xr ; , ; X       . . @       ; G J ~ B. X7XqX0X0X0X0X0X0X0X0X0X0X0X0X0X0X0X0X0X0X0X0X0X",
"0X0X0X0X0X0X0X0X0X0X0X0X0X0X0X0X0X0X0X7Xr O             X > . ; $ #         . ; P }.qX0X0X0X0X0X0X0X0X0X0X0X0X0X0X0X0X0X0X0X0X0X",
"0X0X0X0X0X0X0X0X0X0X0X0X0X0X0X0X0X0X0X7XI.J.T ;       . $ r X m.K P #       , J.1X8XqXqX0X0X0X0X0X0X0X0X0X0X0X0X0X0X0X0X0X0X0X0X",
"0X0X0X0X0X0X0X0X0X0X0X0X0X0X0X0X0X0X0XqXqX<XP @   . $ 3 t w 9 tXU : : : @ , @ O M.6X8XqXqX0X0X0X0X0X0X0X0X0X0X0X0X0X0X0X0X0X0X0X",
"0X0X0X0X0X0X0X0X0X0X0X0X0X0X0X0X0XqXqXqX6X6X6X|.R $ j.t {.G M.rX^ rXm.m.. # Y }.6X6X6X8XqXqXqX0X0X0X0X0X0X0X0X0X0X0X0X0X0X0X0X0X",
"0X0X0X0X0X0X0X0X0X0X0X0X0X0X0X0X0XqXqX7X6X6X6X2X2Xz.j.k.:X XL.L.+XfXM.R < 4.T.2X2X2X6X6X6XqXqX0X0X0X0X0X0X0X0X0X0X0X0X0X0X0X0X0X",
"0X0X0X0X0X0X0X0X0X0X0X0X0X0X0XqXqXqX8X7X6X6X&XY.f.2.v.Z.#XdX#XiXgXjXK.2.6.i.i.s.I.2X6X6X6X6XqXqXqX0X0X0X0X0X0X0X0X0X0X0X0X0X0X0X",
"qX0X0X0X0X0X0X0X0X0X0X0X0X0X0XqXqX8X6X6X;XU.a.7.+.3.Y.v.R.%Xk.x.sXtXwX<.y.i.i.d.Y oX6X6X6X6X8XqXqX0X0X0X0X0X0X0X0X0X0X0X0X0X0X0X",
"qXqXqXqX0X0X0X0X0X0X0X0X0XqXqXqX8X6X6X1X4.-.&.o.{ 3.R.R.R.T.Z.D.yX9XhXx.y.i.y.d.V F 2X6X6X6X6X8XqXqXqX0X0X0X0X0X0X0X0X0X0XqXqXqX",
"qXqX0X0X0X0X0X0X0X0X0X0X0XqXqX8X6X6X6X}.N i - _ ' } Z.W.R.#XE.,XiX3XiXN.s.d.9.0.d v 6X6X6X6X6X6X8XqXqX0X0X0X0X0X0X0X0X0X0XqXqXqX",
"qXqXqX0X0X0X0X0X0X0X0X0XqXqX8X6X6X6X1XW j i y < ( ` L 3X@XtX$XdXsXaXkXQ a.d.%.| u `.2X6X6X6X6X6X6X6XqXqX0X0X0X0X0X0X0X0X0X0X0X0X",
"0X0X0X0X0X0X0X0X0X0X0XqXqX8X6X6X6X6XB.V V.^ h K 1 ( 5 `.dXhXjXtXtXtX`.g a.y.X.> `.sX*X6X6X6X6X6X6X6X6XqXqX0X0X0X0X0X0X0X0X0X0X0X",
"0X0X0X0X0X0X0X0X0XqXqXqX8X6X6X6X6X6X{.Z.uX9XyXiXC.=.` d E _.).E ^.M k 8 d.t.l.tXfXsX<X6X6X6X6X6X6X6X6X8XqXqXqX0X0X0X0X0X0X0X0X0X",
"0X0X0X0X0X0X0X0XqXqXqX6X6X6X6X6X6X6X1XK.#XT.uXsXgX3X;.:.l Q.Q.Q.Q.x u 8.s.s.R.hXkXsXyX*X*X<X6X6X6X2X6X6X6XqXqX0X0X0X0X0X0X0X0X0X",
"0X0X0X0X0X0X0X0XqXqX8X6X6X6X2X2X6X6X1XT.E.#XwXpX9X:X;.7.3.g j p i u =.c.M.c.Y.pXgX9XtXL.Z.=X8X1X2X2X6X6X6X6XqXqXqX0X0X0X0X0X0X0X",
"0X0X0X0X0X0X0XqX8X6X6X6X6X6X2X2X6X6X|.Z.$XA.%XpXgXn.t.:.y.s.- i y *.{.Q G OXP.Y.3XfX/.! P.sXsX*X2X2X6X6X6X6X6XqXqX0X0X0X0X0X0X0X",
"0X0X0X0X0XqXqXqX6X6X6X6X6X6X6X6X6X6X@XY.N.s ! [.eX=.t.y.9.i.s.0 8 q.+X'.^ oX&XT.wX`.^.L.gXgXyX|.6X6X6X6X6X6X6X6XqXqXqX0X0X0X0X0X",
"0X0X0X0X0XqXqX8X6X6X2X6X6X6X6X6X6X6X:X@XA.% z !.B ] %.i.t.6.9.w.w.w.4.'.B.1X6XP.D.A b @XgXiX=X2X6X6X6X6X6X6X6X6X8XqXqX0X0X0X0X0X",
"0X0X0X0XqXqX6X6X6X2X2X6X6X6X6X6X6X6X=XiXW.j.b /.j.) 4 &.y.u.y.w.q.t.t.q }.6X6X1XP.x.g C.#X|.2X6X6X6X6X6X6X6X6X6X6X6XqXqX0X0X0X0X",
"0X0X0XqXqX8X6X6X6X6X6X6X6X6X6X6X6X6X1X#X%X%XwXyX2Xw * < _ +.0.y.8.q - w S.6X6X6X2X=X}.*X=X6X6X6X6X6X2X2X6X6X6X6X6X6X8XqXqX0X0X0X",
"0X0XqXqX6X6X6X6X6X6X6X6X6X6X6X6X6X6X6XK.#XhXyX1X|.1 < - & . = g g 8 6.t.a.I.6X6X6X6X6X6X6X6X6X6X6X6X6X6X6X6X6X6X6X6X6X6XqXqXqX0X",
"0XqXqX6X6X6X6X2X6X6X6X6X6X6X6X6X6X6X6X6X@X1X2X&X,.) ( +.6.0 b 3 8 4.+.i.i.8.v.Y.E.;X6X6X6X6X6X6X6X6X6X6X6X6X6X6X2X6X6X6X6XqXqX0X",
"qXqX8X6X6X6X2X2X6X6X6X6X6X6X6X6X6X6X6X6X6X6X;X1.) o.+.@.i.L C | 5 Z %.i.e.t.w.y.s.g.U.=X6X6X6X6X6X6X6X6X6X6X6X6X2X2X6X6X6X6XqXqX",
"8X8X6X6X6X6X6X6X6X6X6X6X6X6X6X6X6X6X6X6X2XI.2.9.i.y.6.r.i.I w } 5 V t.u.q.i.i.d.i.i.i.s.Y.;X6X6X6X6X6X6X6X6X6X6X6X6X6X6X6X6X8X8X",
"8X6X6X6X6X6X6X6X6X6X6X6X6X6X6X6X6X6X6X6Xb.:.y.i.i.i.y.7.7.E B X.5 S q.9.t.i.i.d.d.d.d.i.d.S.=X6X6X6X6X6X6X6X6X6X6X6X6X6X6X6X6X8X",
"6X6X6X6X6X6X6X6X6X6X6X6X6X6X6X6X6X6X6Xl.@.y.d.d.d.d.d.i.6.S N | 5 E w &.i.i.i.i.d.d.d.d.d.i.a.@X6X6X6X6X6X6X6X6X6X6X6X6X6X6X6X6X",
"6X6X6X6X6X6X6X6X6X6X6X6X6X6X6X6X6X2Xc.O.t.i.i.y.t.w.0.9.6.M h 5 4 S S +.o.+.6.w.y.i.d.d.d.i.i.h.=X6X6X6X6X6X6X6X6X6X6X6X6X6X6X6X",
"6X6X6X6X6X6X6X6X6X6X6X6X6X6X6X6X6Xb._ 7.y.i.i.y.w.7.+.' ` M v 5 6 A !.] :.w.t.t.u.i.i.i.i.i.i.s.E.6X6X6X6X6X6X6X6X6X6X6X6X6X6X6X",
"6X6X6X6X6X6X6X6X6X6X6X6X6X6X6X6X@X6 6.y.i.i.i.i.i.d.u.&._ b s q 6 A ~.) o.7.t.t.t.t.t.y.t.7.+.a.@X6X6X6X6X6X6X6X6X6X6X6X6X6X6X6X",
"6X6X6X6X6X6X6X6X6X6X6X6X6X6X6X;X,.` 6.i.i.i.d.d.d.i.t.o.' I W {.L.W (.j.*. .| 4 2 2 ( o.o.o.w.p.E.6X6X6X6X6X6X6X6X6X6X6X6X6X6X6X",
"6X6X6X6X6X6X6X6X6X6X6X6X6X6X6X1X>.o.7.i.d.d.d.d.d.i.@.` ..4X0X0X4X{.0X0X0XqXI.>.) ( ) } :.y.w.$.E.6X6X6X6X6X6X6X6X6X6X6X6X6X6X6X",
"6X6X6X6X6X6X6X6X6X6X6X6X6X6X6X@X..o.7.i.d.d.d.i.i.6.2 >.I.0X0X0X0X0X0X0X0XqXqXqXC.| ` &.9.9.9.a.&X6X6X6X6X6X6X6X6X6X6X6X6X6X6X6X",
"6X6X6X6X6X6X6X6X6X6X6X6X6X6X6Xb.4 { +.w.i.i.i.y.#. .z.;X0X0X0X0X0X0X0X0X0X0X0XqXE. .+.w.t.y.i.g.=X6X6X6X6X6X6X6X6X6X6X6X6X6X6X6X",
"6X6X6X6X6X6X6X6X6X6X6X6X6X6X6Xc.) ( o.[ @.7.7.+.X.K.0X0X0X0X0X0X0X0X0X0X0X0X0X0X;X..' 7.t.y.u.f.=X6X6X6X6X6X6X6X6X6X6X6X6X6X6X6X",
"6X6X6X6X6X6X6X6X6X6X6X6X6X6X6X<.' O.o.o.{ ' ] ) C.qX0X0X0X0X0X0X0X0X0X0X0X0X0X0X*X .O.7.t.y.w.h.&X6X6X6X6X6X6X6X6X6X6X6X6X6X6X6X",
"6X6X6X6X6X6X6X6X6X6X6X6X6X6X6X1.o.y.u.0.6.7.6.<.7X0X0X0X0X0X0XqX0X0X0X0X0X0X0X0X7X,.[ o.#.&.y.S.2X6X6X6X6X6X6X6X6X6X6X6X6X6X6X6X",
"6X6X6X6X6X6X6X6X6X6X6X6X6X6X1X=.&.7.r.y.y.y.9.5.7X0X0X0X0X0X0XqXqX0X0X0X0X0X0X0X0X.X1 4  .;.f.&X6X6X6X6X6X6X6X6X6X6X6X6X6X6X6X6X",
"6X6X6X6X6X6X6X6X6X6X6X6X6X6XL.( +.y.q.w.i.u.+.K.0X0X0X0X0X0XqXqXqXqXqX0X0X0X0X0X0X0X$ & v H L.6X6X6X6X6X6X6X6X6X6X6X6X6X6X6X6X6X",
"6X6X6X6X6X6X6X6X6X6X6X6X6X1Xq ' &.@.9.t.w.+...-X0X0X0X0X0X0X0X0XqXqX0X0X0X0X0X0X0X0X= i Q.b *X6X6X6X6X6X6X6X6X6X6X6X6X6X6X6X6X6X",
"6X6X6X6X6X6X6X6X6X6X6X6X6X*X .+.w.y.9.%.O.} 1.0X0X0X0X0X0X0X0X0X0X0X0X0X0X0X0X0X0X0Xh j x W 4XqX8X6X6X6X6X6X6X6X6X6X6X6X6X6X6X6X",
"6X6X6X6X6X6X6X6X2X2X6X6X6X6X>.[ 6.i.i.i.y.+.b.0X0X0X0X0X0X0X0X0X0X0X0X0X0X0X0X0X0X0XQ a l C -XqXqX6X6X6X6X6X2X2X2X6X6X6X6X6X6X6X",
"6X6X6X6X6X6X6X6X2X2X6X6X6X6XP.4 ) 6.6.y.t.3.&X0X0X0X0X0X0X0X0X0X0X0X0X0X0X0X0X0X0X0X~ a l n Q XXqXqX6X6X6X6X2X2X2X6X6X6X6X6X6X6X",
"6X6X6X6X6X6X6X6X2X2X6X6X6XqX7Xo < _ %.r.4.&X0X0X0X0X0X0X0X0X0X0X0X0X0X0X0X0X0X0X0X0XL.N z x c ~ <XqXqX6X6X6X2X2X2X6X6X6X6X6X6X6X",
"6X6X6X6X6X6X6X6X2X6X6X6XqXqX5X% = 9 d g {.0X0X0X0X0X0X0X0X0X0X0X0X0X0X0X0X0X0X0X0X0X0XqXI./ M v B.0XqXqX6X6X6X2X6X6X6X6X6X6X6X6X",
"6X6X6X6X6X6X6X6X6X7X6XqX0X0X<X% B n Q.m 5X0X0X0X0X0X0X0X0X0X0X0X0X0X0X0X0X0X0X0X0X0X0X0X0X7XXX{..X0X0XqXqX6X6X6X6X6X6X6X6X6X6X6X",
"6X6X6X6X6X6X6X6X6X6X8XqX0X0X.Xy I x Q./ 0X0X0X0X0X0X0X0X0X0X0X0X0X0X0X0X0X0X0X0X0X0X0X0X0X0X0X0X0X0X0X0XqXqX8X6X6X6X6X6X6X6X6X6X",
"6X2X6X6X6X6X6X6X6X8XqXqX0X0X.X& B x c  X0X0X0X0X0X0X0X0X0X0X0X0X0X0X0X0X0X0X0X0X0X0X0X0X0X0X0X0X0X0X0X0X0XqXqX6X6X6X6X6X6X6X6X6X",
"2X2X2X2X2X6X6X6XqXqX0X0X0X0XJ.& 0 7 j.7X0X0X0X0X0X0X0X0X0X0X0X0X0X0X0X0X0X0X0X0X0X0X0X0X0X0X0X0X0X0X0X0X0XqXqXqX6X6X6X2X2X2X2X6X",
"6X2X2X2X6X6X6XqXqXqX0X0X0X0XJ a b x _.0X0X0X0X0X0X0X0X0X0X0X0X0X0X0X0X0X0X0X0X0X0X0X0X0X0X0X0X0X0X0X0X0X0X0X0XqXqX6X6X6X6X2X2X6X",
"2X6X6X6X6X6XqXqXqX0X0X0X0X7Xg g m x ].0X0X0X0X0X0X0X0X0X0X0X0X0X0X0X0X0X0X0X0X0X0X0X0X0X0X0X0X0X0X0X0X0X0X0X0XqXqXqX6X6X6X6X6X2X",
"2X6X6X6X6XqXqX0X0X0X0X0X0X}.c W x m 5X0X0X0X0X0X0X0X0X0X0X0X0X0X0X0X0X0X0X0X0X0X0X0X0X0X0X0X0X0X0X0X0X0X0X0X0X0X0XqXqX8X6X6X6X6X",
"2X6X6X6XqXqX0X0X0X0X0X0X0X<Xm W M ].0X0X0X0X0X0X0X0X0X0X0X0X0X0X0X0X0X0X0X0X0X0X0X0X0X0X0X0X0X0X0X0X0X0X0X0X0X0X0X0XqXqX6X6X6X2X",
"6X7X6XqXqX0X0X0X0X0X0X0X0X0XG.M.-X0X0X0X0X0X0X0X0X0X0X0X0X0X0X0X0X0X0X0X0X0X0X0X0X0X0X0X0X0X0X0X0X0X0X0X0X0X0X0X0X0X0XqXqX6X6X6X",
"6X6XqXqXqX0X0X0X0X0X0X0X0X0X7X7XqX0X0X0X0X0X0X0X0X0X0X0X0X0X0X0X0X0X0X0X0X0X0X0X0X0X0X0X0X0X0X0X0XqXqX0X0X0X0X0X0X0X0XqXqXqX8X6X",
"6XqXqXqX0X0X0X0X0X0X0X0XqXqXqX0X0X0X0X0X0X0X0X0X0X0X0X0X0X0X0X0X0X0X0X0X0X0X0X0X0X0X0X0X0X0X0X0XqXqXqX0X0X0X0X0X0X0X0X0XqXqXqX8X"
};
