/* XPM */
static char *_4431724f25d4889b72107ec337111bc[] = {
/* columns rows colors chars-per-pixel */
"64 64 233 2 ",
"   c #010101",
".  c #0B0406",
"X  c #0A0A0A",
"o  c #19080A",
"O  c #1C100D",
"+  c #030419",
"@  c #18051A",
"#  c #121212",
"$  c #1B1717",
"%  c #250807",
"&  c #3B0302",
"*  c #390907",
"=  c #290719",
"-  c #251C1B",
";  c #361718",
":  c #04072B",
">  c #1E1F22",
",  c #050635",
"<  c #180E34",
"1  c #2A1734",
"2  c #1F2022",
"3  c #272727",
"4  c #342C27",
"5  c #3C352D",
"6  c #2F2C33",
"7  c #373638",
"8  c #430200",
"9  c #4A0500",
"0  c #4B0B03",
"q  c #520A00",
"w  c #5C0E00",
"e  c #49180F",
"r  c #5B1301",
"t  c #571708",
"y  c #561B14",
"u  c #641301",
"i  c #6C1500",
"p  c #6B1B04",
"a  c #731A01",
"s  c #7B1D01",
"d  c #611F13",
"f  c #4F261D",
"g  c #6B220B",
"h  c #6B2416",
"j  c #742B1B",
"k  c #4C1F28",
"l  c #640D24",
"z  c #4B322E",
"x  c #642921",
"c  c #6E392B",
"v  c #4B433B",
"b  c #53453C",
"n  c #67433B",
"m  c #020B44",
"M  c #10144D",
"N  c #051454",
"B  c #271B48",
"V  c #3E3E41",
"C  c #2F2E51",
"Z  c #382A58",
"A  c #051766",
"S  c #14196C",
"D  c #041A77",
"F  c #162169",
"G  c #49335A",
"H  c #663B44",
"J  c #4B3B73",
"K  c #3B4460",
"L  c #4A4749",
"P  c #544842",
"I  c #56514B",
"U  c #594955",
"Y  c #585859",
"T  c #784D41",
"R  c #67574B",
"E  c #6E544F",
"W  c #786246",
"Q  c #7A6B5B",
"!  c #5C5B64",
"~  c #4F4E70",
"^  c #6D5B6B",
"/  c #776E6A",
"(  c #726C6F",
")  c #7A716A",
"_  c #811E00",
"`  c #832201",
"'  c #8A2905",
"]  c #962A01",
"[  c #9A2B01",
"{  c #A12F01",
"}  c #A73404",
"|  c #B53901",
" . c #C23E01",
".. c #BB4208",
"X. c #BA511D",
"o. c #844C39",
"O. c #B15A3A",
"+. c #C64201",
"@. c #CB4301",
"#. c #D44901",
"$. c #D84902",
"%. c #D45212",
"&. c #E54E00",
"*. c #EC5101",
"=. c #E65408",
"-. c #F45501",
";. c #F95700",
":. c #F45907",
">. c #FE5900",
",. c #F26112",
"<. c #D9672B",
"1. c #CB6936",
"2. c #E37232",
"3. c #8A2E43",
"4. c #895744",
"5. c #8A5956",
"6. c #AA5C48",
"7. c #856A5B",
"8. c #996656",
"9. c #A46D4F",
"0. c #AA6B57",
"q. c #B76C57",
"w. c #BC725E",
"e. c #8A7768",
"r. c #957B6B",
"t. c #907271",
"y. c #A97B67",
"u. c #BC7A65",
"i. c #AC7475",
"p. c #CE704D",
"a. c #C26D56",
"s. c #C37359",
"d. c #C77C67",
"f. c #9A8677",
"g. c #A58C6F",
"h. c #B5856C",
"j. c #A78B78",
"k. c #B88A77",
"l. c #BA9579",
"z. c #D18657",
"x. c #C6836C",
"c. c #D18965",
"v. c #D49262",
"b. c #D99D67",
"n. c #C98974",
"m. c #D88C75",
"M. c #C7937E",
"N. c #D8917B",
"B. c #011E84",
"V. c #001F89",
"C. c #01208D",
"Z. c #1B2C86",
"A. c #032192",
"S. c #112A9A",
"D. c #253195",
"F. c #132FB1",
"G. c #51538E",
"H. c #776A8A",
"J. c #4D55A3",
"K. c #7175B2",
"L. c #1539CA",
"P. c #1138D2",
"I. c #133FE7",
"U. c #1D41D6",
"Y. c #2948CE",
"T. c #1542EB",
"R. c #485EC9",
"E. c #5465C5",
"W. c #967C87",
"Q. c #A77D8A",
"!. c #907BA2",
"~. c #9B8A88",
"^. c #8F8890",
"/. c #AC9886",
"(. c #B99B86",
"). c #AA9096",
"_. c #B39796",
"`. c #B9A48B",
"'. c #BBA597",
"]. c #928AAB",
"[. c #A997A1",
"{. c #B4A8AA",
"}. c #C69886",
"|. c #D89985",
" X c #E39C86",
".X c #C7A58C",
"XX c #D9A58D",
"oX c #D4B28D",
"OX c #CEAC93",
"+X c #CAAA95",
"@X c #D3AF93",
"#X c #D8A996",
"$X c #CBB495",
"%X c #D5B296",
"&X c #D6B698",
"*X c #D7B798",
"=X c #D7BA9A",
"-X c #D5BD99",
";X c #D7BC98",
":X c #D5BD9A",
">X c #D7BD9A",
",X c #D7BD9C",
"<X c #D8BA9A",
"1X c #D8BC98",
"2X c #E4A48A",
"3X c #E3AA95",
"4X c #EAB39D",
"5X c #C6B1A8",
"6X c #D9B7A4",
"7X c #E5B8A6",
"8X c #E5BDA9",
"9X c #F1BCA6",
"0X c #D9C1AC",
"qX c #DDC4B3",
"wX c #DCC8BA",
"eX c #E6C2AE",
"rX c #F3C2AD",
"tX c #E9C9B8",
"yX c #F5CBB5",
"uX c #F5CCB7",
"iX c #F5D1BD",
"pX c #FCD4BE",
"aX c #9B9DCF",
"sX c #C1B9CE",
"dX c #D6C7C0",
"fX c #EAD5C8",
"gX c #FDD6C1",
"hX c #F6D8C6",
"jX c #E8D7D0",
"kX c #F8E5D8",
"lX c #FBEEE3",
"zX c #FCF6EF",
"xX c #FAF6F2",
/* pixels */
">X>X>X>X>X>X>X>X>X>X>X>X>X>X>X>X1X1X1X1X>X>X>X>X>X>X>X>X>X>X,X,X,X,X>X>X>X>X>X>X>X>X>X>X1X1X1X>X>X>X>X>X>X>X>X>X>X>X>X>X>X>X>X>X",
">X>X>X>X>X>X>X>X>X>X>X>X>X>X>X>X>X1X1X1X>X>X>X>X>X>X>X>X>X>X=X=X=X=X>X>X>X>X>X>X>X>X>X>X>X1X1X>X>X>X>X>X>X>X>X>X>X>X>X>X>X>X>X>X",
">X>X>X>X>X>X>X>X>X>X>X>X>X>X>X>X>X1X1X1X>X>X>X>X>X>X>X,X,X=X=X=X=X=X=X>X,X>X>X>X>X>X>X>X>X>X1X>X>X>X>X>X>X>X>X>X>X>X>X>X>X>X>X>X",
">X>X>X>X>X>X>X>X>X>X>X>X>X>X>X>X>X1X>X>X>X>X>X>X>X>X>X,X=X=X%X%X%X%X=X<X,X>X>X>X>X>X>X>X>X>X>X>X>X>X>X>X>X>X>X>X>X>X>X>X>X>X>X>X",
">X>X>X>X>X>X>X>X>X>X>X>X>X>X>X>X>X>X>X>X>X>X>X>X>X>X>X1X=X&X%X%X%X%X%X=X<X>X>X>X>X>X>X>X>X>X>X>X>X>X>X>X>X>X>X>X>X>X>X>X>X>X>X>X",
">X>X>X>X>X>X>X>X>X>X>X>X>X>X>X>X>X>X>X>X>X>X>X>X>X=X<X=X&X%X%X%X%X%X%X&X=X<X=X>X>X>X>X/.$X>X>X>X>X>X>X>X>X>X>X>X>X>X>X>X>X>X>X>X",
">X>X>X>X>X>X>X>X>X>X>X>X>X>X>X>X>X>X>X>X>X>X>X>X>X<X<X%X%X%X(.f.e.7.e.e.r.j.`.=X>X>X>Xf.v $X>X>X>X>X>X>X>X>X>X>X>X>X>X>X>X>X>X>X",
">X>X>X>X>X>X>X>X>X>X>X>X>X>X>X>X>X>X>X>X>X>X>X,X<X<X&X%X%X%Xj.b   X > 7 L 7 $ X e.=X>X$XX Q >X>X>X>X>X>X>X>X>X>X>X>X>X>X>X>X>X>X",
">X>X>X>X>X>X>X>X>X>X>X>X>X>X>X>X>X>X>X>X>X>X>X1X=X%X%X%X%X%X%X@X(.R X   $ V ! Y 6 b `.>X5 3 /.>X>X>X>X>X>X>X>X>X>X>X>X>X>X>X>X>X",
">X>X>X>X>X>X>X>X>X>X>X>X>X>X>X>X>X>X>X>X>X>X1X<X%X%X%X%X%X%XOX%X%X@Xj.-     2 ! ( V 5 `.I . Y $X>X>X>X>X>X>X>X>X>X>X>X>X>X>X>X>X",
">X>X>X>X>X>X>X>X>X>X>X>X>X>X>X>X>X>X>X>X>X=X=X&X%X%X%X%X%X@XR .X%X%X%Xj.$     # L ! 7 v R   3 f.=X>X>X>X>X>X>X>X>X>X>X>X>X>X>X>X",
">X>X>X>X>X>X>X>X>X>X>X>X>X>X>X>X>X>X,X,X<X<X%X%X%X%X%X%X%X%X4 P +X%X%X@Xr.      # 3 > # $   X ( $X>X>X>X>X>X>X>X>X>X>X>X>X>X>X>X",
">X>X>X>X>X>X>X>X>X>X>X>X>X>X>X>X>X>X>X=X=X&X%X%X%X%X%X%X%X%Xb $ 5 l.@X(.-                     Y `.>X>X>X>X>X>X>X>X>X>X>X>X>X>X>X",
">X>X>X>X>X>X>X>X>X>X>X>X>X>X>X>X>X=X=X=X%X%X%X%X%X.Xj.e.Q Q P . 6 7 R 4                       Y `.$Xe.=X>X>X>X>X>X>X>X>X>X>X>X>X",
">X>X>X>X>X>X>X>X>X>X>X>X>X>X>X>X>X=X=X%X%X%XOXr.z $ 3 V Y ! 7 X   $ X                         I `.Q R =X>X>X>X>X>X>X>X>X>X>X>X>X",
">X>X>X>X>X>X>X>X>X>X>X>X>X>X>X=X=X=X&X%X%X%X.Xr.R 4 # . X # > > .           z y.e.$ X #       7 r.X Q =X>X>X>X>X>X>X>X>X>X>X>X>X",
"1X>X>X>X>X>X>X>X>X>X>X>X>X>X>X=X=X&X%X%X%X%X%X%X%X.X~ M .       .         O d.3X$X4 E T   # . 6 -   e.=X>X>X>X>X>X>X>X>X>X>X>X>X",
"1X1X1X>X>X>X>X>X>X>X>X>X>X=X=X=X5X%X%X%X%X%X%X%X%X~.M , u q .         4 # f c.8.b 8XuXW X 7 X     X j.>X>X>X>X>X>X>X>X>X>X>X1X1X",
"1X1X>X>X>X>X>X>X>X>X>X,X>X=X=X@X|.5X$X%X%X%X%X%X%X! : ; a a r %     O }.r.; d.k.( e.(.- 3 P o     3 `.>X,X>X>X>X>X>X>X>X>X1X1X1X",
"1X1X>X>X>X>X>X>X>X>X>X,X=X=X&X%X|.yXwX%X@X@X%X%X%XU . i * o .       z |.M.q.N.eXxX) O X z (.z .   I $X=X,X>X>X>X>X>X>X>X>X>X>X>X",
">X>X>X>X>X>X>X>X>X>X>X=X=X&X%XOX6XtXfXtXeXqXOX&X6X) * u q & o O O   n d.w.a. X8XjX{.3 (..Xk.c 3 7 ~.=X=X<X>X>X>X>X>X>X>X>X>X>X>X",
">X>X>X>X>X>X>X>X>X=X=X=X&X%X%X@X#XtX6XrX|.!.K.wXiX'.y u q w e r.8.T T u.6.a.3XyXeXwXt.y.E E O 6 e..X%X&X=X=X=X>X>X>X>X>X>X>X>X>X",
">X>X>X>X>X>X>X>X=X=X=X%X%X%X%X@X6X%Xk.x.t.P.L.Q.N.N.j i i a 1 k.x.m.q.|.w.a.4XgXiXhX8X6X^.~.. 3 P r.%X%X%X<X=X>X>X>X>X>X>X>X>X>X",
">X>X>X>X>X>X>X,X<X=X&X%X%X%X@X.Xx.x.k.e.S L.F.i.u.x.j a ` % G #X#Xd.n.d.w.s.9XpX'.dXXX.XeX~.X 5 j.@X%X%X%X%X=X=X=X>X>X>X>X>X>X>X",
">X>X>X>X>X>X>X=X&X%X%X%X%X%X@X@XOXk.5.# , m J d.N.w.p a g : Z 3XtX}.w.N.d.s.9XiX; z {.6XiX) 7.OX@X@X%X%X%X%X%X<X<X>X>X>X>X>X>X>X",
">X>X>X>X>X=X=X<X%X%X%X%X%X%X%X%X%X%X@Xe.7 U d.a.q.T - r d : B }.hX6Xm. Xn.s.4X6X3.l 5.iXhX'.%X%X%X%X%X%X%X%X%X%X<X=X=X>X>X>X>X>X",
">X>X>X>X>X=X=X&X%X%X%X@X%X%X%X%X%X%X%X%XOX%X@XXX|.Y 7 f y : N Q.hX#X4XrX3XXX2XiX7X_.eXhX6X%X%X%X%X%X%X%X%X%X%X%X&X<X<X>X>X>X>X>X",
">X>X,X,X1X=X%X%X%X%X%X@X%X%X%X%X%X%X%X%X%X%X%X%X`.3 3 T k : m G.tX#XyX7XqX5XM.yX8XhXqXs.%X%X%X%X%X%X%X%X%X%X%X%X%X%X=X<X,X,X>X>X",
">X>X,X<X=X&X%X%X%X%X%X%X%X%X%X%X%X%X%X%X%X%X%X%X(.7 Y f k N A A ^ |.8XtXu.m.4X7XiXkX6X%.OX%X%X%X%X%X@X@X%X%X%X%X%X%X&X=X<X>X>X>X",
">X>X=X=X%X%X%X%X%X%X%X%X%X%X%X%X%X%X%X%X%X%X%X%Xh.b L r e A B.B.A J N.yXtXd. XuXgXlXv.*.c.%X%X%X%X%X%X%X%X%X%X%X%X%X%X%X=X=X=X>X",
",X=X=X%X%X%X%X@X%X%X.Xt.~.(.t.OX%X%X%X%X%X%X%X%X4.& r ` t : D V.C.A.Z.H.~.{.).Q.k.<.;.*.,.XX%X%X%X%X%X%X%X%X%X%X@X%X%X%X%X=X=X,X",
"<X=X=X%X%X%X@X@X%X%X@Xf.M B , ) %XOX[.].~.+X%X%X5.9 u ` t , m A V.V.C.B.B H O.%.=.;.;.;.;.c.%X%X%X%X%X%X%X%X%X%X@X@X%X%X%X%X=X<X",
"&X&X%X%X%X%X%X%X%X%X%X%Xf.B Z.D.J.K.K.E.Y.F ^ c = % q i p + : : < B j ..-.-.$.| &.>.>.>.>.2.oX%X%X%X%X%X%X%X%X%X%X%X%X%X%X%X&X&X",
"&X%X%X%X%X%X%X%X%X%X%X%X%X.X/.'.@X%X%X%X_.G , : = @ 8 j j f t ' +.*.;.-.-.&.$.*.>.-.#.+.$.:.z.%X%X%X%X%X%X%X%X%X%X%X%X%X%X%X%X&X",
"%X%X%X%X%X%X%X%X%X%X%X%X%X%X%X%X%X%X%X%Xc 8 & @ + + ; 4X9XeXXX,.*. .| @.-.;.>.>.#.% : m m < ' c.%X%X%X%X%X%X%X%X%X%X%X%X%X%X%X%X",
"%X%X%X%X%X%X%X%X%X%X%X%X%X%X%X%X%X%X%X8.8 8 9 u * o c n.n.XXtX2X:.$.s {  .;.-.} $ m D C.A.B.1 9.%X%X%X%X%X%X%X%X%X%X%X%X%X%X%X%X",
"%X%X%X%X%X%X%X%X%X%X%X_.E.E.].OX%X%XM.y 8 9 q u a p 0.|.3XhXuX0Xh.#.*.] ` @.' m D B.V.C.D B.D h.%X%X%X%X%X%X%X%X%X%X%X%X%X%X%X%X",
"%X%X%X%X%X%X%X%X%X%XOXG.F.T.T.Y.^..X4.9 8 9 q w ' ' u.d.2XuXtXiX6Xx | { u t 1 Z ( U G J Z.C.B.+X%X%X%X%X%X%X%X%X%X%X%X%X%X%X%X%X",
"%X%X%X%X%X%X%X%X%X%X[.Y.T.T.T.P.S.C % 8 8 u s | { f q.x.fXgXiXtXiXW.u s 0 $ 0.yXkXjX|.4Xi.~ B.~.%X%X%X%X%X%X%X%X%X%X%X%X%X%X%X%X",
"%X%X%X%X%X%X%X%X%X%X].R.].[.].R.T.P.A @ & i a x : - x.n.XXfXgXpXpXsXG i & f N.pXkXzXM.x.4X~.+ H.%X%X%X%X%X%X%X%X%X%X%X%X%X%X%X%X",
"%X%X%X%X%X%X%X%X%X%X@X%X%X%X@XW O S A S D A m < g ..O.x.tXuXpXpXpX].L.D.Z 8.m.pXkXxX#XrXkX! 6 (.%X%X%X%X%X%X%X%X%X%X%X%X%X%X%X%X",
"%X%X%X%X%X%X%X%X%X%X%X%X%X%Xg.: @ S < & * 0 t | -.>.=.1.N.8XpXgXtXJ.I.I.T.{.%X8XfXxX7XyXeX/.(.@X%X%X%X%X%X%X%X%X%X%X%X%X%X%X%X%X",
"%X%X%X%X%X%X%X%X%X%X%X%X%X%Xb A 5 F 1 8 8 u s  .>.>.>.:.p.2XuXuXW.F.T.I.I.sXlXlXkXjX7XuXtX6X%X@X%X%X%X%X%X%X%X%X%X%X%X%X%X%X%X%X",
"%X%X%X%X%X%X%X%X%X%X%X%X%X.XL Y ~ Z e q 8 w s | >.>.>.;.%.O.r.U , N A.F.U.#X9XyXhXkXtXyXiX0X%X@X%X%X%X%X%X%X%X%X%X%X%X%X%X%X%X%X",
"%X%X%X%X%X%X%X%X%X%X%X%X%XoXb.t.g.8 w q u w a } >.>.>.;.$.%.U + : , , D aXkXXXw.|.rXiXuXeXqX%X%X%X%X%X%X%X%X%X%X%X%X%X%X%X%X%X%X",
"%X%X%X%X%X%X%X%X%X%X%X%X%X%X%Xk.e 8 w 9 u ` a ] ;.>.;.@.-. .M.) + + m J.fXkXlXjX6X3XrXpXeXqX%X%X%X%X%X%X%X%X%X%X%X%X%X%X%X%X%X%X",
"%X%X%X%X%X%X%X%X%X%X%X%X%X%Xh.x 8 q w 9 q s | ' -.>. .&.>.| z.1Xf.U 5.|.rXpXgXgXhXkXhXeXhX0X%X%X%X%X%X%X%X%X%X%X%X%X%X%X%X%X%X%X",
"%X%X%X%X%X%X%X%X%X%X%X%X%Xl.h 9 9 i u 8 q { } | +.@.@.>.>.+.h.1X<X%Xx.d.N.2XrXpXpXpXpXuXjX>X=X%X%X%X%X%X%X%X%X%X%X%X%X%X%X%X%X%X",
"%X%X%X%X%X%X%X%X%X%X%X@X8.h r u w a w 8 q | $.[ i [ &.>.>....X1X&X&X&X.Xx.d.m. X9XiXtXfXqX=X=X=X&X%X%X%X%X%X%X%X%X%X%X%X%X%X%X%X",
"%X%X%X%X%X%X%X%X@X@X%X}.9 w u i ` a w 8 8 _ ;.-.*.;.>.>.>.1.>X>X=X=X1X>X>XOXn.u.x.2XhXkX>X>X>X=X=X%X%X%X%X%X@X@X@X%X%X%X%X%X%X%X",
"%X%X%X%X%X%X%X%X@X@X%Xh.8 w ' s a $.{ } x 9 ] *.>.>.>.>.>.v.>X>X>X>X>X>X>X>X>X>X=X%X%X6X>X>X>X=X=X=X%X%X%X%X@X@X@X%X%X%X%X%X%X%X",
"%X%X%X%X%X%X%X%X@X@X%Xk.9 w ] } a *.=.z.l.y 9 [ ;.>.>.>.%.oX>X>X>X>X>X>X>X>X>X>X>X>X>X>X>X>X>X>X<X<X=X%X%X%X@X@X@X%X%X%X%X%X%X%X",
"%X%X%X%X%X%X%X%X@X%X+XL o q a ] } $.z.=X>X.Xo.h ] #.#.X.l.>X>X>X>X>X>X>X>X>X>X>X>X>X>X>X>X>X>X>X>X,X<X=X%X%X%X@X%X%X%X%X%X%X%X%X",
"%X%X%X%X%X%X%X%X%X%Xe.M m e a @.*.<.%X>X>X>X&Xl.y.9.0..X>X>X>X>X>X>X>X>X>X>X>X>X>X>X>X>X>X>X>X>X>X,X,X=X=X%X%X%X%X%X%X%X%X%X%X%X",
"%X%X%X%X%X%X%X%X%Xr.@ D K v 4.O.1.%X>X>X>X>X1X1X>X>X>X>X>X>X>X>X>X>X>X>X>X>X>X>X>X>X>X>X>X>X>X>X>X>X>X>X=X=X&X%X%X%X%X%X%X%X%X%X",
"%X@X%X%X%X%X%X%X%XL B L Q ^.=X>X>X>X>X>X>X>X>X1X>X>X>X>X>X>X>X>X>X>X>X>X>X>X>X>X>X>X>X>X>X>X>X>X>X>X>X>X>X=X=X%X%X%X%X%X%X%X%X%X",
"%X@X@X@X@X%X%X%Xf.M K ^ $X>X>X>X>X>X>X>X>X>X>X>X>X>X>X>X>X>X>X>X>X>X>X>X>X>X>X>X>X>X>X>X>X>X>X>X>X>X>X>X>X=X<X=X%X%X%X@X@X@X@X%X",
"%X@X@X@X%X%X%X=X/ C ) '.>X>X>X>X>X>X>X>X>X>X>X>X>X>X>X>X>X>X>X>X>X>X>X>X>X>X>X>X>X>X>X>X>X>X>X>X>X>X>X>X>X>X>X<X=X%X%X%X%X@X@X%X",
"@X%X%X%X%X%X=X=Xl.g.$X>X>X>X>X>X>X>X>X>X>X>X>X>X>X>X>X>X>X>X>X>X>X>X>X>X>X>X>X>X>X>X>X>X>X>X>X>X>X>X>X>X>X>X>X=X=X=X%X%X%X%X%X@X",
"@X%X%X%X%X=X<X>X>X>X>X>X>X>X>X>X>X>X>X>X>X>X>X>X>X>X>X>X>X>X>X>X>X>X>X>X>X>X>X>X>X>X>X>X>X>X>X>X>X>X>X>X>X>X>X>X>X<X=X&X%X%X%X%X",
"@X%X%X%X=X=X>X>X>X>X>X>X>X>X>X>X>X>X>X>X>X>X>X>X>X>X>X>X>X>X>X>X>X>X>X>X>X>X>X>X>X>X>X>X>X>X>X>X>X>X>X>X>X>X>X>X>X>X=X=X%X%X%X%X",
"%X%X%X=X<X>X>X>X>X>X>X>X>X>X>X>X>X>X>X>X>X>X>X>X>X>X>X>X>X>X>X>X>X>X>X>X>X>X>X>X>X>X>X>X>X>X>X>X>X>X>X>X>X>X>X>X>X>X>X=X=X%X%X%X",
"%X%X=X=X<X>X>X>X>X>X>X>X>X>X1X>X>X>X>X>X>X>X>X>X>X>X>X>X>X>X>X>X>X>X>X>X>X>X>X>X>X>X>X>X>X>X>X>X>X1X1X>X>X>X>X>X>X>X>X1X<X=X&X%X",
"&X=X<X<X,X>X>X>X>X>X>X>X1X1X1X>X>X>X>X>X>X>X>X>X>X>X>X>X>X>X>X>X>X>X>X>X>X>X>X>X>X>X>X>X>X>X>X>X1X1X1X>X>X>X>X>X>X>X>X,X<X=X=X&X"
};
