/* XPM */
static char *d25ee7af10444c6ba48daf7f58904d21[] = {
/* columns rows colors chars-per-pixel */
"64 64 208 2 ",
"   c #2B391A",
".  c #4D1B15",
"X  c #531C16",
"o  c #581E17",
"O  c #521F18",
"+  c #5B1F1A",
"@  c #472F1B",
"#  c #532017",
"$  c #54231B",
"%  c #5D211B",
"&  c #63231B",
"*  c #69271C",
"=  c #6D2A1D",
"-  c #702C1E",
";  c #6D311F",
":  c #5D2F25",
">  c #742F20",
",  c #653925",
"<  c #763121",
"1  c #7B3424",
"2  c #7A3B2C",
"3  c #6B3E32",
"4  c #014716",
"5  c #094617",
"6  c #024917",
"7  c #044C19",
"8  c #0B4E1C",
"9  c #05531D",
"0  c #0B511E",
"q  c #355B19",
"w  c #085820",
"e  c #095D23",
"r  c #155423",
"t  c #195926",
"y  c #285D2E",
"u  c #0B6226",
"i  c #0D6629",
"p  c #0E6B2C",
"a  c #156426",
"s  c #116D2D",
"d  c #14712F",
"f  c #1C712D",
"g  c #127230",
"h  c #1B7631",
"j  c #1E7832",
"k  c #316529",
"l  c #27762D",
"z  c #2B6231",
"x  c #356838",
"c  c #3D6B3C",
"v  c #207730",
"b  c #237A31",
"n  c #2B7E32",
"m  c #357D33",
"M  c #3D7835",
"N  c #4C5517",
"B  c #72701B",
"V  c #594F28",
"C  c #79462B",
"Z  c #715721",
"A  c #6D4236",
"S  c #754739",
"D  c #6B5E32",
"F  c #4A632D",
"G  c #456C3C",
"H  c #477634",
"J  c #567132",
"K  c #517034",
"L  c #757525",
"P  c #656534",
"I  c #7C5243",
"U  c #496F42",
"Y  c #507547",
"T  c #56794B",
"R  c #707C49",
"E  c #813927",
"W  c #853C29",
"Q  c #893E2C",
"!  c #87781D",
"~  c #8E432E",
"^  c #884935",
"/  c #904430",
"(  c #944A35",
")  c #994F39",
"_  c #865630",
"`  c #91573B",
"'  c #9C543D",
"]  c #856921",
"[  c #897121",
"{  c #875A49",
"}  c #995A44",
"|  c #A25C43",
" . c #97624E",
".. c #957B48",
"X. c #8A6352",
"o. c #956D5A",
"O. c #977755",
"+. c #A66249",
"@. c #A9654A",
"#. c #AD694E",
"$. c #A9774F",
"%. c #AE6C51",
"&. c #B16E53",
"*. c #AB7657",
"=. c #B37356",
"-. c #B27953",
";. c #B77659",
":. c #B8775A",
">. c #B2795D",
",. c #BB7A5D",
"<. c #9B7461",
"1. c #A27B67",
"2. c #B37F63",
"3. c #BE7D61",
"4. c #C07F66",
"5. c #3EA913",
"6. c #36892E",
"7. c #399528",
"8. c #2F8032",
"9. c #318133",
"0. c #388735",
"q. c #548C15",
"w. c #42B309",
"e. c #49B70A",
"r. c #4CBC0C",
"t. c #58B90A",
"y. c #53A917",
"u. c #48B013",
"i. c #68AA1C",
"p. c #70B110",
"a. c #46813A",
"s. c #7B912F",
"d. c #43AA20",
"f. c #4CC30D",
"g. c #56CA0C",
"h. c #5DD20C",
"j. c #55C613",
"k. c #66C808",
"l. c #78C804",
"z. c #6BD405",
"x. c #64D209",
"c. c #73D402",
"v. c #7BD600",
"b. c #74D803",
"n. c #7DDA00",
"m. c #588746",
"M. c #5F8C58",
"N. c #678356",
"B. c #6C8F59",
"V. c #798C61",
"C. c #6E9261",
"Z. c #848718",
"A. c #829314",
"S. c #8DAD1F",
"D. c #8AB419",
"F. c #91962F",
"G. c #8AA424",
"H. c #94AA26",
"J. c #A0AF33",
"K. c #80D503",
"L. c #80DC01",
"P. c #AB8E4E",
"I. c #B4A54E",
"U. c #879769",
"Y. c #AB846A",
"T. c #B9866A",
"R. c #B18C74",
"E. c #A69A7A",
"W. c #BA967A",
"Q. c #8DA173",
"!. c #A6A57B",
"~. c #C38265",
"^. c #C68568",
"/. c #C8876B",
"(. c #CB8A6E",
"). c #CE8D71",
"_. c #D08F73",
"`. c #D39276",
"'. c #D69579",
"]. c #D8977B",
"[. c #DB9A7E",
"{. c #BD9B81",
"}. c #ACA880",
"|. c #BBA482",
" X c #BCAD88",
".X c #BDB08B",
"XX c #C49F82",
"oX c #DE9D81",
"OX c #C3A285",
"+X c #C9A489",
"@X c #C6AB8B",
"#X c #CBAA8D",
"$X c #C2B28D",
"%X c #CEAD90",
"&X c #D3AF93",
"*X c #CDB392",
"=X c #CDB994",
"-X c #D4B295",
";X c #D5B696",
":X c #D2BA97",
">X c #D6B698",
",X c #D8B79A",
"<X c #D6B999",
"1X c #D7BC98",
"2X c #D7BD9A",
"3X c #D7BD9C",
"4X c #D8BA9A",
"5X c #D9BC98",
/* pixels */
"2X2X2X2X2X2X2X2X2X2X2X2X2X2X2X2X5X5X5X5X2X2X2X2X2X2X2X2X2X2X3X3X3X3X2X2X2X2X2X2X2X2X2X2X2X5X5X2X2X2X2X2X2X2X2X2X2X2X2X2X2X2X2X2X",
"2X2X2X2X2X2X2X2X2X2X2X2X2X2X2X2X2X5X5X5X2X2X2X2X2X2X2X2X2X2X<X<X<X<X2X2X2X2X2X2X2X2X2X2X2X5X5X2X2X2X2X2X2X2X2X2X2X2X2X2X2X2X2X2X",
"2X2X2X2X2X2X2X2X2X2X2X2X2X2X2X2X2X5X5X5X2X2X2X2X2X2X2X3X3X<X<X<X<X<X<X3X3X2X2X2X2X2X2X2X2X2X5X2X2X2X2X2X2X2X2X2X2X2X2X2X2X2X2X2X",
"2X2X2X2X2X2X2X2X2X2X2X2X2X2X2X2X2X5X2X2X2X2X2X2X2X2X2X3X<X<X;X;X;X;X<X4X3X2X2X2X2X2X2X2X2X2X2X2X2X2X2X2X2X2X2X2X2X2X2X2X2X2X2X2X",
"2X2X2X2X2X2X2X2X2X2X2X2X2X2X2X2X2X2X2X2X2X2X2X2X2X2XOX{.<X>X;X-X-X;X;X<X4X2X2X2X2X2X2X2X2X2X2X2X2X2X2X2X2X2X2X2X2X2X2X2X2X2X2X2X",
"2X2X2X2X2X2X2X2X2X2X2X2X2X2X2X2X2X2X2X2X2X2X2X;X#XW.*.| } Y.XX@X&X-X-X>X<X4X<X2X2X2X2X2X2X2X2X2X2X2X2X2X2X2X2X2X2X2X2X2X2X2X2X2X",
"2X2X2X2X2X2X2X2X2X2X2X2X2X2X2X2X2X2X2X2X2X@XY.T.T.(.`.`./.| ^ } *.R.%X-X;X<X<X2X2X2X2X2X2X2X2X2X2X2X2X2X2X2X2X2X2X2X2X2X2X2X2X2X",
"2X2X2X2X2X2X2X2X2X2X2X2X2X2X2X2X2X2X2X@XY.T.[.oXoXoXoXoXoX[.| / / ~ ~ { o.R.-X4X3X2X2X2X2X2X2X2X2X2X2X2X2X2X2X2X2X2X2X2X2X2X2X2X",
"2X2X2X2X2X2X2X2X2X2X2X2X2X2X2X@XW.T.T.).'._./.^.~.^.).`.'.`.:.| / / / Q & X , R.<X2X2X2X2X2X2X2X2X2X2X2X2X2X2X2X2X2X2X2X2X2X2X2X",
"2X2X2X2X2X2X2X2X2X2X2X2X2X2X|.>.,.`.'.^.,.:.;.;.;.;.;.,.,.,.;.=.| / / ~ = + X $ W.<X<X2X2X2X2X2X2X2X2X2X2X2X2X2X2X2X2X2X2X2X2X2X",
"2X2X2X2X2X2X2X2X2X2X2X2X2X@X*.;.~.(.,.;.;.;.;.;.;.;.;.;.;.;.;.;.=.} / ~ 1 & + . S #X<X2X2X2X2X2X2X2X2X2X2X2X2X2X2X2X2X2X2X2X2X2X",
"2X2X2X2X2X2X2X2X2X2X2X2X<XT.;.;.:.,.;.;.;.;.;.;.;.;.;.;.;.;.;.;.;.&./ / E = + + O o.<X<X3X3X2X2X2X2X2X2X2X2X2X2X2X2X2X2X2X2X2X2X",
"2X2X2X2X2X2X2X2X2X2X2X2XOX=.~.`.`.3.;.;.;.;.;.;.:.:.;.;.;.;.;.;.;.;.| / Q = & + X . {.<X4X2X2X2X2X2X2X2X2X2X2X2X2X2X2X2X2X2X2X2X",
"2X2X2X2X2X2X2X2X2X2X2X#X>.).`.~.:.;.;.;.;.;.;.^.[.[.^.;.;.;.;.;.;.;.=./ ~ - & + + X I -X<X<X<X2X2X2X2X2X2X2X2X2X2X2X2X2X2X2X2X2X",
"2X2X2X2X2X2X2X2X2X2X;XT.'.`.,.;.;.;.;.;.;.;.;./.[.oX/.;.;.;.;.;.;.;.;.) / 1 * + + + , W.;X<X<X2X2X2X2X2X2X2X2X2X2X2X2X2X2X2X2X2X",
"2X2X2X2X2X2X2X2X2X2XW./.].3.;.;.;.;.;.;.;.;.;.;.,.,.;.;.;.;.;.;.;.;.;.' / W = % + + + { -X;X<X<X<X2X2X2X2X2X2X2X2X2X2X2X2X2X2X2X",
"5X2X2X2X2X2X2X2X2X|.T.[.~.;.;.;.;.;.;.;.;.;.;.;.;.;.;.;.;.;.;.;.;.;.;.| / Q - * + + + % X.-X>X4X<X2X2X2X2X2X2X2X2X2X2X2X2X2X2X2X",
"5X5X5X2X2X2X2X2X@X>.`.`.;.;.;.;.;.;.;.;.;.;.;.;.;.;.;.;.;.;.;.;.;.;.;.| / ~ > - % + + + . X.-X>X<X<X<X2X2X2X2X2X2X2X2X2X2X2X5X5X",
"5X5X5X2X2X2X2X*X2.(.[.~.;.;.;.;.;.;.;.;.;.;.;.;.;.;.;.,.).,.;.;.;.;.;.+./ ~ < - * + + + X $ X.&X>X<X<X2X3X2X2X2X2X2X2X2X2X5X5X5X",
"5X5X5X2X2X2X*X>.~.[.).:.;.;.;.;.;.;.;.;.;.;.;.;.;.;.;.,.[.3.;.;.;.;.;.+./ ~ 1 - = & + + + X . X.-X;X<X<X3X2X2X2X2X2X2X2X2X2X2X2X",
"2X2X2X2X2X*XY.,.].`.,.;.;.;.;.;.,.).:.;.;.;.;.;.;.;.;.;.,.;.;.;.;.;.;.+./ ~ 1 - - = & + + X . $ Y.;X;X<X4X2X2X2X2X2X2X2X2X2X2X2X",
"2X2X2X2X:XY.,.'.'.3.;.;.;.;.;.;.:.(.:.;.;.;.;.;.;.;.;.;.;.;.;.;.;.;.;.+./ / W - - - = & + + . . 3 %X;X>X<X<X<X2X2X2X2X2X2X2X2X2X",
"2X2X2X2XY.;.`.[.3.;.;.;.;.;.;.;.;.;.;.;.;.;.;.;.;.;.;.;.;.;.;.;.;.;.;.| / / W - - - - = + + X . . { &X-X;X4X<X2X2X2X2X2X2X2X2X2X",
"2X2X2X@X>.^.`.3.;.;.;.;.;.3.(.,.;.;.;.;.;.;.;.;.;.;.;.;.;.;.;.;.;.;.;.) / / W - - - - = & + + . . O Y.-X-X;X<X<X<X2X2X2X2X2X2X2X",
"2X2X2XW.=.~.,.;.;.;.;.;.;./.oX(.;.;.;.;.;.;.;.;.;.;.;.;.;.;.;.;.:.:.#./ / / W - - - - - = + + X . . : OX-X-X;X4X4X2X2X2X2X2X2X2X",
"2X2X2XW.;.;.;.;.;.;.;.;.;.3.`.3.;.;.;.;.;.;.;.;.;.;.;.;.;.;.;.;.;.=.) / / / W - - = = = > 2 ^ @.2 % # S -X-X-X;X4X<X<X2X2X2X2X2X",
"2X2X2XOX%.;.;.;.;.;.;.;.;.;.;.;.;.;.;.;.;.;.;.;.;.=.-.;.;.;.;.;.;.| / / / / W - - = 2 } 4.).].[._.' W 2  .o.#X-X>X4X4X2X2X2X2X2X",
"2X2X3X:X .' %.;.;.;.;.;.;.;.;.;.;.;.;.;.;.;.;.;.;.-.D.G.-.;.;.;.@./ / / ~ ~ 1 = ^ =._.(.,.;.:.~.^.;.' / W % , OX-X;X<X4X3X3X2X2X",
"2X2X3X4X#X} / ' %.;.;.;.;.;.;.;.;.;.;.;.;.;.;.;.:.;.H.v.D.-.=.+./ ~ ~ ] Z.A.B ^ =.~.,.;.;.;.;.;.;.;.=.' Q * o { &X-X>X<X4X2X2X2X",
"2X2X<X<X;X+X} / ( #.;.;.;.;.;.;.;.;.;.=.=.;.;.;.:.;.H.n.n.S.' / Z.] p.v.c.t.Z :.(.~.;.;.;.,.3.;.;.;.;.%.~ > + # W.-X;X;X<X<X<X2X",
"3X<X<X;X;X-X .W ~ / +.=.;.;.;.;.;.;.;.&.' &.:.;.;.%.G.n.b.b.] A.v.l.n.x.t.Z %.).,.;.;.;.;.(.].,.;.;.;.;.( 1 & + 3 %X-X-X;X<X<X3X",
"4X<X>X;X-X+X^ - ~ / ( #.;.;.;.;.;.;.;.&./ ' =.;.@.( Z.n.z.g.t.l.n.n.z.f.q.` (.:.;.;.;.;.;.,.,.;.;.;.;.;.' E * + + o.&X-X;X;X<X4X",
",X>X-X-X-XOX2 - 1 ~ / | ;.;.;.;.:.:.;.=./ / ( ' / / L n.z.e.k.n.n.v.h.f.y.P.~.;.;.;.;.;.;.;.;.:.:.;.;.;.' Q = & + % 1.-X-X-X>X,X",
">X-X-X-X-X+XC = 1 ~ / ' ;.;.;.;.;.;.;.-.[ Z.Z.! ~ _ _ k.h.t.v.n.c.z.g.i.P.`.:.;.;.;.;.;.;.;.;.,.^.;.;.;.| ~ - * + + $ <.-X-X-X>X",
"-X-X-X-X-X#X^ - < ~ / ) ;.;.;.;.;.;.F.K.L.L.L.n.Z.i.B y.g.k.L.n.g.r.q.P.'.:.;.;.;.).;.;.;.;.;.;.;.;.;.;.| / > - * + X $ W.-X-X-X",
"-X-X-X-X-X-X} - > ~ / / #.;.;.;.-.G.v.n.n.v.n.n.v.l.t.w.f.c.n.z.g.r.i.I.P.P.P.,.:.;.;.;.;.;.;.;.;.;.;.;.' / 1 - - & + . I %X-X-X",
"-X-X-X-X-X-X*.- - Q / / ( @.;.;.-.F.p.h.h.x.n.n.c.n.x.w.w.c.b.r.k.l.K.L.K.K.D.J.~.;.;.;.;.;.;.;.;.;.;.=./ / 1 - - * + X O X.-X-X",
"-X-X-X-X-X-XY.- - 1 ~ ~ / ( #.;.;.;.=.s.t.u.j.k.z.z.x.r.w.c.g.z.n.v.v.v.v.n.n.n.S.-.;.;.;.;.;.;.;.;.=.' / / 1 - - * + + . . OX-X",
"-X-X-X-X-X!.N.V V ; < 1 ~ / ( =.;.;.;.O.J 9.6.7.j.j.g.f.w.g.z.c.k.k.L.n.x.z.b.b.c.G.=.;.;.;.;.;.;.;.| / / ~ - - - * + + X . #X-X",
"-X-X-X-X-X0.9.9.m , - - < ~ / @.;.;.;.a.9.9.9.9.6.7.r.w.w.r.k.j.9.6.6.y.g.u.f.f.F.$.=.=.;.;.;.;.;.| / / / W - - - * + + . A -X-X",
"-X-X-X-X*X9.9.9.9.9., , V H D ` =.=.R 0.9.9.8.8.9.9.7.w.w.w.f.d.9.9.9.6.q.L ..$.;.;.&.' %.=.} ` P ^ ^ / ~ 1 - - - = % X . <.-X-X",
"-X-X-X-X!.9.9.9.9.9.F F m 9.m D } R 9.8.9.9.b b 8.9.6.5.w.w.w.7.9.0.0.9.K / #.O.O.;.=.) ( ` H H 9.M P / Q - = = - = % . . {.-X-X",
"-X-X-X-XU.9.9.9.9.9.9.9.9.9.9.J H m n b 8.8.h s h 8.9.8.N q.d.0.9.9.9.9.M D H 0.a...=.' C D m 8.9.9.K P C = - = - = o . : #X-X-X",
"-X-X-X-Xm.9.9.9.n n 9.9.m 8.9.m m n h g b b p w p n 9.8.k q n 9.9.9.9.9.9.M 9.9.9.m.$._ H m 9.8.9.9.9.9.F ; - - - & X . S &X-X-X",
"-X-X-X XB.9.8.n d g n 9.n j 8.8.n g u p s g p 9 e b n b a 4 r 8.8.8.8.9.9.9.9.8.9.a.R 9.8.n 8.9.n b 8.8.M , - - = + X . X.-X-X-X",
"-X-X*XC.9.9.b s e p b 8.n h n n h i 7 6 9 u p 9 7 h b d e 4 0 l 8.b b n 9.9.8.b 8.9.0.n n h n 8.b g v 8.m V - = & + X O 1.-X-X-X",
"-X-XU.9.8.8.j g 9 7 s n 8.h g h p 6 4 4 4 6 7 4 4 e d d e 4 6 l n h g h 8.9.8.j n 9.n h d g h b d 9 p n 9.M , & + X . $ {.-X-X-X",
"-X%XC.n h d i s s 9 9 f b g g p 9 4 4 4 4 4 4 4 4 6 i g p 6 4 a b p 6 s n 9.n l a l h p 6 9 p g g 7 e n 9.9.l @ # X . A &X-X-X-X",
"-XU.n n g p 7 9 9 6 4 e g g g u 7 4 4 4 4 4 4 4 4 4 7 w 9 4 6 u g p 6 e n n v e 6 a u 9 4 4 6 e p 7 w n n b a 5   . . R.-X-X-X-X",
"-XC.b b g p 7 4 4 4 4 9 e g p 4 4 4 4 4 4 4 4 4 4 4 4 4 4 4 4 7 u p 6 9 v b g w 4 4 7 4 4 4 4 4 4 4 9 d h g e 4   $ S -X-X-X-X-X",
"-XQ.h g g s 7 4 4 4 4 4 6 9 9 4 4 4 4 4 4 4 4 4 4 4 4 4 4 6 7 6 4 6 4 7 e g s e 6 7 6 4 4 4 4 4 4 4 6 e g p 9 4 7 E.&X-X-X-X-X-X",
"-X*XM.g p e 6 4 4 4 4 4 4 4 4 4 4 4 4 4 4 4 4 4 4 4 4 4 4 6 8 6 4 4 4 4 6 p g s 4 4 6 4 4 4 4 4 4 4 4 7 p g u 4 r @X-X-X-X-X-X-X",
"-X-X@XC.z 4 4 4 4 4 4 4 4 4 4 4 4 4 4 4 4 4 6 9 w 7 7 7 8 6 4 4 4 4 4 4 4 6 e 9 4 6 7 4 4 4 4 4 4 4 4 4 7 e 7 4 0 E.-X-X-X-X-X-X",
"-X-X-X-XE.G U T r 6 6 4 4 4 4 4 4 4 4 4 4 4 6 e g e 7 6 4 4 4 4 4 4 4 4 4 4 4 4 4 6 7 4 4 4 4 4 4 4 4 4 4 4 4 4 t @X-X-X-X-X-X-X",
"-X-X-X-X-X-X-X-X Xc V.y r 0 6 4 7 4 6 4 7 6 6 6 7 9 4 4 4 4 4 4 4 4 4 4 4 4 4 4 6 8 6 4 4 4 4 4 4 4 4 4 4 4 6 6 c @X-X-X-X-X-X-X",
"-X-X-X-X-X-X-X-X;X:X<X*X.XM.i 9 9 7 6 6 6 4 4 4 4 4 4 4 4 4 4 4 4 4 4 4 4 4 6 7 7 7 4 4 4 4 4 8 r r 6 6 8 8 x G @X-X-X&X&X&X-X-X",
"&X&X&X&X&X-X;X;X<X4X<X2X2X=XQ.c 4 4 4 4 4 4 4 4 4 4 4 4 4 4 4 4 4 z 8 z 6 c r 7 4 x 4 4 4 4 4 t }.$XN.N.N.}.$X;X;X;X-X&X&X&X&X-X",
"-X&X&X&X-X;X;X<X<X<X2X2X2X2X2X!.T U U z 6 6 4 4 4 4 4 4 4 4 4 4 6 y :X:X.X2X=X XU.$XU T z Y U.T .X2X2X2X2X2X2X4X<X;X;X-X-X&X&X-X",
"&X-X-X-X;X;X<X<X<X2X2X2X2X2X2X2X2X:X=X$XV.V.G c r 4 4 c 8 t 8 z N.U.2X2X2X2X2X2X2X2X:X:X$X:X2X2X2X2X2X2X2X2X2X<X<X<X;X;X-X-X-X&X",
"&X-X-X;X;X<X4X2X2X2X2X2X2X2X2X2X2X2X2X2X2X2X2X2X XV.B.*XU..X!.=X2X2X2X2X2X2X2X2X5X2X2X2X2X2X2X2X2X2X2X2X2X2X2X2X2X4X<X>X;X-X-X&X",
"&X-X;X;X<X<X2X2X2X2X2X2X2X2X2X2X2X2X2X2X2X2X2X2X2X2X2X2X2X2X2X2X2X2X2X2X2X2X2X2X2X5X2X2X2X2X2X2X2X2X2X2X2X2X2X2X2X2X<X<X;X;X-X&X",
"-X;X;X<X4X2X2X2X2X2X2X2X2X2X2X2X2X2X2X2X2X2X2X2X2X2X2X2X2X2X2X2X2X2X2X2X2X2X2X2X5X5X2X2X2X2X2X2X2X2X2X2X2X2X2X2X2X2X2X<X<X;X;X-X",
";X;X<X<X4X2X2X2X2X2X2X2X2X2X5X2X2X2X2X2X2X2X2X2X2X2X2X2X2X2X2X2X2X2X2X2X2X2X2X2X5X2X2X2X2X2X2X2X2X5X5X2X2X2X2X2X2X2X2X5X4X<X>X;X",
">X<X4X4X3X2X2X2X2X2X2X2X5X5X5X2X2X2X2X2X2X2X2X2X2X2X2X2X2X2X2X2X2X2X2X2X2X2X2X2X5X5X2X2X2X2X2X2X2X5X5X2X2X2X2X2X2X2X2X3X4X<X<X>X"
};
